<svg width="22" height="20" viewBox="0 0 22 20" fill="none" xmlns="http://www.w3.org/2000/svg">
<path fill-rule="evenodd" clip-rule="evenodd" d="M3.87287 0.250003L3.875 0.25H18.125V1L18.1271 0.250003C19.0209 0.252546 19.8773 0.608716 20.5093 1.2407C21.1413 1.87268 21.4975 2.72911 21.5 3.62287L21.5 3.625V12.625L21.5 12.6271C21.4975 13.5209 21.1413 14.3773 20.5093 15.0093C19.8773 15.6413 19.0209 15.9975 18.1271 16L18.125 16H10.5193L6.23028 19.576C6.00674 19.7624 5.69555 19.8026 5.43197 19.6792C5.16838 19.5558 5 19.291 5 19V16H3.875L3.87287 16C2.97911 15.9975 2.12268 15.6413 1.4907 15.0093C0.858716 14.3773 0.502546 13.5209 0.500003 12.6271L0.5 12.625V3.625L0.500003 3.62287C0.502546 2.72911 0.858716 1.87268 1.4907 1.2407C2.12268 0.608716 2.97911 0.252546 3.87287 0.250003ZM10.6239 15.9128C10.6237 15.913 10.6236 15.9131 10.6234 15.9132L10.6239 15.9128ZM18.1238 1.75H3.87615C3.3791 1.75167 2.90285 1.94987 2.55136 2.30136C2.19987 2.65285 2.00167 3.1291 2 3.62615V12.6238C2.00167 13.1209 2.19987 13.5971 2.55136 13.9486C2.90287 14.3001 3.37913 14.4983 3.87621 14.5H5.75C6.16421 14.5 6.5 14.8358 6.5 15.25V17.3982L9.66234 14.7616C9.66251 14.7614 9.66267 14.7613 9.66284 14.7611C9.86511 14.5924 10.1202 14.5 10.3836 14.5C10.3836 14.5 10.3837 14.5 10.3837 14.5H18.1238C18.6209 14.4983 19.0971 14.3001 19.4486 13.9486C19.8001 13.5971 19.9983 13.1209 20 12.6238V3.62621C19.9983 3.12913 19.8001 2.65287 19.4486 2.30136C19.0971 1.94987 18.6209 1.75167 18.1238 1.75Z" fill="black" fill-opacity="0.8"/>
</svg>
