<svg width="24" height="24" viewBox="0 0 24 24" fill="none" xmlns="http://www.w3.org/2000/svg">
<path fill-rule="evenodd" clip-rule="evenodd" d="M2.25001 3.75001C5.28951 3.76392 7.40817 4.14603 8.83318 4.82687C10.2153 5.4872 10.9554 6.43071 11.273 7.68418C11.3573 8.01695 11.6567 8.25001 12 8.25001C12.3433 8.25001 12.6427 8.01695 12.727 7.68418C13.0446 6.43071 13.7847 5.4872 15.1668 4.82687C16.5918 4.14603 18.7105 3.76391 21.75 3.75001V17.25C16.3365 17.25 13.6778 18.2204 11.9999 19.8791C10.3279 18.228 7.66566 17.2517 2.26404 17.25C2.25764 17.2334 2.25001 17.2043 2.25001 17.1595V3.75001ZM1.67685 2.36289C1.85951 2.28763 2.05527 2.24927 2.25283 2.25001L2.25337 2.25001C5.37941 2.26403 7.75971 2.65158 9.47984 3.47341C10.5986 4.00795 11.4307 4.72361 12 5.61131C12.5693 4.72361 13.4014 4.00795 14.5202 3.47341C16.2403 2.65158 18.6206 2.26403 21.7466 2.25001L21.7472 2.25001C21.9447 2.24927 22.1405 2.28763 22.3232 2.36289C22.5058 2.43815 22.6718 2.54882 22.8115 2.68852C22.9512 2.82822 23.0619 2.99418 23.1371 3.17685C23.2122 3.35896 23.2505 3.55408 23.25 3.75103V17.25C23.25 17.6478 23.092 18.0294 22.8107 18.3107C22.5294 18.592 22.1478 18.75 21.75 18.75C15.8388 18.75 13.8067 19.9421 12.5857 21.4685C12.4433 21.6465 12.2277 21.7501 11.9998 21.75C11.7719 21.75 11.5564 21.6463 11.4141 21.4682C10.2014 19.9508 8.16077 18.75 2.25001 18.75C1.79761 18.75 1.40172 18.5585 1.13028 18.2397C0.868299 17.932 0.750005 17.5414 0.750005 17.1595V3.75118C0.74948 3.55418 0.787839 3.35901 0.862889 3.17685C0.938149 2.99418 1.04882 2.82821 1.18852 2.68852C1.32822 2.54882 1.49418 2.43815 1.67685 2.36289Z" fill="black" fill-opacity="0.8"/>
<path fill-rule="evenodd" clip-rule="evenodd" d="M12 6.75C12.4142 6.75 12.75 7.08579 12.75 7.5V21C12.75 21.4142 12.4142 21.75 12 21.75C11.5858 21.75 11.25 21.4142 11.25 21V7.5C11.25 7.08579 11.5858 6.75 12 6.75Z" fill="black" fill-opacity="0.8"/>
</svg>
