<svg width="24" height="24" viewBox="0 0 24 24" fill="none" xmlns="http://www.w3.org/2000/svg">
<path fill-rule="evenodd" clip-rule="evenodd" d="M19.6137 1.70257C19.5005 1.70257 19.3885 1.72497 19.284 1.76849C19.1796 1.812 19.0848 1.87577 19.0051 1.95611L19.0016 1.95967L9.37457 11.553L8.7593 15.2939L12.4424 14.6309L22.0408 4.9989L22.0444 4.99536C22.1247 4.91568 22.1885 4.82088 22.232 4.71643C22.2755 4.61198 22.2979 4.49994 22.2979 4.38679C22.2979 4.27364 22.2755 4.16161 22.232 4.05716C22.1885 3.9527 22.1247 3.8579 22.0444 3.77822L22.0419 3.77574L20.2222 1.95611C20.1426 1.87577 20.0478 1.812 19.9433 1.76849C19.8389 1.72497 19.7268 1.70257 19.6137 1.70257ZM18.6248 0.186042C18.9381 0.055494 19.2742 -0.0117188 19.6137 -0.0117188C19.9531 -0.0117188 20.2892 0.0554937 20.6026 0.186042C20.9152 0.3163 21.1991 0.507039 21.4378 0.747298C21.4383 0.747834 21.4389 0.74837 21.4394 0.748906L23.2516 2.56108C23.2521 2.56161 23.2526 2.56213 23.2532 2.56266C23.4934 2.80138 23.6842 3.08522 23.8144 3.39788C23.945 3.71123 24.0122 4.04733 24.0122 4.38679C24.0122 4.72625 23.945 5.06235 23.8144 5.3757C23.6842 5.68818 23.4936 5.97186 23.2536 6.21049C23.2529 6.21117 23.2522 6.21184 23.2516 6.21251L13.4665 16.0318C13.3427 16.156 13.1838 16.2393 13.0112 16.2704L7.86837 17.1961C7.59433 17.2454 7.3134 17.1586 7.11502 16.9632C6.91665 16.7677 6.82556 16.4882 6.87075 16.2134L7.72789 11.002C7.75707 10.8246 7.84129 10.6608 7.96864 10.5339L17.7899 0.746939C18.0286 0.506847 18.3123 0.316234 18.6248 0.186042Z" fill="#0085FF"/>
<path fill-rule="evenodd" clip-rule="evenodd" d="M2.57143 4.2846C2.3441 4.2846 2.12608 4.3749 1.96534 4.53565C1.80459 4.69639 1.71429 4.91441 1.71429 5.14174V21.4275C1.71429 21.6548 1.80459 21.8728 1.96534 22.0335C2.12608 22.1943 2.3441 22.2846 2.57143 22.2846H18.8571C19.0845 22.2846 19.3025 22.1943 19.4632 22.0335C19.624 21.8728 19.7143 21.6548 19.7143 21.4275V16.2846C19.7143 15.8112 20.098 15.4275 20.5714 15.4275C21.0448 15.4275 21.4286 15.8112 21.4286 16.2846V21.4275C21.4286 22.1094 21.1577 22.7635 20.6754 23.2457C20.1932 23.728 19.5391 23.9989 18.8571 23.9989H2.57143C1.88944 23.9989 1.23539 23.728 0.753154 23.2457C0.270918 22.7635 0 22.1094 0 21.4275V5.14174C0 4.45976 0.270918 3.8057 0.753154 3.32347C1.23539 2.84123 1.88944 2.57031 2.57143 2.57031H7.71429C8.18767 2.57031 8.57143 2.95407 8.57143 3.42746C8.57143 3.90084 8.18767 4.2846 7.71429 4.2846H2.57143Z" fill="#0085FF"/>
</svg>
