<svg width="16" height="18" viewBox="0 0 16 18" fill="none" xmlns="http://www.w3.org/2000/svg">
<path d="M3.2 4.09091C3.2 3.63904 3.55817 3.27273 4 3.27273H12C12.4418 3.27273 12.8 3.63904 12.8 4.09091C12.8 4.54278 12.4418 4.90909 12 4.90909H4C3.55817 4.90909 3.2 4.54278 3.2 4.09091Z" fill="#67CE16"/>
<path d="M3.2 7.36364C3.2 6.91177 3.55817 6.54545 4 6.54545H12C12.4418 6.54545 12.8 6.91177 12.8 7.36364C12.8 7.81551 12.4418 8.18182 12 8.18182H4C3.55817 8.18182 3.2 7.81551 3.2 7.36364Z" fill="#67CE16"/>
<path d="M4 9.81818C3.55817 9.81818 3.2 10.1845 3.2 10.6364C3.2 11.0882 3.55817 11.4545 4 11.4545H12C12.4418 11.4545 12.8 11.0882 12.8 10.6364C12.8 10.1845 12.4418 9.81818 12 9.81818H4Z" fill="#67CE16"/>
<path d="M3.2 13.9091C3.2 13.4572 3.55817 13.0909 4 13.0909H7.2C7.64183 13.0909 8 13.4572 8 13.9091C8 14.361 7.64183 14.7273 7.2 14.7273H4C3.55817 14.7273 3.2 14.361 3.2 13.9091Z" fill="#67CE16"/>
<path fill-rule="evenodd" clip-rule="evenodd" d="M0 2.45455C0 1.09894 1.07452 0 2.4 0H13.6C14.9255 0 16 1.09894 16 2.45455V15.5455C16 16.9011 14.9255 18 13.6 18H2.4C1.07452 18 0 16.9011 0 15.5455V2.45455ZM2.4 1.63636H13.6C14.0418 1.63636 14.4 2.00268 14.4 2.45455V15.5455C14.4 15.9973 14.0418 16.3636 13.6 16.3636H2.4C1.95817 16.3636 1.6 15.9973 1.6 15.5455V2.45455C1.6 2.00268 1.95817 1.63636 2.4 1.63636Z" fill="#67CE16"/>
</svg>
