<svg width="9" height="15" viewBox="0 0 9 15" fill="none" xmlns="http://www.w3.org/2000/svg">
<path d="M5.78571 0.5C7.56091 0.5 9 1.82547 9 3.46053V10.5658C9 12.8549 6.98528 14.7105 4.5 14.7105C2.01472 14.7105 0 12.8549 0 10.5658V5.82895H1.28571V10.5658C1.28571 12.2008 2.7248 13.5263 4.5 13.5263C6.2752 13.5263 7.71429 12.2008 7.71429 10.5658V3.46053C7.71429 2.47949 6.85083 1.68421 5.78571 1.68421C4.72059 1.68421 3.85714 2.47949 3.85714 3.46053V10.5658C3.85714 10.8928 4.14496 11.1579 4.5 11.1579C4.85504 11.1579 5.14286 10.8928 5.14286 10.5658V4.05263H6.42857V10.5658C6.42857 11.5468 5.56512 12.3421 4.5 12.3421C3.43488 12.3421 2.57143 11.5468 2.57143 10.5658V3.46053C2.57143 1.82547 4.01051 0.5 5.78571 0.5Z" fill="#0085FF"/>
</svg>
