<svg width="45" height="31" viewBox="0 0 45 31" fill="none" xmlns="http://www.w3.org/2000/svg">
<path d="M0.179688 2.20414C0.179688 0.986826 1.16466 0 2.37969 0H41.9797C43.1947 0 44.1797 0.986826 44.1797 2.20414C44.1797 3.42145 43.1947 4.40828 41.9797 4.40828H2.37969C1.16466 4.40828 0.179688 3.42145 0.179688 2.20414Z" fill="white"/>
<path d="M0.179688 15.5C0.179688 14.2827 1.16466 13.2959 2.37969 13.2959H41.9797C43.1947 13.2959 44.1797 14.2827 44.1797 15.5C44.1797 16.7173 43.1947 17.7041 41.9797 17.7041H2.37969C1.16466 17.7041 0.179688 16.7173 0.179688 15.5Z" fill="white"/>
<path d="M2.37969 26.5917C1.16466 26.5917 0.179688 27.5786 0.179688 28.7959C0.179688 30.0132 1.16466 31 2.37969 31H41.9797C43.1947 31 44.1797 30.0132 44.1797 28.7959C44.1797 27.5786 43.1947 26.5917 41.9797 26.5917H2.37969Z" fill="white"/>
</svg>
