<svg width="32" height="32" viewBox="0 0 32 32" fill="none" xmlns="http://www.w3.org/2000/svg">
<g clip-path="url(#clip0_3_3246)">
<path d="M16.0014 28.3524C22.8237 28.3524 28.3543 22.8218 28.3543 15.9994C28.3543 9.17708 22.8237 3.64648 16.0014 3.64648C9.17904 3.64648 3.64844 9.17708 3.64844 15.9994C3.64844 22.8218 9.17904 28.3524 16.0014 28.3524Z" fill="#0085FF"/>
<path d="M15.9991 31.7638C24.7057 31.7638 31.7638 24.7057 31.7638 15.9991C31.7638 7.29247 24.7057 0.234375 15.9991 0.234375C7.29247 0.234375 0.234375 7.29247 0.234375 15.9991C0.234375 24.7057 7.29247 31.7638 15.9991 31.7638Z" stroke="#3E4357" stroke-miterlimit="10"/>
<path d="M29.8834 16.761C30.3045 16.761 30.6458 16.4197 30.6458 15.9987C30.6458 15.5776 30.3045 15.2363 29.8834 15.2363C29.4624 15.2363 29.1211 15.5776 29.1211 15.9987C29.1211 16.4197 29.4624 16.761 29.8834 16.761Z" fill="#3E4357"/>
<path d="M2.11782 16.761C2.53886 16.761 2.88017 16.4197 2.88017 15.9987C2.88017 15.5776 2.53886 15.2363 2.11782 15.2363C1.69679 15.2363 1.35547 15.5776 1.35547 15.9987C1.35547 16.4197 1.69679 16.761 2.11782 16.761Z" fill="#3E4357"/>
<path d="M19.4531 11.5586H12.5496C10.8461 11.5586 9.45312 12.9515 9.45312 14.6551V17.7892C9.45312 19.4927 10.8461 20.8857 12.5496 20.8857H17.7025L18.6861 22.1562C18.8884 22.4198 19.3025 22.3727 19.439 22.0715L20.0037 20.8339C21.4437 20.5704 22.5496 19.3045 22.5496 17.7892V14.6551C22.5496 12.9515 21.1567 11.5586 19.4531 11.5586ZM12.5496 17.1821C12.079 17.1821 11.6931 16.8009 11.6931 16.3257C11.6931 15.8504 12.0743 15.4692 12.5496 15.4692C13.0249 15.4692 13.4061 15.8504 13.4061 16.3257C13.4061 16.8009 13.0249 17.1821 12.5496 17.1821ZM16.0178 17.1821C15.5472 17.1821 15.1614 16.8009 15.1614 16.3257C15.1614 15.8504 15.5425 15.4692 16.0178 15.4692C16.4931 15.4692 16.8743 15.8504 16.8743 16.3257C16.8743 16.8009 16.4931 17.1821 16.0178 17.1821ZM19.4861 17.1821C19.0155 17.1821 18.6296 16.8009 18.6296 16.3257C18.6296 15.8504 19.0108 15.4692 19.4861 15.4692C19.9614 15.4692 20.3425 15.8504 20.3425 16.3257C20.3425 16.8009 19.9614 17.1821 19.4861 17.1821Z" fill="white"/>
</g>
<defs>
<clipPath id="clip0_3_3246">
<rect width="32" height="32" fill="white"/>
</clipPath>
</defs>
</svg>
