<svg width="22" height="20" viewBox="0 0 22 20" fill="none" xmlns="http://www.w3.org/2000/svg">
<path d="M18.9889 19.6652H3.01393C2.64361 19.6652 2.2733 19.5715 1.94986 19.398C1.42018 19.1121 1.0358 18.6387 0.862363 18.0621C0.688926 17.4855 0.749863 16.8762 1.0358 16.3512L9.01861 1.51523C9.41236 0.783984 10.1717 0.333984 11.0014 0.333984C11.8311 0.333984 12.5905 0.788672 12.9842 1.51523L20.9717 16.3512C21.1499 16.6793 21.2389 17.0449 21.2389 17.4199C21.2389 18.0199 21.0046 18.5871 20.578 19.009C20.1561 19.4355 19.5936 19.6652 18.9889 19.6652ZM3.01393 18.1652H18.9936C19.1952 18.1652 19.3827 18.0855 19.5233 17.9449C19.6639 17.8043 19.7436 17.6168 19.7436 17.4152C19.7436 17.2934 19.7108 17.1668 19.6546 17.059L11.6624 2.22773C11.4702 1.87148 11.1374 1.83398 11.0014 1.83398C10.8655 1.83398 10.5327 1.87148 10.3405 2.22773L2.35299 17.0637C2.25924 17.2418 2.2358 17.4434 2.29674 17.6355C2.35299 17.8277 2.48424 17.9871 2.65768 18.0809C2.76549 18.1371 2.88736 18.1652 3.01393 18.1652Z" fill="black" fill-opacity="0.8"/>
<path d="M11.0016 13.6281C10.6032 13.6281 10.2703 13.3141 10.2516 12.9156L9.98441 7.19687C9.98441 7.19219 9.98441 7.1875 9.98441 7.18281V7.15937C9.97972 6.59687 10.4297 6.1375 10.9922 6.13281C11.011 6.13281 11.0297 6.13281 11.0485 6.13281C11.611 6.15625 12.0469 6.63437 12.0188 7.19687L11.7516 12.9156C11.7328 13.3141 11.4 13.6281 11.0016 13.6281Z" fill="black" fill-opacity="0.8"/>
<path d="M11 16.6172C10.4844 16.6172 10.0625 16.1953 10.0625 15.6797C10.0625 15.1641 10.4844 14.7422 11 14.7422C11.5156 14.7422 11.9375 15.1641 11.9375 15.6797C11.9375 16.1953 11.5156 16.6172 11 16.6172Z" fill="black" fill-opacity="0.8"/>
</svg>
