<svg width="22" height="16" viewBox="0 0 22 16" fill="none" xmlns="http://www.w3.org/2000/svg">
<path fill-rule="evenodd" clip-rule="evenodd" d="M2.84761 6.55171C2.40193 7.21865 2.25 7.72355 2.25 8C2.25 8.27645 2.40193 8.78135 2.84761 9.44829C3.27642 10.09 3.91648 10.7892 4.7289 11.4367C6.35916 12.7361 8.58338 13.75 11 13.75C13.4166 13.75 15.6408 12.7361 17.2711 11.4367C18.0835 10.7892 18.7236 10.09 19.1524 9.44829C19.5981 8.78135 19.75 8.27645 19.75 8C19.75 7.72355 19.5981 7.21865 19.1524 6.55171C18.7236 5.91002 18.0835 5.21077 17.2711 4.56325C15.6408 3.26389 13.4166 2.25 11 2.25C8.58338 2.25 6.35916 3.26389 4.7289 4.56325C3.91648 5.21077 3.27642 5.91002 2.84761 6.55171ZM3.48235 2.99925C5.38084 1.48611 8.03162 0.25 11 0.25C13.9684 0.25 16.6192 1.48611 18.5177 2.99925C19.4696 3.75798 20.2574 4.6056 20.8153 5.44048C21.3563 6.2501 21.75 7.15145 21.75 8C21.75 8.84855 21.3563 9.7499 20.8153 10.5595C20.2574 11.3944 19.4696 12.242 18.5177 13.0008C16.6192 14.5139 13.9684 15.75 11 15.75C8.03162 15.75 5.38084 14.5139 3.48235 13.0008C2.5304 12.242 1.74264 11.3944 1.18473 10.5595C0.6437 9.7499 0.25 8.84855 0.25 8C0.25 7.15145 0.6437 6.2501 1.18473 5.44048C1.74264 4.6056 2.5304 3.75798 3.48235 2.99925Z" fill="black" fill-opacity="0.8"/>
<path fill-rule="evenodd" clip-rule="evenodd" d="M11 5.25C10.2707 5.25 9.57118 5.53973 9.05546 6.05546C8.53973 6.57118 8.25 7.27065 8.25 8C8.25 8.72935 8.53973 9.42882 9.05546 9.94454C9.57118 10.4603 10.2707 10.75 11 10.75C11.7293 10.75 12.4288 10.4603 12.9445 9.94454C13.4603 9.42882 13.75 8.72935 13.75 8C13.75 7.27065 13.4603 6.57118 12.9445 6.05546C12.4288 5.53973 11.7293 5.25 11 5.25ZM7.64124 4.64124C8.53204 3.75044 9.74022 3.25 11 3.25C12.2598 3.25 13.468 3.75044 14.3588 4.64124C15.2496 5.53204 15.75 6.74022 15.75 8C15.75 9.25978 15.2496 10.468 14.3588 11.3588C13.468 12.2496 12.2598 12.75 11 12.75C9.74022 12.75 8.53204 12.2496 7.64124 11.3588C6.75044 10.468 6.25 9.25978 6.25 8C6.25 6.74022 6.75044 5.53204 7.64124 4.64124Z" fill="black" fill-opacity="0.8"/>
</svg>
