<svg width="20" height="18" viewBox="0 0 20 18" fill="none" xmlns="http://www.w3.org/2000/svg">
<path fill-rule="evenodd" clip-rule="evenodd" d="M17.2727 1.8H2.72727C2.2252 1.8 1.81818 2.20294 1.81818 2.7V15.3C1.81818 15.7971 2.2252 16.2 2.72727 16.2H17.2727C17.7748 16.2 18.1818 15.7971 18.1818 15.3V2.7C18.1818 2.20294 17.7748 1.8 17.2727 1.8ZM2.72727 0C1.22104 0 0 1.20883 0 2.7V15.3C0 16.7912 1.22104 18 2.72727 18H17.2727C18.779 18 20 16.7912 20 15.3V2.7C20 1.20883 18.779 0 17.2727 0H2.72727ZM4.54545 4.5H6.36364V6.3H4.54545V4.5ZM9.09091 4.5C8.58883 4.5 8.18182 4.90294 8.18182 5.4C8.18182 5.89706 8.58883 6.3 9.09091 6.3H14.5455C15.0475 6.3 15.4545 5.89706 15.4545 5.4C15.4545 4.90294 15.0475 4.5 14.5455 4.5H9.09091ZM6.36364 8.1H4.54545V9.9H6.36364V8.1ZM8.18182 9C8.18182 8.50294 8.58883 8.1 9.09091 8.1H14.5455C15.0475 8.1 15.4545 8.50294 15.4545 9C15.4545 9.49706 15.0475 9.9 14.5455 9.9H9.09091C8.58883 9.9 8.18182 9.49706 8.18182 9ZM6.36364 11.7H4.54545V13.5H6.36364V11.7ZM8.18182 12.6C8.18182 12.1029 8.58883 11.7 9.09091 11.7H14.5455C15.0475 11.7 15.4545 12.1029 15.4545 12.6C15.4545 13.0971 15.0475 13.5 14.5455 13.5H9.09091C8.58883 13.5 8.18182 13.0971 8.18182 12.6Z" fill="#0085FF"/>
</svg>
