<svg width="24" height="24" viewBox="0 0 24 24" fill="none" xmlns="http://www.w3.org/2000/svg">
<path d="M12 15C13.6569 15 15 13.6569 15 12C15 10.3431 13.6569 9 12 9C10.3431 9 9 10.3431 9 12C9 13.6569 10.3431 15 12 15Z" stroke="black" stroke-opacity="0.8" stroke-width="1.5"/>
<path d="M13.872 2.152C13.4828 2 12.9885 2 12 2C11.0115 2 10.5172 2 10.128 2.152C9.87041 2.25251 9.6364 2.3999 9.4393 2.58572C9.2422 2.77155 9.08588 2.99218 8.97927 3.235C8.88169 3.458 8.84245 3.719 8.8276 4.098C8.82099 4.37199 8.74063 4.6399 8.59406 4.87657C8.44749 5.11324 8.23952 5.31091 7.98968 5.451C7.73608 5.58504 7.4505 5.6561 7.15976 5.6575C6.86903 5.6589 6.58269 5.59059 6.32765 5.459C5.97127 5.281 5.71353 5.183 5.45791 5.151C4.90035 5.08187 4.33649 5.22431 3.89027 5.547C3.55723 5.79 3.30904 6.193 2.81478 7C2.32051 7.807 2.07232 8.21 2.01823 8.605C1.98178 8.86545 2.00011 9.13012 2.07218 9.38389C2.14425 9.63767 2.26864 9.87556 2.43824 10.084C2.59522 10.276 2.81478 10.437 3.15524 10.639C3.65693 10.936 3.97937 11.442 3.97937 12C3.97937 12.558 3.65693 13.064 3.15524 13.36C2.81478 13.563 2.59416 13.724 2.43824 13.916C2.26864 14.1244 2.14425 14.3623 2.07218 14.6161C2.00011 14.8699 1.98178 15.1345 2.01823 15.395C2.07338 15.789 2.32051 16.193 2.81371 17C3.30904 17.807 3.55617 18.21 3.89027 18.453C4.11135 18.6129 4.36368 18.7302 4.63284 18.7981C4.902 18.8661 5.18273 18.8834 5.45897 18.849C5.71353 18.817 5.97127 18.719 6.32765 18.541C6.58269 18.4094 6.86903 18.3411 7.15976 18.3425C7.4505 18.3439 7.73608 18.415 7.98968 18.549C8.50198 18.829 8.80638 19.344 8.8276 19.902C8.84245 20.282 8.88063 20.542 8.97927 20.765C9.08588 21.0078 9.2422 21.2284 9.4393 21.4143C9.6364 21.6001 9.87041 21.7475 10.128 21.848C10.5172 22 11.0115 22 12 22C12.9885 22 13.4828 22 13.872 21.848C14.1296 21.7475 14.3636 21.6001 14.5607 21.4143C14.7578 21.2284 14.9141 21.0078 15.0207 20.765C15.1183 20.542 15.1576 20.282 15.1724 19.902C15.1936 19.344 15.498 18.828 16.0103 18.549C16.2639 18.415 16.5495 18.3439 16.8402 18.3425C17.131 18.3411 17.4173 18.4094 17.6724 18.541C18.0287 18.719 18.2865 18.817 18.541 18.849C18.8173 18.8834 19.098 18.8661 19.3672 18.7981C19.6363 18.7302 19.8886 18.6129 20.1097 18.453C20.4438 18.211 20.691 17.807 21.1852 17C21.6795 16.193 21.9277 15.79 21.9818 15.395C22.0182 15.1345 21.9999 14.8699 21.9278 14.6161C21.8558 14.3623 21.7314 14.1244 21.5618 13.916C21.4048 13.724 21.1852 13.563 20.8448 13.361C20.5963 13.2186 20.3903 13.019 20.2461 12.7809C20.102 12.5428 20.0244 12.2741 20.0206 12C20.0206 11.442 20.3431 10.936 20.8448 10.64C21.1852 10.437 21.4058 10.276 21.5618 10.084C21.7314 9.87556 21.8558 9.63767 21.9278 9.38389C21.9999 9.13012 22.0182 8.86545 21.9818 8.605C21.9266 8.211 21.6795 7.807 21.1863 7C20.691 6.193 20.4438 5.79 20.1097 5.547C19.8886 5.38709 19.6363 5.26981 19.3672 5.20187C19.098 5.13392 18.8173 5.11664 18.541 5.151C18.2865 5.183 18.0287 5.281 17.6713 5.459C17.4164 5.59042 17.1302 5.65862 16.8397 5.65722C16.5492 5.65582 16.2638 5.58486 16.0103 5.451C15.7605 5.31091 15.5525 5.11324 15.4059 4.87657C15.2594 4.6399 15.179 4.37199 15.1724 4.098C15.1576 3.718 15.1194 3.458 15.0207 3.235C14.9141 2.99218 14.7578 2.77155 14.5607 2.58572C14.3636 2.3999 14.1296 2.25251 13.872 2.152Z" stroke="black" stroke-opacity="0.8" stroke-width="1.5"/>
</svg>
