<svg width="19" height="20" viewBox="0 0 19 20" fill="none" xmlns="http://www.w3.org/2000/svg">
<path d="M2.06342 1.82445L3.58598 0.992541C4.08853 0.718238 4.67371 0.636118 5.23235 0.761499C5.79099 0.88688 6.28494 1.2112 6.62207 1.67396L8.29465 3.96884C8.58491 4.36695 8.7432 4.84597 8.74729 5.33863C8.75139 5.8313 8.60108 6.31288 8.31749 6.71576L6.92263 8.69688C6.73656 8.96648 7.09367 9.78964 8.25249 11.0831C9.41232 12.3772 10.1919 12.8215 10.4758 12.6672L12.6024 11.4944C13.0334 11.2567 13.5281 11.1597 14.017 11.2172C14.5059 11.2747 14.9645 11.4838 15.3286 11.8151L17.4204 13.7195C17.8429 14.104 18.1114 14.6289 18.1761 15.1965C18.2408 15.7641 18.0973 16.3359 17.7722 16.8056L16.7694 18.2547C16.4456 18.7225 16.0036 19.0961 15.4884 19.3373C14.9732 19.5784 14.4032 19.6787 13.8366 19.6277C11.0443 19.3761 8.11351 17.5035 5.01869 14.0503C1.91761 10.5923 0.361004 7.45273 0.389078 4.61448C0.394848 4.04255 0.553043 3.48251 0.847355 2.99209C1.14167 2.50166 1.56145 2.0986 2.06342 1.82445Z" fill="white"/>
</svg>
