<svg width="18" height="18" viewBox="0 0 18 18" fill="none" xmlns="http://www.w3.org/2000/svg">
<path d="M9.83464 9.83268H8.16797V4.83268H9.83464V9.83268ZM9.83464 13.166H8.16797V11.4993H9.83464V13.166ZM9.0013 0.666016C7.90695 0.666016 6.82332 0.881564 5.81227 1.30035C4.80123 1.71914 3.88257 2.33297 3.10875 3.10679C1.54594 4.6696 0.667969 6.78921 0.667969 8.99935C0.667969 11.2095 1.54594 13.3291 3.10875 14.8919C3.88257 15.6657 4.80123 16.2796 5.81227 16.6983C6.82332 17.1171 7.90695 17.3327 9.0013 17.3327C11.2114 17.3327 13.3311 16.4547 14.8939 14.8919C16.4567 13.3291 17.3346 11.2095 17.3346 8.99935C17.3346 7.905 17.1191 6.82137 16.7003 5.81032C16.2815 4.79927 15.6677 3.88061 14.8939 3.10679C14.12 2.33297 13.2014 1.71914 12.1903 1.30035C11.1793 0.881564 10.0957 0.666016 9.0013 0.666016V0.666016Z" fill="#EF665B"/>
</svg>
