<svg width="14" height="14" viewBox="0 0 14 14" fill="none" xmlns="http://www.w3.org/2000/svg">
<path fill-rule="evenodd" clip-rule="evenodd" d="M7.00156 0.599609C7.35502 0.599609 7.64156 0.886147 7.64156 1.23961V6.35961H12.7616C13.115 6.35961 13.4016 6.64615 13.4016 6.99961C13.4016 7.35307 13.115 7.63961 12.7616 7.63961H7.64156V12.7596C7.64156 13.1131 7.35502 13.3996 7.00156 13.3996C6.6481 13.3996 6.36156 13.1131 6.36156 12.7596V7.63961H1.24156C0.8881 7.63961 0.601562 7.35307 0.601562 6.99961C0.601562 6.64615 0.8881 6.35961 1.24156 6.35961H6.36156V1.23961C6.36156 0.886147 6.6481 0.599609 7.00156 0.599609Z" fill="#0085FF"/>
</svg>
