<svg width="26" height="28" viewBox="0 0 26 28" fill="none" xmlns="http://www.w3.org/2000/svg">
<path fill-rule="evenodd" clip-rule="evenodd" d="M9.29922 3.03469C9.74648 1.53257 11.0582 0 13.0012 0C14.9447 0 16.2552 1.53263 16.7058 3.03191C16.7081 3.03471 16.7111 3.03824 16.715 3.0423C16.7242 3.05193 16.7347 3.06079 16.7446 3.06766C16.7521 3.07289 16.7567 3.07514 16.7572 3.07541C17.8882 3.54109 19.2195 4.28494 20.2607 5.64685C21.3103 7.01971 21.9931 8.92551 21.9931 11.5844C21.9931 14.2354 22.2728 15.6891 22.6846 16.6871C23.0458 17.5621 23.5207 18.1373 24.1964 18.9558C24.2951 19.0753 24.3981 19.2 24.5056 19.3317L24.5059 19.332C25.7512 20.8575 24.5753 23 22.6568 23H18.0012C18.0012 24.3261 17.4744 25.5979 16.5367 26.5355C15.5991 27.4732 14.3273 28 13.0012 28C11.6751 28 10.4034 27.4732 9.46568 26.5355C8.528 25.5979 8.00121 24.3261 8.00121 23H3.35184C1.43695 23 0.241116 20.8684 1.49683 19.3317C1.60444 19.2 1.70749 19.0751 1.80626 18.9555C2.48189 18.1372 2.95683 17.5619 3.31828 16.6868C3.73053 15.6888 4.01089 14.235 4.01246 11.5844M10.0012 23C10.0012 23.7956 10.3173 24.5587 10.8799 25.1213C11.4425 25.6839 12.2056 26 13.0012 26C13.7969 26 14.5599 25.6839 15.1225 25.1213C15.6851 24.5587 16.0012 23.7956 16.0012 23H10.0012ZM3.35184 21C3.14631 21 3.05378 20.9054 3.01661 20.8326C2.9952 20.7907 2.98879 20.7499 2.99188 20.7159C2.9946 20.6858 3.00574 20.6459 3.04554 20.5972L3.0456 20.5971C3.14218 20.4789 3.23949 20.3616 3.3369 20.2442C4.00722 19.4363 4.68283 18.6221 5.1668 17.4504C5.72312 16.1035 6.01087 14.3496 6.01246 11.585V11.5844C6.01246 9.28093 6.59554 7.82412 7.33265 6.8603C8.078 5.8857 9.05461 5.31817 10.0099 4.92476C10.01 4.92473 10.01 4.9247 10.0101 4.92467C10.5193 4.71523 11.0273 4.24864 11.2107 3.62348L11.2115 3.62099C11.496 2.64202 12.2313 2 13.0012 2C13.7712 2 14.5067 2.64155 14.7949 3.62253L14.7956 3.62507C14.978 4.23981 15.4807 4.71295 15.9955 4.9247C16.9488 5.31715 17.9258 5.88579 18.6719 6.86158C19.4096 7.82654 19.9931 9.28387 19.9931 11.5844C19.9931 14.349 20.28 16.1031 20.8359 17.4501C21.3196 18.6221 21.9953 19.4364 22.6657 20.2444C22.763 20.3617 22.8603 20.4789 22.9568 20.5971C23.0194 20.674 23.0245 20.7537 22.9839 20.8338C22.946 20.9086 22.8549 21 22.6568 21H3.35184ZM9.29922 3.03469C9.29749 3.03673 9.29533 3.03915 9.29269 3.04189C9.28418 3.05071 9.27411 3.05923 9.26408 3.06615C9.25476 3.07257 9.24916 3.07507 9.24916 3.07508L9.24856 3.07533C8.11704 3.54129 6.7853 4.28375 5.74399 5.64533C4.69446 7.01765 4.01256 8.92317 4.01246 11.5838" fill="black" fill-opacity="0.8"/>
</svg>
