<svg width="28" height="28" viewBox="0 0 28 28" fill="none" xmlns="http://www.w3.org/2000/svg">
<path d="M27.6304 13.9877C27.6304 6.42425 21.5243 0.287109 14.0007 0.287109C6.47717 0.287109 0.371094 6.42425 0.371094 13.9877C0.371094 18.1534 2.25198 21.9077 5.19598 24.4277C5.22324 24.4551 5.2505 24.4551 5.2505 24.4825C5.49583 24.6745 5.74117 24.8665 6.01376 25.0585C6.15006 25.1408 6.25909 25.2488 6.39539 25.3585C8.6478 26.8952 11.3067 27.7163 14.028 27.7157C16.7493 27.7163 19.4082 26.8952 21.6606 25.3585C21.7969 25.2763 21.9059 25.1683 22.0422 25.0843C22.2875 24.894 22.5601 24.702 22.8055 24.51C22.8327 24.4825 22.86 24.4825 22.86 24.4551C25.7495 21.906 27.6304 18.1534 27.6304 13.9877ZM14.0007 25.9894C11.4384 25.9894 9.09406 25.1665 7.15865 23.7968C7.18591 23.5774 7.24043 23.3597 7.29495 23.1403C7.45737 22.5456 7.6956 21.9745 8.00369 21.4414C8.30354 20.9203 8.65791 20.454 9.09406 20.0425C9.50295 19.6311 9.99361 19.2488 10.4843 18.9471C11.0022 18.6454 11.5474 18.426 12.1471 18.2614C12.7515 18.0975 13.3748 18.015 14.0007 18.0163C15.8589 18.003 17.6487 18.7202 18.9892 20.0151C19.6161 20.646 20.1068 21.3865 20.4612 22.2351C20.652 22.7288 20.7883 23.25 20.8701 23.7968C18.8583 25.22 16.4599 25.9855 14.0007 25.9894ZM9.83006 13.3037C9.58987 12.7503 9.46909 12.152 9.47569 11.5483C9.47569 10.9465 9.58472 10.3431 9.83006 9.79454C10.0754 9.24597 10.4025 8.75397 10.8114 8.34254C11.2203 7.93111 11.7109 7.60368 12.2561 7.35682C12.8013 7.10997 13.401 7.00025 14.0007 7.00025C14.6277 7.00025 15.2001 7.10997 15.7453 7.35682C16.2905 7.60368 16.7812 7.93282 17.1901 8.34254C17.5989 8.75397 17.9261 9.24768 18.1714 9.79454C18.4167 10.3431 18.5258 10.9465 18.5258 11.5483C18.5258 12.1791 18.4167 12.7551 18.1714 13.302C17.9346 13.8424 17.6021 14.335 17.1901 14.7557C16.7718 15.1697 16.2823 15.5037 15.7453 15.7414C14.6189 16.2072 13.3553 16.2072 12.2289 15.7414C11.6919 15.5037 11.2023 15.1697 10.7841 14.7557C10.3715 14.3411 10.0469 13.8483 9.83006 13.3037ZM22.4784 22.3997C22.4784 22.3448 22.4511 22.3174 22.4511 22.2625C22.183 21.4044 21.7878 20.5918 21.2789 19.8523C20.7696 19.1072 20.1436 18.4501 19.4253 17.9065C18.8768 17.4913 18.2822 17.1415 17.6535 16.8643C17.9395 16.6744 18.2045 16.4543 18.444 16.2077C18.8504 15.804 19.2073 15.3528 19.5071 14.8637C20.1108 13.8656 20.4226 12.7165 20.4067 11.5483C20.4151 10.6834 20.2481 9.82594 19.916 9.02825C19.5881 8.25963 19.116 7.56178 18.5258 6.97282C17.9363 6.39002 17.2427 5.92469 16.4813 5.60139C15.6872 5.26778 14.8339 5.10038 13.9735 5.10939C13.1129 5.10092 12.2596 5.26891 11.4656 5.60311C10.6977 5.92572 10.0023 6.40091 9.42117 7.00025C8.84198 7.59269 8.37951 8.29011 8.05821 9.05568C7.72607 9.85337 7.55911 10.7108 7.56754 11.5757C7.56754 12.1791 7.64932 12.7551 7.81287 13.302C7.97643 13.878 8.1945 14.3991 8.49435 14.8911C8.76695 15.3848 9.14858 15.8237 9.55746 16.2351C9.8028 16.482 10.0754 16.6997 10.3752 16.8917C9.74459 17.1764 9.1498 17.5354 8.60339 17.9614C7.89465 18.51 7.26769 19.1665 6.74976 19.8797C6.23568 20.6162 5.84012 21.4296 5.57761 22.29C5.55035 22.3448 5.55035 22.3997 5.55035 22.4271C3.39687 20.2345 2.06117 17.2757 2.06117 13.9877C2.06117 7.38425 7.43124 1.98597 14.0007 1.98597C20.5702 1.98597 25.9403 7.38425 25.9403 13.9877C25.9367 17.1419 24.692 20.1664 22.4784 22.3997Z" fill="black" fill-opacity="0.8"/>
</svg>
