<svg width="20" height="20" viewBox="0 0 20 20" fill="none" xmlns="http://www.w3.org/2000/svg">
<path fill-rule="evenodd" clip-rule="evenodd" d="M2.28303 0.549805C2.2687 0.549805 2.25437 0.550215 2.24007 0.551036C1.73317 0.580119 1.28489 0.838048 0.980773 1.22327C0.682453 1.60116 0.536635 2.07992 0.551862 2.55596V17.4438C0.536867 17.9198 0.682762 18.3983 0.980992 18.7761C1.28496 19.1611 1.73289 19.4191 2.23947 19.4485C2.25397 19.4494 2.2685 19.4498 2.28303 19.4498H11.1178C11.1322 19.4498 11.1465 19.4494 11.1608 19.4486C11.6676 19.4195 12.1159 19.1617 12.4202 18.7766C12.7187 18.3988 12.8647 17.92 12.8497 17.4438V14.9284C12.8497 14.5142 12.5139 14.1784 12.0997 14.1784C11.6855 14.1784 11.3497 14.5142 11.3497 14.9284V17.4569C11.3497 17.4617 11.3498 17.4665 11.3499 17.4713C11.35 17.4763 11.3501 17.4813 11.3503 17.4863C11.3561 17.6338 11.3093 17.763 11.2432 17.8467C11.1856 17.9196 11.1269 17.9441 11.087 17.9498H2.31425C2.27434 17.944 2.21582 17.9195 2.15833 17.8467C2.09226 17.763 2.0455 17.6338 2.05129 17.4864C2.05167 17.4766 2.05186 17.4668 2.05186 17.4569V2.54266C2.05186 2.53271 2.05166 2.52275 2.05127 2.51281C2.0454 2.36546 2.09211 2.23633 2.15811 2.15272C2.2156 2.0799 2.27408 2.05551 2.31383 2.0498H11.087C11.127 2.05553 11.1856 2.07997 11.2432 2.15288C11.3093 2.23656 11.3561 2.36579 11.3503 2.51328C11.3499 2.52307 11.3497 2.53286 11.3497 2.54266V5.07123C11.3497 5.48545 11.6855 5.82123 12.0997 5.82123C12.5139 5.82123 12.8497 5.48545 12.8497 5.07123V2.55578C12.8647 2.07964 12.7187 1.60086 12.4202 1.22301C12.1159 0.837909 11.6676 0.580115 11.1608 0.551036C11.1465 0.550215 11.1322 0.549805 11.1178 0.549805H2.28303ZM15.3105 6.58979C15.6034 6.29689 16.0783 6.29689 16.3712 6.58979L19.291 9.50959C19.5838 9.80248 19.5838 10.2774 19.291 10.5703L16.3712 13.4901C16.0783 13.7829 15.6034 13.7829 15.3105 13.4901C15.0176 13.1972 15.0176 12.7223 15.3105 12.4294L16.95 10.7899H6.49707C6.08286 10.7899 5.74707 10.4541 5.74707 10.0399C5.74707 9.62571 6.08286 9.28993 6.49707 9.28993H16.95L15.3105 7.65045C15.0176 7.35755 15.0176 6.88268 15.3105 6.58979Z" fill="#0060CC"/>
</svg>
