<svg width="24" height="19" viewBox="0 0 24 19" fill="none" xmlns="http://www.w3.org/2000/svg">
<path d="M10.5 9.5C10.5 10.2266 10.3398 10.9062 10.0195 11.5391C9.69922 12.1719 9.24219 12.7031 8.64844 13.1328C9 13.3125 9.33203 13.5195 9.64453 13.7539C9.95703 13.9883 10.2422 14.25 10.5 14.5391V18.5C10.5 17.8828 10.3828 17.3008 10.1484 16.7539C9.91406 16.207 9.59375 15.7305 9.1875 15.3242C8.78125 14.918 8.30078 14.5938 7.74609 14.3516C7.19141 14.1094 6.60938 13.9922 6 14C5.375 14 4.79297 14.1172 4.25391 14.3516C3.71484 14.5859 3.23828 14.9062 2.82422 15.3125C2.41016 15.7188 2.08594 16.1992 1.85156 16.7539C1.61719 17.3086 1.5 17.8906 1.5 18.5H0C0 17.9297 0.078125 17.3789 0.234375 16.8477C0.390625 16.3164 0.613281 15.8125 0.902344 15.3359C1.19141 14.8594 1.54688 14.4375 1.96875 14.0703C2.39062 13.7031 2.85156 13.3867 3.35156 13.1211C2.76562 12.6992 2.3125 12.1719 1.99219 11.5391C1.67188 10.9062 1.50781 10.2266 1.5 9.5C1.5 8.88281 1.61719 8.30078 1.85156 7.75391C2.08594 7.20703 2.40625 6.73047 2.8125 6.32422C3.21875 5.91797 3.69531 5.59375 4.24219 5.35156C4.78906 5.10938 5.375 4.99219 6 5C6.5625 5 7.09766 5.09766 7.60547 5.29297C8.11328 5.48828 8.57812 5.77734 9 6.16016C9.25 5.93359 9.52734 5.73438 9.83203 5.5625C9.56641 5.28906 9.36328 4.97266 9.22266 4.61328C9.08203 4.25391 9.00781 3.88281 9 3.5C9 3.08594 9.07812 2.69922 9.23438 2.33984C9.39062 1.98047 9.60547 1.66016 9.87891 1.37891C10.1523 1.09766 10.4688 0.882812 10.8281 0.734375C11.1875 0.585938 11.5781 0.507812 12 0.5C12.4141 0.5 12.8008 0.578125 13.1602 0.734375C13.5195 0.890625 13.8398 1.10547 14.1211 1.37891C14.4023 1.65234 14.6172 1.96875 14.7656 2.32812C14.9141 2.6875 14.9922 3.07812 15 3.5C15 3.88281 14.9297 4.25391 14.7891 4.61328C14.6484 4.97266 14.4414 5.28906 14.168 5.5625C14.8164 5.92188 15.3438 6.40625 15.75 7.01562C16.1562 6.40625 16.6836 5.92188 17.332 5.5625C17.0664 5.28906 16.8633 4.97266 16.7227 4.61328C16.582 4.25391 16.5078 3.88281 16.5 3.5C16.5 3.08594 16.5781 2.69922 16.7344 2.33984C16.8906 1.98047 17.1055 1.66016 17.3789 1.37891C17.6523 1.09766 17.9688 0.882812 18.3281 0.734375C18.6875 0.585938 19.0781 0.507812 19.5 0.5C19.9141 0.5 20.3008 0.578125 20.6602 0.734375C21.0195 0.890625 21.3398 1.10547 21.6211 1.37891C21.9023 1.65234 22.1172 1.96875 22.2656 2.32812C22.4141 2.6875 22.4922 3.07812 22.5 3.5C22.5 3.88281 22.4297 4.25391 22.2891 4.61328C22.1484 4.97266 21.9414 5.28906 21.668 5.5625C22.0273 5.75781 22.3516 5.99609 22.6406 6.27734C22.9297 6.55859 23.1719 6.86719 23.3672 7.20312C23.5625 7.53906 23.7188 7.90625 23.8359 8.30469C23.9531 8.70312 24.0078 9.10156 24 9.5H22.5C22.5 9.08594 22.4219 8.69922 22.2656 8.33984C22.1094 7.98047 21.8945 7.66016 21.6211 7.37891C21.3477 7.09766 21.0312 6.88281 20.6719 6.73438C20.3125 6.58594 19.9219 6.50781 19.5 6.5C19.0859 6.5 18.6992 6.57812 18.3398 6.73438C17.9805 6.89062 17.6602 7.10547 17.3789 7.37891C17.0977 7.65234 16.8828 7.96875 16.7344 8.32812C16.5859 8.6875 16.5078 9.07812 16.5 9.5H15C15 9.08594 14.9219 8.69922 14.7656 8.33984C14.6094 7.98047 14.3945 7.66016 14.1211 7.37891C13.8477 7.09766 13.5312 6.88281 13.1719 6.73438C12.8125 6.58594 12.4219 6.50781 12 6.5C11.6172 6.5 11.2461 6.57031 10.8867 6.71094C10.5273 6.85156 10.2109 7.05859 9.9375 7.33203C10.125 7.66016 10.2656 8.00781 10.3594 8.375C10.4531 8.74219 10.5 9.11719 10.5 9.5ZM19.5 2C19.2891 2 19.0938 2.03906 18.9141 2.11719C18.7344 2.19531 18.5781 2.30078 18.4453 2.43359C18.3125 2.56641 18.2031 2.72656 18.1172 2.91406C18.0312 3.10156 17.9922 3.29688 18 3.5C18 3.71094 18.0391 3.90625 18.1172 4.08594C18.1953 4.26562 18.3008 4.42188 18.4336 4.55469C18.5664 4.6875 18.7266 4.79688 18.9141 4.88281C19.1016 4.96875 19.2969 5.00781 19.5 5C19.7109 5 19.9062 4.96094 20.0859 4.88281C20.2656 4.80469 20.4219 4.69922 20.5547 4.56641C20.6875 4.43359 20.7969 4.27344 20.8828 4.08594C20.9688 3.89844 21.0078 3.70312 21 3.5C21 3.28906 20.9609 3.09375 20.8828 2.91406C20.8047 2.73438 20.6992 2.57812 20.5664 2.44531C20.4336 2.3125 20.2734 2.20312 20.0859 2.11719C19.8984 2.03125 19.7031 1.99219 19.5 2ZM12 2C11.7891 2 11.5938 2.03906 11.4141 2.11719C11.2344 2.19531 11.0781 2.30078 10.9453 2.43359C10.8125 2.56641 10.7031 2.72656 10.6172 2.91406C10.5312 3.10156 10.4922 3.29688 10.5 3.5C10.5 3.71094 10.5391 3.90625 10.6172 4.08594C10.6953 4.26562 10.8008 4.42188 10.9336 4.55469C11.0664 4.6875 11.2266 4.79688 11.4141 4.88281C11.6016 4.96875 11.7969 5.00781 12 5C12.2109 5 12.4062 4.96094 12.5859 4.88281C12.7656 4.80469 12.9219 4.69922 13.0547 4.56641C13.1875 4.43359 13.2969 4.27344 13.3828 4.08594C13.4688 3.89844 13.5078 3.70312 13.5 3.5C13.5 3.28906 13.4609 3.09375 13.3828 2.91406C13.3047 2.73438 13.1992 2.57812 13.0664 2.44531C12.9336 2.3125 12.7734 2.20312 12.5859 2.11719C12.3984 2.03125 12.2031 1.99219 12 2ZM6 12.5C6.41406 12.5 6.80078 12.4219 7.16016 12.2656C7.51953 12.1094 7.83984 11.8945 8.12109 11.6211C8.40234 11.3477 8.61719 11.0312 8.76562 10.6719C8.91406 10.3125 8.99219 9.92188 9 9.5C9 9.08594 8.92188 8.69922 8.76562 8.33984C8.60938 7.98047 8.39453 7.66016 8.12109 7.37891C7.84766 7.09766 7.53125 6.88281 7.17188 6.73438C6.8125 6.58594 6.42188 6.50781 6 6.5C5.58594 6.5 5.19922 6.57812 4.83984 6.73438C4.48047 6.89062 4.16016 7.10547 3.87891 7.37891C3.59766 7.65234 3.38281 7.96875 3.23438 8.32812C3.08594 8.6875 3.00781 9.07812 3 9.5C3 9.91406 3.07812 10.3008 3.23438 10.6602C3.39062 11.0195 3.60547 11.3398 3.87891 11.6211C4.15234 11.9023 4.46875 12.1172 4.82812 12.2656C5.1875 12.4141 5.57812 12.4922 6 12.5Z" fill="black" fill-opacity="0.8"/>
</svg>
