<svg width="33" height="35" viewBox="0 0 33 35" fill="none" xmlns="http://www.w3.org/2000/svg">
<g clip-path="url(#clip0_1152_43006)">
<path d="M13.5416 17.8053H10.1903C10.1561 17.8053 10.139 17.8218 10.1219 17.8548C10.0364 19.3234 9.74575 20.8911 9.33538 22.1782C9.33538 22.1947 9.33538 22.2112 9.35248 22.2277C9.36958 22.2442 9.38668 22.2442 9.40378 22.2442H10.5494C10.5836 22.2442 10.6007 22.2277 10.6007 22.2112C10.9255 21.2211 11.182 19.934 11.2846 18.8449H12.3789V22.1947C12.3789 22.2277 12.4131 22.2607 12.4473 22.2607H13.5416C13.5758 22.2607 13.61 22.2277 13.61 22.1947V17.8548C13.61 17.8218 13.5758 17.8053 13.5416 17.8053ZM27.7162 17.8053H26.6219C26.5877 17.8053 26.5535 17.8383 26.5535 17.8713V21.2211C26.3141 21.2871 26.0748 21.3201 25.8012 21.3201C25.0831 21.3201 24.9121 21.1056 24.9121 20.1815V17.8713C24.9121 17.8383 24.8779 17.8053 24.8437 17.8053H23.7665C23.7323 17.8053 23.6981 17.8383 23.6981 17.8713V20.297C23.6981 21.8152 24.2281 22.3927 25.5789 22.3927C26.3483 22.3927 27.2204 22.1947 27.7333 22.0132C27.7504 21.9967 27.7675 21.9802 27.7675 21.9637V17.8713C27.7846 17.8218 27.7504 17.8053 27.7162 17.8053ZM4.53072 17.8053H3.41932C3.38512 17.8053 3.36803 17.8218 3.36803 17.8548C3.19704 18.5148 2.83797 19.6369 2.35922 20.8086L1.24782 17.8548C1.23072 17.8383 1.21362 17.8218 1.19652 17.8218H0.0680254C0.050927 17.8218 0.0338285 17.8383 0.0167301 17.8548C-0.000368361 17.8713 -0.000368361 17.8878 0.0167301 17.9043L1.69238 22.3267C1.52139 22.6732 1.36751 22.9538 1.21362 23.2178C1.09393 23.4158 0.991341 23.6138 0.888751 23.8119C0.871652 23.8284 0.871652 23.8449 0.888751 23.8614C0.905849 23.8779 0.922948 23.8944 0.940046 23.8944H2.15404C2.17113 23.8944 2.20533 23.8779 2.20533 23.8614C2.41051 23.4818 2.66699 22.9538 2.90637 22.4092C3.6245 20.7921 4.18875 19.2739 4.61621 17.8878C4.61621 17.8713 4.61621 17.8548 4.59911 17.8383C4.56492 17.8053 4.54782 17.8053 4.53072 17.8053ZM8.51466 21.2211C8.51466 21.2046 8.49756 21.1881 8.48046 21.1881H8.42916C8.15559 21.2871 7.65974 21.3531 7.31777 21.3531C6.54834 21.3531 6.18927 21.1551 6.18927 20.033C6.18927 19.1254 6.30896 18.7128 7.31777 18.7128C7.60844 18.7128 7.86492 18.7458 8.20689 18.8449C8.24108 18.8449 8.25818 18.8449 8.27528 18.8119C8.39497 18.5808 8.54885 18.3003 8.71984 17.9538V17.9043C8.71984 17.8878 8.70274 17.8713 8.68564 17.8713C8.24108 17.7392 7.71103 17.6567 7.23227 17.6567C5.64212 17.6567 4.92398 18.3828 4.92398 20.0165C4.92398 21.6666 5.64212 22.4092 7.23227 22.4092C7.62554 22.4092 8.42916 22.3267 8.80533 22.1782C8.83953 22.1617 8.85663 22.1287 8.83953 22.0957L8.51466 21.2211ZM18.9276 17.8053H17.8162C17.782 17.8053 17.7649 17.8218 17.7649 17.8548C17.5939 18.5313 17.2349 19.6369 16.7561 20.8086L15.6447 17.8548C15.6276 17.8383 15.6105 17.8218 15.5934 17.8218H14.4649C14.4478 17.8218 14.4307 17.8383 14.4136 17.8548C14.3965 17.8713 14.3965 17.8878 14.4136 17.9043L16.0893 22.3267C15.9183 22.6732 15.7644 22.9538 15.6105 23.2178C15.4908 23.4158 15.3882 23.6138 15.2856 23.8284C15.2685 23.8449 15.2685 23.8614 15.2856 23.8779C15.3027 23.8944 15.3198 23.9109 15.3369 23.9109H16.5509C16.568 23.9109 16.6022 23.8944 16.6022 23.8779C16.8074 23.4983 17.0639 22.9703 17.3033 22.4257C18.0043 20.8086 18.5856 19.2904 19.0131 17.9043C19.0131 17.8878 19.0131 17.8713 18.996 17.8548C18.9618 17.8053 18.9447 17.8053 18.9276 17.8053ZM23.0312 17.8053H19.7996C19.7654 17.8053 19.7312 17.8383 19.7312 17.8713V22.2112C19.7312 22.2442 19.7654 22.2772 19.7996 22.2772H20.8939C20.9281 22.2772 20.9623 22.2442 20.9623 22.2112V18.8614H22.6551C22.6722 18.8614 22.7064 18.8449 22.7064 18.8284C22.8432 18.5313 22.9628 18.2178 23.0996 17.9043V17.8548C23.0654 17.8053 23.0483 17.8053 23.0312 17.8053Z" fill="#EF4058"/>
<path d="M5.83057 11.1385C4.25751 11.1385 3.64197 11.7985 3.64197 13.4652C3.64197 15.1649 4.25751 15.8249 5.83057 15.8249C7.42072 15.8249 8.03627 15.1649 8.03627 13.4652C8.03627 11.782 7.42072 11.1385 5.83057 11.1385ZM5.83057 14.8513C5.11243 14.8513 4.89016 14.6698 4.89016 13.4817C4.89016 12.2276 5.12953 12.1121 5.83057 12.1121C6.5487 12.1121 6.78808 12.2276 6.78808 13.4817C6.78808 14.6698 6.5658 14.8513 5.83057 14.8513ZM12.4135 14.6698C12.4135 14.6533 12.3964 14.6368 12.3793 14.6368H12.328C12.0544 14.7358 11.5585 14.8018 11.2166 14.8018C10.4471 14.8018 10.0881 14.6038 10.0881 13.4817C10.0881 12.5741 10.2078 12.1616 11.2166 12.1616C11.5073 12.1616 11.7637 12.1946 12.1057 12.2936C12.1399 12.2936 12.157 12.2936 12.1741 12.2606C12.2938 12.0296 12.4477 11.749 12.6187 11.4025V11.353C12.6187 11.3365 12.6016 11.32 12.5845 11.32C12.1399 11.188 11.6098 11.1055 11.1311 11.1055C9.54093 11.1055 8.8228 11.8315 8.8228 13.4652C8.8228 15.1154 9.54093 15.8579 11.1311 15.8579C11.5244 15.8579 12.328 15.7754 12.7041 15.6269C12.7383 15.6104 12.7554 15.5774 12.7383 15.5444L12.4135 14.6698ZM3.3 11.254H0.0683938C0.0341969 11.254 0 11.287 0 11.32V15.6599C0 15.6929 0.0341969 15.7259 0.0683938 15.7259H1.16269C1.19689 15.7259 1.23109 15.6929 1.23109 15.6599V12.2936H2.90674C2.92383 12.2936 2.95803 12.2771 2.95803 12.2606C3.09482 11.9636 3.21451 11.65 3.3513 11.3365V11.287C3.3342 11.2705 3.3171 11.254 3.3 11.254Z" fill="#1466AC"/>
<path d="M32.8302 21.7987V21.7327C32.8302 21.6997 32.8302 21.6502 32.8473 21.6172C32.8986 21.0066 32.9328 20.264 32.967 19.4059V19.3399C32.9841 18.7624 33.0012 18.1353 33.0012 17.4917C33.0012 16.8482 32.9841 16.2211 32.967 15.6436V15.5776C32.9328 14.736 32.8986 13.9769 32.8473 13.3663C32.8473 13.3333 32.8473 13.2838 32.8302 13.2508V13.1848C32.8302 13.1188 32.8131 13.0693 32.8131 13.0033V12.9373C32.7618 12.2937 32.7276 11.8977 32.7105 11.8647C32.7105 11.7987 32.6934 11.7327 32.6934 11.6832V11.6337C32.6763 11.5182 32.6592 11.4191 32.625 11.3036C32.625 11.2871 32.625 11.2706 32.6079 11.2541C32.3173 9.91749 31.5478 8.44884 30.5903 7.34323C30.2141 6.91419 29.8209 6.53465 29.4105 6.23762C29.3763 6.20462 28.8976 5.87459 28.1452 5.36304C27.2732 4.78548 26.025 3.9769 24.6059 3.18482C22.0753 1.74917 19.8354 0.742574 19.5276 0.627063C19.5105 0.627063 19.5105 0.610561 19.5105 0.610561C18.8437 0.330033 18.0401 0.132013 17.168 0.049505C16.997 0.0330033 16.8261 0.0165017 16.6551 0.0165017C16.4841 0 16.3302 0 16.1763 0H15.9369C14.7742 0.0330033 13.697 0.231023 12.8421 0.610561C12.7224 0.660066 10.4483 1.66667 7.86648 3.13531L7.76389 3.18482C5.11363 4.68647 3.04472 6.17162 2.95922 6.23762C2.30948 6.69967 1.72813 7.29373 1.19808 8.0528C1.07839 8.21782 1.07839 8.64686 1.59135 8.64686H2.90793C3.47218 8.64686 3.60896 8.31683 4.24161 7.87129C4.94264 7.37624 6.32762 6.38614 8.85819 4.93399C10.6877 3.89439 12.3976 3.06931 13.2354 2.68977C13.2525 2.68977 13.2696 2.67327 13.2867 2.67327C13.2867 2.67327 13.3038 2.67327 13.3038 2.65677C13.3038 2.65677 13.3209 2.65677 13.3209 2.64026C13.338 2.64026 13.3551 2.62376 13.3551 2.62376C13.3722 2.62376 13.3893 2.60726 13.4064 2.60726C13.6116 2.50825 13.7483 2.45875 13.7483 2.45875C14.3297 2.21122 15.1504 2.0462 16.0224 2.0297H16.3644C16.6209 2.0297 16.8774 2.0462 17.1167 2.07921C17.6468 2.14521 18.1255 2.24422 18.5188 2.40924C18.553 2.42574 18.6043 2.44224 18.6385 2.45875C18.6385 2.45875 18.6556 2.47525 18.7069 2.49175C19.1002 2.65677 21.2204 3.63036 23.5287 4.93399C24.8965 5.70957 26.1105 6.48515 26.9483 7.0462C27.6836 7.54125 28.1281 7.85479 28.1452 7.87129C28.4701 8.10231 28.795 8.43234 29.1027 8.79538C29.8722 9.75247 30.5048 11.0561 30.6074 12.0627C30.6074 12.0792 30.6587 12.4752 30.71 13.1518C30.71 13.2013 30.71 13.2343 30.7271 13.2838V13.3828C30.7271 13.4488 30.7442 13.4983 30.7442 13.5644V13.6304C30.7442 13.6634 30.7442 13.7129 30.7613 13.7459C30.7613 13.8284 30.7784 13.9109 30.7784 13.9934C30.7784 14.0429 30.7784 14.0924 30.7955 14.1419V14.1749C30.7955 14.2409 30.7955 14.2904 30.8126 14.3564V14.4884C30.8639 15.3465 30.8981 16.3696 30.8981 17.4422C30.8981 18.5149 30.8639 19.538 30.8126 20.396V20.5281C30.8126 20.5941 30.8126 20.6436 30.7955 20.7096V20.7426C30.7955 20.7921 30.7955 20.8416 30.7784 20.8911C30.7784 20.9736 30.7613 21.0561 30.7613 21.1386C30.7613 21.1881 30.7613 21.2211 30.7442 21.2541V21.3201C30.7442 21.3861 30.7271 21.4356 30.7271 21.5016V21.6007C30.7271 21.6502 30.7271 21.6997 30.71 21.7327C30.6587 22.4092 30.6074 22.8218 30.6074 22.8218C30.5048 23.8284 29.8722 25.132 29.1027 26.0891C28.795 26.4686 28.4701 26.7822 28.1452 27.0132C28.1281 27.0132 27.6836 27.3432 26.9483 27.8383C26.1105 28.3993 24.8794 29.1749 23.5287 29.9505C21.2204 31.2706 19.0831 32.2277 18.7069 32.3927L18.6385 32.4257C18.6043 32.4422 18.553 32.4587 18.5188 32.4752C18.1255 32.6238 17.6468 32.7393 17.1167 32.8053C16.8774 32.8383 16.6209 32.8548 16.3644 32.8548H16.0224C15.1504 32.8383 14.3297 32.6898 13.7483 32.4257C13.7483 32.4257 13.6287 32.3762 13.4064 32.2772C13.3893 32.2607 13.3551 32.2607 13.338 32.2442C13.3209 32.2277 13.3038 32.2277 13.2867 32.2112C13.2696 32.2112 13.2696 32.1947 13.2525 32.1947C13.2354 32.1947 13.2183 32.1782 13.2012 32.1782C13.1841 32.1617 13.167 32.1617 13.1328 32.1452H13.1157C12.2437 31.8152 10.6022 31.0231 8.85819 30.033C6.31052 28.5974 4.94264 27.5908 4.24161 27.0957C3.60896 26.6502 3.47218 26.3201 2.90793 26.3201H1.59135C1.07839 26.3201 1.07839 26.7492 1.19808 26.9142C1.72813 27.6733 2.30948 28.2673 2.95922 28.7294C3.04472 28.7954 5.13073 30.2805 7.76389 31.7822C7.90067 31.8647 8.03746 31.9472 8.19135 32.0132C10.6364 33.3663 12.7395 34.2904 12.8592 34.3564C13.697 34.7195 14.7913 34.934 15.954 34.967H16.1934C16.3473 34.967 16.5012 34.967 16.6551 34.9505C16.8261 34.9505 16.997 34.934 17.168 34.9175C18.0401 34.835 18.8608 34.637 19.5105 34.3564C19.5105 34.3564 19.5276 34.3564 19.5276 34.3399C19.8183 34.2079 22.0753 33.2013 24.5888 31.7822C26.0079 30.9736 27.2561 30.1815 28.1281 29.604C28.8805 29.0924 29.3592 28.7624 29.3934 28.7294C29.8038 28.4323 30.197 28.0528 30.5732 27.6238C31.5307 26.5182 32.3002 25.0495 32.5908 23.7129C32.5908 23.6964 32.5908 23.6799 32.6079 23.6634C32.625 23.5479 32.6592 23.4323 32.6763 23.3333V23.2838C32.6934 23.2178 32.6934 23.1518 32.6934 23.1023C32.6934 23.0693 32.7447 22.6733 32.796 22.0297V21.9637C32.8302 21.9142 32.8302 21.8647 32.8302 21.7987Z" fill="url(#paint0_linear_1152_43006)"/>
</g>
<defs>
<linearGradient id="paint0_linear_1152_43006" x1="17.0665" y1="0" x2="17.0665" y2="34.9972" gradientUnits="userSpaceOnUse">
<stop offset="0.398" stop-color="#1466AC"/>
<stop offset="0.659" stop-color="#EF4058"/>
</linearGradient>
<clipPath id="clip0_1152_43006">
<rect width="33" height="35" fill="white"/>
</clipPath>
</defs>
</svg>
