<svg width="17" height="17" viewBox="0 0 17 17" fill="none" xmlns="http://www.w3.org/2000/svg">
<path d="M2.82508 3.75497C1.58084 5.23426 1.0363 7.06094 1.1417 8.8471L1.23831 9.67793C1.52814 11.3251 2.38594 12.8826 3.78534 14.0319C6.91497 16.6025 11.5757 16.177 14.1755 13.0852C15.3377 11.7015 15.894 10.0137 15.8735 8.34338L15.8179 7.50965C15.5924 5.73508 14.7171 4.03867 13.2181 2.80833C10.0885 0.234767 5.42773 0.660318 2.82508 3.75497Z" fill="white"/>
<path d="M2.35268 3.34189C-0.18264 6.34969 -0.0743175 10.6805 2.42294 13.5609L1.62663 15.8913C1.49196 16.2879 1.92232 16.644 2.2912 16.4413L4.46642 15.2486C7.77756 17.1621 12.1075 16.4905 14.6458 13.4827C17.4738 10.1304 17.0142 5.13094 13.6269 2.33446C10.2368 -0.462013 5.18076 -0.0104091 2.35268 3.34189ZM13.2259 2.80923C14.7219 4.04245 15.5943 5.73887 15.8168 7.51344L15.8724 8.34717C15.8871 10.0175 15.3308 11.7024 14.1656 13.0861C11.56 16.175 6.89928 16.5919 3.77258 14.0154C2.3761 12.8632 1.52124 11.3029 1.23433 9.65856L1.13772 8.82773C1.03525 7.04157 1.58564 5.21778 2.83281 3.73849C5.43839 0.646733 10.1021 0.229868 13.2259 2.80633V2.80923Z" fill="#455A64"/>
<path d="M7.42874 12.8329C7.12427 12.8329 6.8315 12.7084 6.62071 12.4855L4.11174 9.83666C3.69309 9.39664 3.71652 8.70476 4.16444 8.29079C4.60944 7.87682 5.31207 7.89998 5.72779 8.3429L7.35555 10.0625L11.2083 5.23667C11.586 4.7619 12.2827 4.68085 12.7629 5.05718C13.243 5.43062 13.325 6.11961 12.9444 6.59437L8.29531 12.4189C8.09624 12.6679 7.79469 12.8213 7.47265 12.8329C7.45801 12.8329 7.44045 12.8329 7.42581 12.8329H7.42874Z" fill="#0085FF"/>
</svg>
