<svg width="17" height="17" viewBox="0 0 17 17" fill="none" xmlns="http://www.w3.org/2000/svg">
<path d="M14.1742 3.74711C15.4183 5.22638 15.9658 7.05303 15.8604 8.83915L15.7638 9.66997C15.4739 11.3171 14.6162 12.8746 13.2169 14.0238C10.0874 16.5945 5.42694 16.1689 2.82737 13.0772C1.66517 11.6935 1.10896 10.0058 1.12945 8.33545L1.18507 7.50173C1.41049 5.72719 2.28579 4.0308 3.78465 2.80049C6.91409 0.22697 11.5746 0.652513 14.1771 3.74711H14.1742Z" fill="white"/>
<path d="M3.37384 2.33443C-0.0161477 5.13086 -0.472828 10.1303 2.35509 13.4825C4.89025 16.4903 9.22287 17.159 12.5338 15.2484L14.7089 16.441C15.0807 16.6437 15.511 16.2905 15.3734 15.891L14.5772 13.5607C17.0743 10.6832 17.1826 6.34959 14.6474 3.34184C11.8195 -0.0104002 6.76382 -0.461997 3.37384 2.33443ZM14.1673 3.73843C15.4144 5.21481 15.9648 7.04146 15.8623 8.82758L15.7657 9.6584C15.4788 11.3056 14.624 12.863 13.2276 14.0152C10.104 16.5916 5.44354 16.1747 2.83519 13.0859C1.67006 11.7051 1.11092 10.0203 1.12848 8.34703L1.18411 7.51332C1.40659 5.73877 2.27897 4.0395 3.7749 2.80919C6.89848 0.232768 11.5619 0.649626 14.1673 3.73843Z" fill="#455A64"/>
<path d="M10.9089 4.7358L8.49963 7.11826L6.09034 4.7358C5.73027 4.37973 5.14185 4.37973 4.78178 4.7358C4.4217 5.09187 4.4217 5.67373 4.78178 6.0298L7.19106 8.41226L4.78178 10.7947C4.4217 11.1508 4.4217 11.7327 4.78178 12.0887C5.14185 12.4448 5.73027 12.4448 6.09034 12.0887L8.49963 9.70626L10.9089 12.0887C11.269 12.4448 11.8574 12.4477 12.2175 12.0887C12.5776 11.7327 12.5776 11.1508 12.2175 10.7947L9.8082 8.41226L12.2175 6.0298C12.5776 5.67373 12.5776 5.09187 12.2175 4.7358C11.8574 4.37973 11.269 4.37973 10.9089 4.7358Z" fill="#0085FF"/>
</svg>
