<svg width="521" height="309" viewBox="0 0 521 309" fill="none" xmlns="http://www.w3.org/2000/svg">
<g clip-path="url(#clip0_1153_102970)">
<path d="M64.8613 307.817C64.8613 307.817 -5.73182 222.715 45.4122 111.506C69.9499 58.1522 135.296 45.6315 155.106 56.5499C181.225 70.9463 215.868 32.0553 290.745 5.35126C347.023 -14.7185 474.413 26.203 432.928 152.074C407.762 228.426 504.635 208.34 489.61 305.921L64.8613 307.817Z" fill="#EBF3FA"/>
<path d="M367.318 61.6914H230.125V305.051H367.318V61.6914Z" fill="#BDD8FF"/>
<path d="M322.025 61.6914H232.352V305.051H322.025V61.6914Z" fill="#AFCDFB"/>
<path opacity="0.2" d="M164.589 35.7969L66.9062 307.817H167.276L164.589 35.7969Z" fill="#599DAD"/>
<path d="M170.477 35.7969V306.281H230.12V59.045L170.477 35.7969Z" fill="#9FC1F4"/>
<path d="M170.473 35.7969H164.586V306.281H170.473V35.7969Z" fill="#77A4E5"/>
<path d="M361.753 286.281H235.68V307.051H361.753V286.281Z" fill="#599DAD"/>
<path d="M283.059 307.051H235.68V286.281H270.491L283.059 307.051Z" fill="#418A96"/>
<path d="M361.754 265.512H262.742V286.281H361.754V265.512Z" fill="#5FABB7"/>
<path d="M361.756 244.742H288.211V265.512H361.756V244.742Z" fill="#6BB7BF"/>
<path d="M361.753 223.973H313.695V244.742H361.753V223.973Z" fill="#79C8CC"/>
<path d="M230.125 59.3828V306.279H367.318V59.3828H230.125ZM361.758 300.441H235.685V65.219H361.758V300.441Z" fill="#77A4E5"/>
<path d="M114.783 270.115C114.783 270.115 108.979 263.33 114.424 259.018C114.424 259.018 118.403 256.605 121.648 256.8C121.648 256.8 117.051 264.524 118.538 265.292C120.024 266.06 123.04 256.316 123.04 256.316C123.04 256.316 132.096 255.435 135.009 256.838C135.009 256.838 127.268 263.185 128.899 263.563C130.529 263.941 138.892 257.711 138.892 257.711C138.892 257.711 147.319 259.148 146.87 264.299C146.42 269.45 143.517 271.042 142.241 270.903C140.964 270.766 133.498 267.912 133.336 268.959C133.173 270.006 137.668 273.432 140.814 273.591C140.814 273.591 134.873 280.157 130.924 278.261C126.975 276.367 126.638 273.364 124.176 272.236C121.714 271.11 119.613 271.112 120.628 272.262C121.644 273.412 126.1 274.528 127.507 277.023C128.915 279.518 130.177 281.2 126.092 280.585C122.007 279.97 115.365 276.974 115.074 273.545L114.783 270.115Z" fill="#418A96"/>
<path d="M142.727 264.438C142.727 264.438 119.836 263.554 114.782 270.114C114.782 270.114 113.664 273.469 110.223 276.523L109.688 277.986C109.688 277.986 113.654 273.797 115.073 273.543C115.073 273.543 112.854 265.417 142.727 264.438Z" fill="#418A96"/>
<path d="M110.224 276.525C110.224 276.525 105.31 280.165 104.969 286.671L105.86 286.751C105.86 286.751 107.429 280.025 110.266 277.395C113.101 274.765 110.224 276.527 110.224 276.527V276.525Z" fill="#418A96"/>
<path d="M94.4829 261.582C94.4829 261.582 103.717 256.401 99.4089 249.368C99.4089 249.368 95.9617 245.05 92.2677 243.94C92.2677 243.94 94.2381 254.427 92.2677 254.674C90.2973 254.921 90.9133 242.831 90.9133 242.831C90.9133 242.831 81.1857 238.142 77.3693 238.512C77.3693 238.512 83.4029 248.753 81.4325 248.506C79.4621 248.259 72.6902 237.895 72.6902 237.895C72.6902 237.895 62.7158 236.044 61.1146 241.966C59.5134 247.889 62.0998 250.85 63.5766 251.22C65.0554 251.59 74.5362 251.467 74.2894 252.7C74.0426 253.934 67.6398 255.908 64.0682 254.797C64.0682 254.797 68.009 264.543 73.1798 264.05C78.3505 263.556 79.9517 260.349 83.1541 260.102C86.3565 259.855 88.6961 260.719 87.0949 261.582C85.4937 262.446 80.0761 261.865 77.4897 264.066C74.9033 266.27 72.8106 267.627 77.6121 268.614C82.4137 269.601 91.0337 268.984 92.7573 265.283L94.4809 261.582H94.4829Z" fill="#6BB7BF"/>
<path d="M65.6719 243.816C65.6719 243.816 91.5298 252.206 94.4854 261.582C94.4854 261.582 94.363 265.778 96.9474 270.589V272.438C96.9474 272.438 94.2386 266.146 92.7618 265.283C92.7618 265.283 98.5486 257.141 65.6719 243.816Z" fill="#418A96"/>
<path d="M96.948 270.585C96.948 270.585 100.937 276.652 98.6615 284.039L97.6362 283.763C97.6362 283.763 98.6315 275.629 96.5447 271.536C94.4579 267.445 96.946 270.585 96.946 270.585H96.948Z" fill="#418A96"/>
<path d="M109.175 254.434C109.175 254.434 97.0017 247.602 102.682 238.334C102.682 238.334 107.227 232.643 112.097 231.179C112.097 231.179 109.5 245.003 112.097 245.328C114.693 245.654 113.882 229.716 113.882 229.716C113.882 229.716 126.706 223.536 131.736 224.024C131.736 224.024 123.783 237.522 126.379 237.198C128.975 236.873 137.904 223.212 137.904 223.212C137.904 223.212 151.051 220.774 153.162 228.58C155.273 236.386 151.864 240.288 149.915 240.777C147.967 241.265 135.469 241.103 135.794 242.729C136.119 244.355 144.558 246.957 149.265 245.493C149.265 245.493 144.07 258.342 137.254 257.69C130.436 257.039 128.327 252.811 124.108 252.485C119.888 252.16 116.804 253.3 118.913 254.438C121.024 255.575 128.165 254.811 131.574 257.714C134.983 260.617 137.742 262.407 131.411 263.707C125.081 265.008 113.718 264.196 111.447 259.317L109.173 254.438L109.175 254.434Z" fill="#6BB7BF"/>
<path d="M147.15 231.014C147.15 231.014 113.063 242.073 109.168 254.433C109.168 254.433 109.331 259.961 105.922 266.304V268.743C105.922 268.743 109.493 260.448 111.442 259.31C111.442 259.31 103.813 248.577 147.152 231.012L147.15 231.014Z" fill="#418A96"/>
<path d="M105.925 266.304C105.925 266.304 100.668 274.301 103.666 284.038L105.018 283.674C105.018 283.674 103.706 272.95 106.457 267.557C109.208 262.163 105.927 266.304 105.927 266.304H105.925Z" fill="#418A96"/>
<path d="M132.607 281.258C132.607 294.454 121.93 305.151 108.759 305.151C107.152 305.151 105.579 304.992 104.058 304.685C93.1408 302.5 84.9141 292.84 84.9141 281.258H132.607Z" fill="#77A4E5"/>
<path d="M123.208 281.258C123.208 292.842 114.983 302.498 104.066 304.685C93.1486 302.5 84.9219 292.84 84.9219 281.258H123.208Z" fill="#9FC1F4"/>
<path d="M132.937 306.367H84.5859C84.5859 305.551 84.917 304.815 85.4487 304.282C85.9825 303.75 86.7169 303.418 87.5295 303.418H129.995C131.621 303.418 132.937 304.737 132.937 306.365V306.367Z" fill="#77A4E5"/>
<path d="M102.741 303.418H105.973C97.2248 299.878 93.7435 291.292 93.7435 281.258H87.8203C87.8203 291.292 93.9924 299.878 102.741 303.418Z" fill="#BDD8FF"/>
<path d="M110.291 306.367H84.5859C84.5859 305.551 84.917 304.815 85.4487 304.282C85.9825 303.75 86.7169 303.418 87.5295 303.418H108.287C109.91 303.418 110.293 304.737 110.293 306.365L110.291 306.367Z" fill="#9FC1F4"/>
<path d="M132.785 281.994H84.498C84.2953 281.994 84.1328 281.829 84.1328 281.628C84.1328 281.425 84.2973 281.262 84.498 281.262H132.785C132.987 281.262 133.15 281.427 133.15 281.628C133.15 281.831 132.985 281.994 132.785 281.994Z" fill="#2B478B"/>
<path d="M344.776 244.742H313.695V223.973H321.757L344.776 244.742Z" fill="#6BB7BF"/>
<path d="M327.803 265.512H288.211V244.742H307.634L327.803 265.512Z" fill="#599DAD"/>
<path d="M295.653 286.279H262.742V265.512H279.984L295.653 286.279Z" fill="#479199"/>
<path d="M180.994 166.891H182.457C184.07 166.891 185.38 168.203 185.38 169.82V188.496C185.38 190.113 184.07 191.425 182.457 191.425H180.994C179.381 191.425 178.07 190.113 178.07 188.496V169.82C178.07 168.203 179.381 166.891 180.994 166.891Z" fill="#77A4E5"/>
<path d="M240.01 163.741C240.515 161.363 239.331 160.788 239.331 160.788C239.331 160.788 215.594 152.903 213.616 151.956C211.638 151.009 196.541 130.035 196.541 130.035C196.541 130.035 190.838 121.4 185.039 122.305C180.001 123.091 177.579 126.597 176.427 130.103C175.055 134.281 176.415 138.872 179.798 141.675C187.389 147.965 202.61 160.398 206.366 162.106C214.73 165.908 238.505 166.881 238.505 166.881C238.505 166.881 239.612 165.611 240.012 163.743L240.01 163.741Z" fill="#1E3D70"/>
<path d="M238.186 161.987C238.186 161.987 244.402 159.946 245.477 159.922C246.553 159.898 250.435 161.12 250.514 161.418C250.59 161.718 250.437 161.981 249.795 162.083C249.153 162.186 247.002 162.11 247.161 162.355C247.319 162.6 253.554 163.243 253.734 164.472C253.915 165.7 250.77 168.304 247.949 168.72C245.128 169.136 239.251 166.347 238.77 166.349C234.684 166.368 238.186 161.987 238.186 161.987Z" fill="#ED975D"/>
<path d="M173.539 119.928C173.539 119.928 179.52 127.037 187.137 124.064C187.137 124.064 188.777 120.093 188.799 117.166C188.801 116.806 188.807 116.456 188.811 116.125C188.851 112.83 188.963 110.98 188.963 110.98C188.963 110.98 188.961 110.98 188.955 110.98C188.608 110.835 177.311 106.189 177.321 106.573C177.516 115.487 173.539 119.928 173.539 119.928Z" fill="#FFB27D"/>
<path d="M144.596 306.489H136.903C135.289 306.489 133.498 304.851 133.05 301.849C132.601 298.846 129.286 297.209 128.57 294.75C127.851 292.294 131.527 288.834 131.527 288.834L132.141 288.032L132.781 287.195L138.875 288.651C138.875 288.651 139.026 290.124 139.12 292C139.186 293.355 139.22 294.921 139.144 296.294C138.965 299.571 140.047 303.098 142.914 303.737C145.784 304.374 144.596 306.487 144.596 306.487V306.489Z" fill="#2C3A64"/>
<path d="M198.149 306.562H177.759C177.564 306.522 177.416 306.48 177.325 306.434C175.963 305.73 176.39 300.354 176.553 298.692C176.585 298.384 176.607 298.203 176.607 298.203C176.607 298.203 183.776 292.286 184.763 296.818C184.795 296.959 184.83 297.097 184.868 297.234C186.112 301.474 191.676 303.4 194.89 303.937C197.346 304.349 197.982 305.824 198.147 306.562H198.149Z" fill="#2C3A64"/>
<path d="M194.042 188.417C194.042 188.417 192.952 202.029 191.674 218.392C189.935 240.621 187.842 267.922 187.635 273.095C187.278 282.077 185.841 296.443 185.841 296.443C185.841 296.443 182.438 299.857 175.624 298.418C175.624 298.418 169.552 277.91 167.819 256.209C167.793 255.854 167.765 255.496 167.739 255.138C166.125 233.048 163.617 186.531 163.617 186.531L194.042 188.417Z" fill="#C65447"/>
<path d="M194.042 188.417C194.042 188.417 192.952 202.029 191.674 218.392L167.819 256.209C167.793 255.854 167.765 255.496 167.739 255.138C166.125 233.048 163.617 186.531 163.617 186.531L194.042 188.417Z" fill="#B2443B"/>
<path d="M189.062 190.034C189.062 190.034 169.434 239.333 156.529 262.501C143.623 285.669 139.59 292.134 139.59 292.134C139.59 292.134 132.196 289.171 131.523 287.15C131.523 287.15 136.459 242.423 145.102 231.521C149.985 225.361 155.722 206.872 155.991 200.406C156.26 193.941 157.739 181.145 157.739 181.145L189.062 190.034Z" fill="#C65447"/>
<path d="M198.18 149.305C198.104 153.521 197.859 158.26 197.53 163.073C197.51 163.358 197.49 163.643 197.47 163.929C197.259 166.91 197.031 169.9 196.768 172.813C196.663 173.981 196.551 175.137 196.433 176.271L196.415 176.424C196.404 176.848 196.354 177.308 196.306 177.728C195.235 188.645 194.111 197.269 193.902 197.402C193.654 197.569 193.373 197.651 193.066 197.615C190.208 197.255 181.683 197.905 174.704 196.383C168.815 195.138 163.744 192.778 158.371 189.596C157.659 189.173 156.031 188.054 156.164 187.219C156.294 186.301 156.533 184.972 156.84 183.303C157.9 177.497 159.725 167.509 160.349 155.819C160.47 153.642 160.648 151.491 160.877 149.376C161.477 143.867 162.436 138.636 163.724 133.99C166.118 125.358 169.634 118.745 174.046 116.16C174.622 115.836 177.724 117.815 180.573 119.646C183.204 121.335 185.973 121.803 188.667 121.568L191.037 124.196C193.908 127.539 196.964 131.992 197.799 138.319C197.861 138.787 197.915 139.284 197.96 139.81C198.19 142.388 198.246 145.65 198.182 149.303L198.18 149.305Z" fill="#2A4E96"/>
<path d="M144.123 181.823C144.123 181.823 143.615 187.979 143.242 188.926C142.869 189.871 140.389 192.802 140.102 192.76C139.815 192.718 139.642 192.486 139.789 191.891C139.935 191.294 140.79 189.451 140.519 189.499C140.248 189.547 137.407 194.738 136.277 194.444C135.146 194.151 134.04 190.462 134.712 187.854C135.387 185.247 139.953 181.154 140.128 180.734C141.607 177.171 144.125 181.823 144.125 181.823H144.123Z" fill="#ED975D"/>
<path d="M142.015 183.387C144.188 184.086 144.535 183.928 144.535 183.928C144.535 183.928 155.11 164.64 156.181 162.873C157.253 161.108 178.632 141.243 178.632 141.243L173.138 120.715C173.138 120.715 148.821 152.264 146.195 156.791C141.857 164.272 139.312 181.646 139.312 181.646C139.312 181.646 140.308 182.836 142.015 183.385V183.387Z" fill="#2A4E96"/>
<path d="M177.984 111.377C179.154 114.125 188.521 119.519 188.521 119.519L189.622 115.217L177.984 111.375V111.377Z" fill="#ED975D"/>
<path d="M190.899 115.213C190.899 115.213 175.381 115.711 175.218 106.023C175.058 96.3353 172.945 89.8759 182.847 89.1481C192.749 88.4204 194.736 92.0833 195.574 95.3039C196.413 98.5246 194.93 114.833 190.899 115.213Z" fill="#FFB27D"/>
<path d="M175.229 106.36C175.229 106.36 173.543 105.916 173.541 101.593C173.539 97.2708 169.376 89.3298 172.536 88.5759C175.696 87.822 176.348 88.0733 176.348 88.0733C176.348 88.0733 175.646 83.5499 181.465 84.153C187.284 84.7561 195.661 88.4251 197.718 87.1686C199.774 85.9121 200.176 96.5672 194.808 96.3661C189.441 96.1651 181.816 91.8307 180.06 95.2283C178.305 98.6278 179.208 102.548 178.305 102.548C177.402 102.548 176.922 99.1706 175.746 99.5828C175.078 99.818 175.229 106.36 175.229 106.36Z" fill="#1E3D70"/>
<path d="M160.297 158.603L173.542 146.004L158.977 172.628L160.297 158.603Z" fill="#1E3D70"/>
</g>
<defs>
<clipPath id="clip0_1153_102970">
<rect width="520" height="308" fill="white" transform="translate(0.5 0.5)"/>
</clipPath>
</defs>
</svg>
