<svg width="258" height="194" viewBox="0 0 258 194" fill="none" xmlns="http://www.w3.org/2000/svg">
<g clip-path="url(#clip0_1326_38020)">
<path d="M257.5 170.346H0.5V170.475H257.5V170.346Z" fill="#EBEBEB"/>
<path d="M231.75 178.68H214.727V178.809H231.75V178.68Z" fill="#EBEBEB"/>
<path d="M170.748 180.088H166.281V180.217H170.748V180.088Z" fill="#EBEBEB"/>
<path d="M214.211 173.873H204.348V174.003H214.211V173.873Z" fill="#EBEBEB"/>
<path d="M49.6645 174.742H27.4648V174.872H49.6645V174.742Z" fill="#EBEBEB"/>
<path d="M57.4958 174.742H54.2422V174.872H57.4958V174.742Z" fill="#EBEBEB"/>
<path d="M116.226 176.928H68.0742V177.057H116.226V176.928Z" fill="#EBEBEB"/>
<path d="M122.325 147.244H23.0717C21.4526 147.244 20.1367 145.918 20.1367 144.286V3.69392C20.1367 2.06233 21.4526 0.736328 23.0717 0.736328H122.325C123.944 0.736328 125.26 2.06233 125.26 3.69392V144.286C125.26 145.918 123.944 147.244 122.325 147.244ZM23.0717 0.86582C21.5245 0.86582 20.2652 2.13484 20.2652 3.69392V144.286C20.2652 145.845 21.5245 147.114 23.0717 147.114H122.325C123.872 147.114 125.131 145.845 125.131 144.286V3.69392C125.131 2.13484 123.872 0.86582 122.325 0.86582H23.0717Z" fill="#EBEBEB"/>
<path d="M233.501 147.244H134.247C132.628 147.244 131.312 145.918 131.312 144.286V3.69392C131.312 2.06233 132.628 0.736328 134.247 0.736328H233.501C235.12 0.736328 236.436 2.06233 236.436 3.69392V144.286C236.436 145.918 235.12 147.244 233.501 147.244ZM134.247 0.86582C132.7 0.86582 131.441 2.13484 131.441 3.69392V144.286C131.441 145.845 132.7 147.114 134.247 147.114H233.501C235.048 147.114 236.307 145.845 236.307 144.286V3.69392C236.307 2.13484 235.048 0.86582 233.501 0.86582H134.247Z" fill="#EBEBEB"/>
<path d="M85.0483 6.32617H48.4258V131.524H85.0483V6.32617Z" fill="#FAFAFA"/>
<path d="M79.5947 6.32617H77.4565L64.6836 131.524H66.8218L79.5947 6.32617Z" fill="#F5F5F5"/>
<path d="M84.3988 6.8125H48.1875V7.91577H84.3988V6.8125Z" fill="#E0E0E0"/>
<path d="M84.3988 130.43H48.1875V132.792H84.3988V130.43Z" fill="#EBEBEB"/>
<path d="M83.799 132.689H49.582V132.793H83.799V132.689Z" fill="#EBEBEB"/>
<path d="M49.5821 6.8124H83.7991V132.689H85.8499V5.26367H47.5312V132.689H49.5821V6.8124Z" fill="#EBEBEB"/>
<path d="M125.802 6.32617H89.1797V131.524H125.802V6.32617Z" fill="#FAFAFA"/>
<path d="M115.646 6.32617H103.968L91.1953 131.524H102.868L115.646 6.32617Z" fill="#F5F5F5"/>
<path d="M126.181 6.8125H88.9414V7.91577H126.181V6.8125Z" fill="#E0E0E0"/>
<path d="M126.181 130.43H88.9414V132.792H126.181V130.43Z" fill="#EBEBEB"/>
<path d="M124.553 132.689H90.3359V132.793H124.553V132.689Z" fill="#EBEBEB"/>
<path d="M90.336 6.8124H124.553V132.689H126.599V5.26367H88.2852V132.689H90.336V6.8124Z" fill="#EBEBEB"/>
<path d="M165.528 6.32617H129.934V131.524H165.528V6.32617Z" fill="#FAFAFA"/>
<path d="M150.103 6.32617H147.964L135.191 131.524H137.33L150.103 6.32617Z" fill="#F5F5F5"/>
<path d="M165.911 6.8125H129.699V7.91577H165.911V6.8125Z" fill="#E0E0E0"/>
<path d="M165.911 130.43H129.699V132.792H165.911V130.43Z" fill="#EBEBEB"/>
<path d="M165.311 132.689H131.094V132.793H165.311V132.689Z" fill="#EBEBEB"/>
<path d="M131.094 6.8124H165.306V132.689H167.357V5.26367H129.043V132.689H131.094V6.8124Z" fill="#EBEBEB"/>
<path d="M207.31 6.32617H170.688V131.524H207.31V6.32617Z" fill="#FAFAFA"/>
<path d="M203.724 6.32617H192.051L179.273 131.524H190.952L203.724 6.32617Z" fill="#F5F5F5"/>
<path d="M206.661 6.8125H170.449V7.91577H206.661V6.8125Z" fill="#E0E0E0"/>
<path d="M206.661 130.43H170.449V132.792H206.661V130.43Z" fill="#EBEBEB"/>
<path d="M171.843 6.8124H206.06V132.689H208.11V5.26367H169.797V132.689H171.843V6.8124Z" fill="#EBEBEB"/>
<path d="M206.061 132.689H171.844V132.793H206.061V132.689Z" fill="#EBEBEB"/>
<path d="M76.2847 102.73H60.3867V130.437H76.2847V102.73Z" fill="#EBEBEB"/>
<path d="M73.2382 98.8555V105.807H71.9841H64.6956H63.4414V98.8555H73.2382Z" fill="#EBEBEB"/>
<path d="M73.2302 105.807H75.2656V103.755H73.2302V105.807Z" fill="#FAFAFA"/>
<path d="M69.2927 105.807H71.3281V103.755H69.2927V105.807Z" fill="#FAFAFA"/>
<path d="M65.3513 105.807H67.3867V103.755H65.3513V105.807Z" fill="#FAFAFA"/>
<path d="M61.4099 105.807H63.4453V103.755H61.4099V105.807Z" fill="#F0F0F0"/>
<path d="M73.2302 109.535H75.2656V107.484H73.2302V109.535Z" fill="#F0F0F0"/>
<path d="M69.2927 109.535H71.3281V107.484H69.2927V109.535Z" fill="#F0F0F0"/>
<path d="M65.3513 109.535H67.3867V107.484H65.3513V109.535Z" fill="#FAFAFA"/>
<path d="M61.4099 109.535H63.4453V107.484H61.4099V109.535Z" fill="#FAFAFA"/>
<path d="M73.2302 113.26H75.2656V111.209H73.2302V113.26Z" fill="#F0F0F0"/>
<path d="M69.2927 113.26H71.3281V111.209H69.2927V113.26Z" fill="#FAFAFA"/>
<path d="M65.3513 113.26H67.3867V111.209H65.3513V113.26Z" fill="#FAFAFA"/>
<path d="M69.2927 102.584H71.3281V100.533H69.2927V102.584Z" fill="#FAFAFA"/>
<path d="M65.3513 102.584H67.3867V100.533H65.3513V102.584Z" fill="#F0F0F0"/>
<path d="M61.4099 113.26H63.4453V111.209H61.4099V113.26Z" fill="#F0F0F0"/>
<path d="M73.2302 116.99H75.2656V114.939H73.2302V116.99Z" fill="#FAFAFA"/>
<path d="M69.2927 116.99H71.3281V114.939H69.2927V116.99Z" fill="#F0F0F0"/>
<path d="M65.3513 116.99H67.3867V114.939H65.3513V116.99Z" fill="#F0F0F0"/>
<path d="M61.4099 116.99H63.4453V114.939H61.4099V116.99Z" fill="#FAFAFA"/>
<path d="M73.2302 120.713H75.2656V118.662H73.2302V120.713Z" fill="#F0F0F0"/>
<path d="M69.2927 120.713H71.3281V118.662H69.2927V120.713Z" fill="#FAFAFA"/>
<path d="M65.3513 120.713H67.3867V118.662H65.3513V120.713Z" fill="#FAFAFA"/>
<path d="M61.4099 120.713H63.4453V118.662H61.4099V120.713Z" fill="#F0F0F0"/>
<path d="M73.2302 124.438H75.2656V122.386H73.2302V124.438Z" fill="#F0F0F0"/>
<path d="M69.2927 124.438H71.3281V122.386H69.2927V124.438Z" fill="#FAFAFA"/>
<path d="M65.3513 124.438H67.3867V122.386H65.3513V124.438Z" fill="#F0F0F0"/>
<path d="M61.4099 124.438H63.4453V122.386H61.4099V124.438Z" fill="#FAFAFA"/>
<path d="M73.2302 128.168H75.2656V126.117H73.2302V128.168Z" fill="#FAFAFA"/>
<path d="M69.2927 128.168H71.3281V126.117H69.2927V128.168Z" fill="#FAFAFA"/>
<path d="M65.3513 128.168H67.3867V126.117H65.3513V128.168Z" fill="#F0F0F0"/>
<path d="M61.4099 128.168H63.4453V126.117H61.4099V128.168Z" fill="#F0F0F0"/>
<path d="M188.278 112.82H174.035V130.431H188.278V112.82Z" fill="#F0F0F0"/>
<path d="M175.277 114.773H178.588H179.502H180.412V116.612H179.502H178.588H175.277V114.773Z" fill="#E6E6E6"/>
<path d="M175.277 118.336H178.588H179.502H180.412V120.17H179.502H178.588H175.277V118.336Z" fill="#FAFAFA"/>
<path d="M175.277 121.895H178.588H179.502H180.412V123.728H179.502H178.588H175.277V121.895Z" fill="#E6E6E6"/>
<path d="M175.277 125.453H178.588H179.996H180.412V127.292H179.996H178.588H175.277V125.453Z" fill="#FAFAFA"/>
<path d="M181.906 114.773H185.216H186.131H187.041V116.612H186.131H185.216H181.906V114.773Z" fill="#FAFAFA"/>
<path d="M181.906 118.336H185.216H186.507H187.041V120.17H186.507H185.216H181.906V118.336Z" fill="#FAFAFA"/>
<path d="M181.906 121.895H185.216H186.131H187.041V123.728H186.131H185.216H181.906V121.895Z" fill="#E6E6E6"/>
<path d="M181.906 125.453H185.216H186.131H187.041V127.292H186.131H185.216H181.906V125.453Z" fill="#FAFAFA"/>
<path d="M119.65 119.49H106.707V130.435H119.65V119.49Z" fill="#F0F0F0"/>
<path d="M117.165 122.525H118.82V120.858H117.165V122.525Z" fill="#FAFAFA"/>
<path d="M113.958 122.525H115.613V120.858H113.958V122.525Z" fill="#FAFAFA"/>
<path d="M110.747 122.525H112.402V120.858H110.747V122.525Z" fill="#FAFAFA"/>
<path d="M107.54 122.525H109.195V120.858H107.54V122.525Z" fill="#FAFAFA"/>
<path d="M117.165 125.555H118.82V123.887H117.165V125.555Z" fill="#FAFAFA"/>
<path d="M113.958 125.555H115.613V123.887H113.958V125.555Z" fill="#FAFAFA"/>
<path d="M110.747 125.555H112.402V123.887H110.747V125.555Z" fill="#FAFAFA"/>
<path d="M107.54 125.555H109.195V123.887H107.54V125.555Z" fill="#E6E6E6"/>
<path d="M117.165 128.592H118.82V126.924H117.165V128.592Z" fill="#E6E6E6"/>
<path d="M113.958 128.592H115.613V126.924H113.958V128.592Z" fill="#E6E6E6"/>
<path d="M110.747 128.592H112.402V126.924H110.747V128.592Z" fill="#FAFAFA"/>
<path d="M107.54 128.592H109.195V126.924H107.54V128.592Z" fill="#E6E6E6"/>
<path d="M104.954 111.395H92.0117V130.43H104.954V111.395Z" fill="#F0F0F0"/>
<path d="M104.125 112.234H99.2578V116.938H104.125V112.234Z" fill="#FAFAFA"/>
<path d="M97.7074 112.234H92.8398V116.938H97.7074V112.234Z" fill="#FAFAFA"/>
<path d="M104.125 118.299H99.2578V123.002H104.125V118.299Z" fill="#FAFAFA"/>
<path d="M97.7074 118.299H92.8398V123.002H97.7074V118.299Z" fill="#FAFAFA"/>
<path d="M104.125 124.365H99.2578V129.068H104.125V124.365Z" fill="#FAFAFA"/>
<path d="M97.7074 124.365H92.8398V129.068H97.7074V124.365Z" fill="#FAFAFA"/>
<path d="M128.999 193.737C184.04 193.737 228.659 191.111 228.659 187.873C228.659 184.635 184.04 182.01 128.999 182.01C73.9589 182.01 29.3398 184.635 29.3398 187.873C29.3398 191.111 73.9589 193.737 128.999 193.737Z" fill="#F5F5F5"/>
<path d="M229.009 13.5098V127.587L215.388 141.313H136.535V13.5098H229.009Z" fill="#407BFF"/>
<path opacity="0.8" d="M229.009 13.5098V127.587L215.388 141.313H136.535V13.5098H229.009Z" fill="white"/>
<path opacity="0.2" d="M215.387 141.314V127.986H229.008L215.654 141.448" fill="black"/>
<path opacity="0.1" d="M171.528 24.578H146.024C145.278 24.578 144.672 23.9668 144.672 23.2158C144.672 22.4647 145.278 21.8535 146.024 21.8535H171.528C172.274 21.8535 172.88 22.4647 172.88 23.2158C172.88 23.9668 172.274 24.578 171.528 24.578Z" fill="black"/>
<path opacity="0.1" d="M217.79 35.6366H156.305C155.56 35.6366 154.953 35.0254 154.953 34.2744C154.953 33.5233 155.56 32.9121 156.305 32.9121H217.79C218.535 32.9121 219.141 33.5233 219.141 34.2744C219.141 35.0254 218.535 35.6366 217.79 35.6366Z" fill="black"/>
<path opacity="0.1" d="M217.788 41.0136H146.024C145.278 41.0136 144.672 40.4024 144.672 39.6513C144.672 38.9003 145.278 38.2891 146.024 38.2891H217.788C218.534 38.2891 219.14 38.9003 219.14 39.6513C219.14 40.4024 218.534 41.0136 217.788 41.0136Z" fill="black"/>
<path opacity="0.1" d="M217.788 47.078H146.024C145.278 47.078 144.672 46.4668 144.672 45.7158C144.672 44.9647 145.278 44.3535 146.024 44.3535H217.788C218.534 44.3535 219.14 44.9647 219.14 45.7158C219.14 46.4668 218.534 47.078 217.788 47.078Z" fill="black"/>
<path opacity="0.1" d="M217.788 53.1483H146.024C145.278 53.1483 144.672 52.5371 144.672 51.7861C144.672 51.035 145.278 50.4238 146.024 50.4238H217.788C218.534 50.4238 219.14 51.035 219.14 51.7861C219.14 52.5371 218.534 53.1483 217.788 53.1483Z" fill="black"/>
<path opacity="0.1" d="M217.788 59.2206H146.024C145.278 59.2206 144.672 58.6094 144.672 57.8583C144.672 57.1073 145.278 56.4961 146.024 56.4961H217.788C218.534 56.4961 219.14 57.1073 219.14 57.8583C219.14 58.6094 218.534 59.2206 217.788 59.2206Z" fill="black"/>
<path opacity="0.1" d="M217.788 65.2909H146.024C145.278 65.2909 144.672 64.6797 144.672 63.9287C144.672 63.1776 145.278 62.5664 146.024 62.5664H217.788C218.534 62.5664 219.14 63.1776 219.14 63.9287C219.14 64.6797 218.534 65.2909 217.788 65.2909Z" fill="black"/>
<path opacity="0.1" d="M217.794 68.6309H146.024C145.277 68.6309 144.672 69.2408 144.672 69.9931V69.9983C144.672 70.7506 145.277 71.3606 146.024 71.3606H217.794C218.54 71.3606 219.145 70.7506 219.145 69.9983V69.9931C219.145 69.2408 218.54 68.6309 217.794 68.6309Z" fill="black"/>
<path opacity="0.1" d="M217.788 77.4257H146.024C145.278 77.4257 144.672 76.8145 144.672 76.0634C144.672 75.3124 145.278 74.7012 146.024 74.7012H217.788C218.534 74.7012 219.14 75.3124 219.14 76.0634C219.14 76.8145 218.534 77.4257 217.788 77.4257Z" fill="black"/>
<path opacity="0.1" d="M217.788 83.496H146.024C145.278 83.496 144.672 82.8848 144.672 82.1337C144.672 81.3827 145.278 80.7715 146.024 80.7715H217.788C218.534 80.7715 219.14 81.3827 219.14 82.1337C219.14 82.8848 218.534 83.496 217.788 83.496Z" fill="black"/>
<path opacity="0.1" d="M217.788 89.5683H146.024C145.278 89.5683 144.672 88.9571 144.672 88.206C144.672 87.4549 145.278 86.8438 146.024 86.8438H217.788C218.534 86.8438 219.14 87.4549 219.14 88.206C219.14 88.9571 218.534 89.5683 217.788 89.5683Z" fill="black"/>
<path opacity="0.1" d="M217.788 95.6327H146.024C145.278 95.6327 144.672 95.0215 144.672 94.2705C144.672 93.5194 145.278 92.9082 146.024 92.9082H217.788C218.534 92.9082 219.14 93.5194 219.14 94.2705C219.14 95.0215 218.534 95.6327 217.788 95.6327Z" fill="black"/>
<path opacity="0.1" d="M176.668 101.703H146.024C145.278 101.703 144.672 101.092 144.672 100.341C144.672 99.5897 145.278 98.9785 146.024 98.9785H176.668C177.414 98.9785 178.02 99.5897 178.02 100.341C178.02 101.092 177.414 101.703 176.668 101.703Z" fill="black"/>
<path d="M212.243 41.4651C212.213 41.4392 212.182 41.4133 212.146 41.3822C211.873 41.1647 211.709 41.2372 211.58 40.8332C211.488 40.5327 211.591 40.2064 211.477 39.8956C211.277 39.3725 210.912 38.8649 210.64 38.3728C210.218 37.6062 209.797 36.8448 209.37 36.0782C208.784 35.0216 207.453 34.6383 206.404 35.2287L194.762 41.7655C194.716 42.1591 194.392 42.4285 194.33 42.8221C194.294 43.0449 194.351 43.2935 194.521 43.4334C194.377 43.4437 194.279 43.3712 194.161 43.3039C193.467 42.9154 193.282 42.6046 192.567 42.9983C192.259 43.164 191.956 43.3401 191.653 43.511C190.625 44.0912 189.591 44.6661 188.563 45.2462C185.341 47.0539 182.123 48.8617 178.9 50.6694C175.122 52.7879 171.35 54.9063 167.572 57.03C164.431 58.7911 161.291 60.5574 158.155 62.3185C156.87 63.0384 155.308 63.6704 154.166 64.5872C154.485 64.7581 154.537 65.0067 154.259 65.2553C154.079 65.4159 153.904 65.5713 153.724 65.7319C153.719 65.8562 153.915 65.8562 154.028 65.8096C154.238 65.7163 154.454 65.6231 154.665 65.535C154.223 66.0996 153.688 66.5917 153.092 66.9802C152.11 67.6173 150.975 67.9695 149.859 68.3165L150.404 67.6276C150.45 67.5707 150.497 67.4981 150.466 67.4308C150.44 67.3738 150.363 67.3583 150.296 67.3531C150.029 67.3272 149.756 67.3531 149.551 67.1511C147.793 68.2129 145.958 69.1712 144.169 70.176C143.121 70.7665 142.74 72.1081 143.326 73.1647L155.061 94.3962C155.647 95.4529 156.978 95.8362 158.027 95.2457L161.188 93.4742C161.193 93.1065 161.476 92.6973 161.26 92.3554C161.234 92.314 161.198 92.2674 161.198 92.2156C161.198 92.1482 161.26 92.0964 161.316 92.0602C161.63 91.8582 162 91.739 162.37 91.7183C162.498 91.7131 162.668 91.7701 162.647 91.8944C162.668 91.7857 163.311 91.5422 163.424 91.506C163.475 91.7857 163.285 92.0861 163.609 92.1431C163.871 92.1897 164.426 91.6458 164.657 91.5163C165.685 90.9362 166.718 90.3612 167.746 89.7811C170.995 87.9579 174.248 86.1294 177.497 84.3062C181.069 82.3017 184.636 80.2971 188.209 78.2926C190.578 76.9614 192.948 75.6354 195.312 74.3042C195.574 74.1592 195.872 73.9831 196.124 73.8536C196.232 73.4599 196.433 72.8436 196.782 72.6001C197.291 72.2427 198.108 72.6364 198.54 72.1288C198.622 72.0304 198.674 71.9112 198.746 71.8076C198.869 71.6315 199.059 71.5124 199.239 71.3984C199.373 71.3156 199.512 71.2275 199.666 71.2275C199.82 71.2275 199.984 71.357 199.964 71.5124C201.023 71.2638 201.979 70.549 202.914 70.0103C203.248 69.8186 206.23 68.4098 206.214 68.187C206.173 67.4981 206.594 66.9077 206.574 66.198C206.574 66.0634 206.312 65.1673 206.43 65.0948C203.757 66.7005 200.976 68.1611 198.257 69.6891C198.165 69.7409 197.815 69.8652 197.764 69.9637C197.754 69.9896 197.738 70.0155 197.728 70.0362C197.702 70.0932 197.677 70.1501 197.651 70.2071C197.646 70.2226 197.641 70.2382 197.63 70.2485C197.502 70.5749 197.404 70.9633 197.24 71.2741C197.214 71.3207 196.659 72.0459 196.613 71.875C196.386 71.041 196.073 70.9115 195.466 71.2534C195.163 71.4243 194.865 71.5901 194.562 71.761C193.606 72.2997 192.645 72.8384 191.688 73.3771C188.461 75.19 185.233 76.9977 182.01 78.8106C178.206 80.9446 174.408 83.0786 170.604 85.2126C167.438 86.9893 164.267 88.7711 161.1 90.5477C159.774 91.2936 158.448 92.0395 157.122 92.7801C156.32 91.3298 155.518 89.8847 154.722 88.4344L153.18 85.6426C152.995 85.3059 152.815 84.8293 152.506 84.6014C152.285 84.4357 151.91 84.4771 151.71 84.3269C151.232 83.9643 150.887 83.2858 150.435 82.8611C150.126 82.5762 149.659 81.706 149.787 81.2243C149.941 81.2864 150.096 81.3486 150.25 81.4004C150.173 81.0585 150.178 80.7737 150.301 80.4318C148.749 77.8212 147.335 75.0812 145.86 72.4085C145.86 72.3981 145.763 72.2375 145.763 72.2375C146.965 71.5642 148.163 70.8908 149.366 70.2175C150.24 69.7254 151.118 69.2333 151.992 68.7413C152.46 68.4771 153.103 68.244 153.514 67.8866C153.848 67.5965 154.182 67.234 154.562 66.918C154.794 66.7264 155.061 66.5969 155.328 66.4622C155.652 66.3016 155.976 66.1462 156.3 65.9857C156.351 65.9598 156.408 65.9339 156.464 65.9339C156.526 65.9339 156.577 65.9598 156.639 65.9753C157.158 66.0841 158.428 65.1258 158.89 64.8669C159.887 64.3075 160.884 63.7481 161.882 63.1886C164.889 61.5001 167.901 59.8115 170.907 58.1229C174.655 56.02 178.407 53.9118 182.154 51.8089C185.906 49.7008 189.658 47.5978 193.41 45.4897C196.428 43.7959 199.45 42.1022 202.467 40.4032C204.014 39.5331 205.566 38.6629 207.114 37.7927C207.186 37.7512 207.258 37.715 207.33 37.6735C207.33 37.6735 212.29 46.6499 212.331 46.7224C212.619 47.2404 213.184 47.9448 213.744 48.1313C213.945 48.1987 214.176 48.3437 214.155 48.5561C214.13 48.784 213.821 48.9445 213.893 49.1621C213.976 49.4107 214.361 49.3019 214.454 49.4988C214.577 49.7474 214.294 50.0064 214.325 50.2861C214.356 50.5606 214.659 50.9387 214.793 51.177C215.276 52.0575 215.764 52.9329 216.247 53.8134C217.06 55.2793 217.867 56.7451 218.684 58.2213L209.792 63.2145C209.833 63.2508 209.874 63.2922 209.9 63.344C209.92 63.3803 209.93 63.4217 209.946 63.4632C210.131 63.515 210.316 63.6134 210.485 63.6911C210.629 63.7584 210.712 63.9501 210.712 64.1003C210.712 64.2608 210.619 64.4162 210.475 64.4939L209.93 64.7995C209.884 65.043 209.714 65.2398 209.463 65.2916C209.401 65.302 209.334 65.3071 209.272 65.3071C209.164 65.3848 209.036 65.4159 208.892 65.3797C208.661 65.3227 208.496 65.0378 208.579 64.8099C208.599 64.7529 208.63 64.7063 208.661 64.6597C208.584 64.5095 208.589 64.323 208.692 64.178C208.635 64.1728 208.584 64.1676 208.527 64.1572C208.44 64.1365 208.352 64.1054 208.265 64.0795C207.705 64.3903 207.551 64.7477 207.227 65.3071C207.211 65.3382 207.191 65.3693 207.201 65.4004C207.216 65.4729 207.314 65.4781 207.381 65.5091C207.53 65.5817 207.499 65.8096 207.422 65.965C207.345 66.1152 207.252 66.3068 207.355 66.4415C207.391 66.4881 207.448 66.5192 207.484 66.5658C207.7 66.8144 207.365 67.5499 207.9 67.2495C207.859 67.0993 207.895 66.9128 207.972 66.7782C208.054 66.6331 208.203 66.5295 208.363 66.4829C208.758 66.3793 209.17 66.3327 209.581 66.3016L220.287 60.2932C221.336 59.7027 221.716 58.3612 221.13 57.3045L221.069 57.1958C219.455 54.2744 217.841 51.3583 216.227 48.4369L213.431 43.3764C213.163 42.8895 212.906 42.3922 212.624 41.9157C212.505 41.7241 212.423 41.5997 212.269 41.4599L212.243 41.4651Z" fill="#407BFF"/>
<path d="M162.75 70.0834C162.395 69.6483 162.503 69.6379 162.431 69.1717C162.431 69.1614 162.431 69.151 162.426 69.1407C162.411 69.1251 162.4 69.1096 162.385 69.0992C162.359 69.0785 162.344 69.0474 162.318 69.0267C162.076 69.1355 161.835 69.2546 161.593 69.3893L156.859 72.0465L158.766 75.491C158.499 75.0092 159.445 75.1543 159.481 75.1491C159.584 75.1336 159.686 75.0869 159.794 75.0973C159.897 75.1128 159.984 75.1802 160.046 75.263C160.288 75.579 160.252 76.0193 160.211 76.4129C160.154 76.9516 160.427 77.4696 160.128 77.9617C160.38 78.376 162.662 82.5509 162.668 82.5457L167.402 79.8885C167.674 79.7331 168.322 79.4638 168.481 79.1841C168.594 78.9821 168.388 78.4848 168.671 78.3501C168.861 78.2621 169.175 78.3035 169.319 78.4123C171.21 76.5321 171.519 73.7195 170.239 71.4094C168.908 69.0008 165.885 67.5712 163.238 68.6849C163.053 68.7625 163.3 69.5965 162.858 69.6897C162.94 69.5188 163.063 69.3789 163.218 69.265M166.178 77.9565L163.973 79.1944C163.793 78.8681 163.618 78.5418 163.433 78.2258C163.665 78.6247 163.027 78.5003 162.894 78.4071C162.57 78.1896 162.483 77.5628 162.472 77.2106C162.452 76.5062 162.287 76.1488 161.938 75.5117C161.419 74.569 160.894 73.6263 160.375 72.6836L162.58 71.4456C164.652 70.2854 166.692 70.7671 167.802 72.7768C168.913 74.7865 168.25 76.7911 166.178 77.9565Z" fill="#407BFF"/>
<path d="M178.403 61.2581C178.506 61.517 178.552 61.7709 178.496 62.0454C178.465 62.1904 178.239 62.5737 178.269 62.6514C178.352 62.8586 178.429 63.0658 178.511 63.273C178.526 63.304 178.537 63.3403 178.562 63.3662C178.598 63.3973 178.65 63.4076 178.696 63.4076C179.513 63.475 179.477 63.563 179.529 64.2571C179.575 64.8528 180.084 65.1946 180.372 65.7126C181.477 67.7068 180.829 69.8563 178.968 70.9026C177.904 71.5035 176.743 71.5656 175.735 71.1357C175.715 71.1564 175.694 71.1772 175.674 71.1927C175.571 71.2497 175.437 71.2652 175.324 71.2341C174.79 71.0736 174.348 70.6385 174.24 70.0791C174.229 70.0376 174.24 69.9962 174.24 69.9547C174.101 69.7735 173.972 69.587 173.854 69.3746C172.749 67.3804 173.397 65.2257 175.257 64.1846C175.946 63.7961 176.676 63.6459 177.38 63.6977C177.365 63.677 177.349 63.6563 177.334 63.6355C176.892 63.0451 178.49 62.8068 177.766 62.4131C177.462 62.2474 177.514 61.4963 177.437 61.1855C176.337 61.2011 175.201 61.5015 174.106 62.1127C170.816 63.9619 169.68 67.6239 171.407 70.7472C172.142 72.0784 173.335 73.1247 174.779 73.6064C175.083 73.71 175.525 73.8861 175.848 73.855C176.27 73.8188 176.064 73.8809 176.239 73.6012C176.398 73.3474 176.311 73.2387 176.583 72.9693C176.851 72.7052 177.175 72.5342 177.236 72.1198C177.221 72.3063 177.442 72.441 177.442 72.6223C177.442 72.6793 177.421 72.7311 177.426 72.788C177.432 72.8554 177.473 72.9123 177.514 72.9693C177.689 73.2076 177.982 73.4666 177.987 73.7618C178.711 73.6738 179.472 73.3371 180.115 72.9745C183.389 71.1357 184.55 67.4789 182.813 64.34C181.944 62.7705 180.243 61.3565 178.398 61.2477L178.403 61.2581Z" fill="#407BFF"/>
<path d="M188.914 54.0525L192.44 60.4287L183.733 56.9583L181.738 58.0771C183.085 60.5115 184.514 62.9253 185.783 65.4012C185.871 65.137 186.076 65.08 186.323 65.0489C186.786 64.9816 186.77 65.2147 187.022 65.6809C187.053 65.7327 187.089 65.7896 187.146 65.8052C187.238 65.8207 187.315 65.7171 187.408 65.7327C187.5 65.743 187.536 65.8621 187.516 65.9502C187.49 66.0383 187.428 66.1108 187.382 66.1885C187.233 66.4733 187.48 66.6598 187.449 66.9136C187.433 67.0535 187.002 67.5973 187.053 67.6906L187.546 68.5867L189.926 67.2503L189.289 66.1004C189.253 66.1056 189.212 66.1108 189.176 66.1159C188.482 66.204 188.785 65.2924 188.636 64.9143C188.425 64.3859 188.06 63.8783 187.788 63.3811C187.325 62.5472 186.863 61.7132 186.405 60.8741L193.488 63.6815C193.504 63.4743 193.457 63.2568 193.56 63.0703C193.617 62.9667 194.059 62.7595 194.054 62.6559C194.079 62.9874 194.239 63.3034 194.485 63.5209C194.763 63.7644 194.763 63.7281 194.706 64.158L195.133 64.329L197.112 63.2153L191.304 52.7109L188.924 54.0473L188.914 54.0525Z" fill="#407BFF"/>
<path d="M200.892 58.5327L199.551 56.1034L204.388 53.3893L203.344 51.4987L198.507 54.2128L197.248 51.9338L200.522 50.095C200.651 49.9189 200.831 49.779 201.021 49.6651C201.124 49.6029 201.242 49.5977 201.345 49.6288L202.727 48.8519C202.727 48.8519 201.751 47.0856 201.653 46.9043C201.18 47.1218 201.653 47.7227 201.175 48.0127C201.273 48.1163 201.417 48.4893 201.16 48.51C201.021 48.5204 200.923 48.3339 200.784 48.3494C200.707 48.3598 200.64 48.4271 200.563 48.4116C200.522 48.4012 200.491 48.365 200.466 48.3235C200.373 48.1785 200.337 47.9972 200.214 47.8781C199.89 47.5621 196.935 49.5459 196.523 49.779C195.608 50.2918 194.688 50.8098 193.773 51.3226L199.582 61.827L201.9 60.5269C201.9 60.5269 201.931 60.4854 201.946 60.4647C202.111 60.2471 202.28 60.0244 202.46 59.8224C202.599 59.667 202.84 59.6618 203.015 59.7551C203.056 59.7758 203.087 59.8069 203.118 59.8431L207.646 57.2999L206.567 55.3472L200.892 58.5327Z" fill="#407BFF"/>
<path d="M207.078 170.247C207.078 170.247 203.696 162.814 207.561 155.49C211.421 148.166 212.542 146.436 210.079 144.939C207.617 143.437 206.487 150.802 206.487 150.802C206.487 150.802 204.41 145.736 206.127 140.438C207.838 135.139 208.913 126.504 206.574 125.577C204.235 124.65 206.127 136.346 204.097 140.334C204.097 140.334 202.39 135.895 202.112 131.637C201.835 127.38 202.272 120.584 200.421 118.838C198.571 117.093 197.389 118.3 199.203 127.696C201.018 137.092 201.007 144.726 201.007 144.726C201.007 144.726 196.998 132.404 194.305 132.041C191.611 131.684 191.617 135.672 193.919 139.132C196.222 142.592 200.668 148.798 201.398 151.988C201.398 151.988 196.993 142.712 193.035 145.555C189.072 148.399 196.484 153.998 199.784 156.023C203.084 158.049 205.376 170.739 205.376 170.739L207.078 170.247Z" fill="#407BFF"/>
<path opacity="0.2" d="M207.078 170.247C207.078 170.247 203.696 162.814 207.561 155.49C211.421 148.166 212.542 146.436 210.079 144.939C207.617 143.437 206.487 150.802 206.487 150.802C206.487 150.802 204.41 145.736 206.127 140.438C207.838 135.139 208.913 126.504 206.574 125.577C204.235 124.65 206.127 136.346 204.097 140.334C204.097 140.334 202.39 135.895 202.112 131.637C201.835 127.38 202.272 120.584 200.421 118.838C198.571 117.093 197.389 118.3 199.203 127.696C201.018 137.092 201.007 144.726 201.007 144.726C201.007 144.726 196.998 132.404 194.305 132.041C191.611 131.684 191.617 135.672 193.919 139.132C196.222 142.592 200.668 148.798 201.398 151.988C201.398 151.988 196.993 142.712 193.035 145.555C189.072 148.399 196.484 153.998 199.784 156.023C203.084 158.049 205.376 170.739 205.376 170.739L207.078 170.247Z" fill="black"/>
<path d="M204.406 173.298C204.406 173.298 207.695 165.814 203.748 158.546C199.8 151.279 198.659 149.57 201.101 148.032C203.542 146.493 204.76 153.838 204.76 153.838C204.76 153.838 206.775 148.741 204.997 143.468C203.218 138.195 202.041 129.576 204.37 128.618C206.698 127.655 204.945 139.382 207.022 143.339C207.022 143.339 208.677 138.874 208.903 134.616C209.135 130.353 208.615 123.563 210.44 121.791C212.265 120.02 213.468 121.206 211.761 130.628C210.055 140.05 210.163 147.685 210.163 147.685C210.163 147.685 214.028 135.3 216.716 134.901C219.404 134.502 219.445 138.491 217.184 141.987C214.922 145.483 210.553 151.751 209.859 154.952C209.859 154.952 214.151 145.613 218.145 148.394C222.139 151.176 214.799 156.889 211.52 158.966C208.24 161.038 206.102 173.764 206.102 173.764L204.395 173.298H204.406Z" fill="#407BFF"/>
<path d="M219.589 167.963H192.398L194.598 187.573H217.389L219.589 167.963Z" fill="#263238"/>
<path d="M80.4924 44.6602H62.5435C61.1043 44.6602 59.9375 45.8359 59.9375 47.2811V64.8609C59.9375 66.3112 61.1043 67.4818 62.5435 67.4818H68.2849L64.4196 72.7806L71.1067 67.4818H80.4924C81.9316 67.4818 83.0983 66.306 83.0983 64.8609V47.2811C83.0983 45.8308 81.9316 44.6602 80.4924 44.6602Z" fill="#407BFF"/>
<path opacity="0.6" d="M80.4924 44.6602H62.5435C61.1043 44.6602 59.9375 45.8359 59.9375 47.2811V64.8609C59.9375 66.3112 61.1043 67.4818 62.5435 67.4818H68.2849L64.4196 72.7806L71.1067 67.4818H80.4924C81.9316 67.4818 83.0983 66.306 83.0983 64.8609V47.2811C83.0983 45.8308 81.9316 44.6602 80.4924 44.6602Z" fill="white"/>
<path d="M71.5219 64.2868C76.0213 64.2868 79.6688 60.6111 79.6688 56.077C79.6688 51.5428 76.0213 47.8672 71.5219 47.8672C67.0225 47.8672 63.375 51.5428 63.375 56.077C63.375 60.6111 67.0225 64.2868 71.5219 64.2868Z" fill="#407BFF"/>
<path opacity="0.2" d="M78.3187 57.6857C79.2049 53.9021 76.8795 50.1108 73.1248 49.2178C69.3701 48.3248 65.608 50.6681 64.7218 54.4518C63.8356 58.2355 66.161 62.0267 69.9157 62.9197C73.6703 63.8127 77.4325 61.4694 78.3187 57.6857Z" fill="black"/>
<path d="M70.6562 59.4385C70.4712 59.4385 70.2913 59.366 70.1576 59.2313L67.1918 56.3048C66.9091 56.0251 66.904 55.5745 67.1816 55.2896C67.4591 55.0047 67.9063 54.9996 68.189 55.2793L70.6202 57.6774L74.8247 52.9484C75.0869 52.6532 75.5392 52.6273 75.8322 52.8914C76.1252 53.1556 76.1509 53.6114 75.8887 53.9066L71.1908 59.2003C71.0623 59.3453 70.8772 59.4334 70.6819 59.4385C70.6716 59.4385 70.6665 59.4385 70.6562 59.4385Z" fill="white"/>
<path d="M48.2493 175.789L63.0576 174.323V157.494H68.9275V174.318L83.7975 175.789C85.2727 175.934 86.3984 177.187 86.3984 178.679V180.922H45.6484V178.679C45.6484 177.182 46.7741 175.934 48.2493 175.789Z" fill="#263238"/>
<path opacity="0.1" d="M48.2493 175.789L63.0576 174.323V157.494H68.9275V174.318L83.7975 175.789C85.2727 175.934 86.3984 177.187 86.3984 178.679V180.922H45.6484V178.679C45.6484 177.182 46.7741 175.934 48.2493 175.789Z" fill="white"/>
<path d="M84.8318 187.572C86.9523 187.572 88.6713 185.84 88.6713 183.703C88.6713 181.566 86.9523 179.834 84.8318 179.834C82.7112 179.834 80.9922 181.566 80.9922 183.703C80.9922 185.84 82.7112 187.572 84.8318 187.572Z" fill="#263238"/>
<path d="M47.2185 187.572C49.339 187.572 51.0581 185.84 51.0581 183.703C51.0581 181.566 49.339 179.834 47.2185 179.834C45.0979 179.834 43.3789 181.566 43.3789 183.703C43.3789 185.84 45.0979 187.572 47.2185 187.572Z" fill="#263238"/>
<path d="M67.8147 162H64.1704C62.9985 162 62.0476 161.042 62.0476 159.861V143.322H69.9375V159.861C69.9375 161.042 68.9866 162 67.8147 162Z" fill="#263238"/>
<path opacity="0.2" d="M67.8147 162H64.1704C62.9985 162 62.0476 161.042 62.0476 159.861V143.322H69.9375V159.861C69.9375 161.042 68.9866 162 67.8147 162Z" fill="white"/>
<path d="M45.4966 110.893C45.4966 110.893 49.8964 138.557 58.5727 143.323H49.7525C49.7525 143.323 41.0402 133.896 38.3828 110.893H45.5017H45.4966Z" fill="#263238"/>
<path opacity="0.1" d="M45.4966 110.893C45.4966 110.893 49.8964 138.557 58.5727 143.323H49.7525C49.7525 143.323 41.0402 133.896 38.3828 110.893H45.5017H45.4966Z" fill="white"/>
<path d="M49.3122 139.412H83.7091C85.1277 139.412 86.2791 140.572 86.2791 142.002V145.467H46.7422V142.002C46.7422 140.572 47.8935 139.412 49.3122 139.412Z" fill="#407BFF"/>
<path d="M86.8922 142.438H46.1269C45.5563 142.438 45.0938 142.904 45.0938 143.479V144.421C45.0938 144.996 45.5563 145.462 46.1269 145.462H86.8922C87.4628 145.462 87.9254 144.996 87.9254 144.421V143.479C87.9254 142.904 87.4628 142.438 86.8922 142.438Z" fill="#263238"/>
<path opacity="0.6" d="M86.8922 142.438H46.1269C45.5563 142.438 45.0938 142.904 45.0938 143.479V144.421C45.0938 144.996 45.5563 145.462 46.1269 145.462H86.8922C87.4628 145.462 87.9254 144.996 87.9254 144.421V143.479C87.9254 142.904 87.4628 142.438 86.8922 142.438Z" fill="white"/>
<path d="M37.3379 116.512H51.4678C55.6055 116.512 58.2988 113.166 57.4764 109.038L56.3765 103.527C55.5541 99.3988 51.5295 96.0527 47.3918 96.0527H33.2619C29.1242 96.0527 26.4308 99.3988 27.2532 103.527L28.3532 109.038C29.1756 113.166 33.2002 116.512 37.3379 116.512Z" fill="#407BFF"/>
<path d="M112.317 162.829L109.079 164.109L106.745 159.685L104.633 155.661L108.221 153.49L110.39 158.432L112.317 162.829Z" fill="#E4897B"/>
<path opacity="0.2" d="M110.39 158.432L106.745 159.685L104.633 155.661L108.221 153.49L110.39 158.432Z" fill="black"/>
<path d="M109.715 156.019L105.31 158.402C105.31 158.402 88.6613 128.904 86.1015 129.147C83.5418 129.391 59.2553 144.992 51.8486 139.232C44.4418 133.478 51.6481 116.131 51.6481 116.131C51.6481 116.131 66.9705 111.718 68.6307 115.11C68.9545 115.768 69.3863 117.084 69.7306 118.213C70.0596 119.275 70.3063 120.171 70.3063 120.171C70.3063 120.171 70.3063 120.171 70.3166 120.166C70.7843 119.974 85.9165 113.722 92.6705 117.073C99.5324 120.482 109.72 156.019 109.72 156.019H109.715Z" fill="#263238"/>
<path opacity="0.3" d="M109.715 156.019L105.31 158.402C105.31 158.402 88.6613 128.904 86.1015 129.147C83.5418 129.391 59.2553 144.992 51.8486 139.232C44.4418 133.478 51.6481 116.131 51.6481 116.131C51.6481 116.131 66.9705 111.718 68.6307 115.11C68.9545 115.768 69.3863 117.084 69.7306 118.213C70.0596 119.275 70.3063 120.171 70.3063 120.171C70.3063 120.171 70.3063 120.171 70.3166 120.166C70.7843 119.974 85.9165 113.722 92.6705 117.073C99.5324 120.482 109.72 156.019 109.72 156.019H109.715Z" fill="white"/>
<path d="M85.7845 180.072L82.3304 179.673L82.3098 174.763L82.3047 170.257L86.4835 170.055L86.1134 175.359L85.7845 180.072Z" fill="#E4897B"/>
<path opacity="0.2" d="M86.1044 175.469L82.3008 174.858V170.305L86.4796 170.082L86.1044 175.469Z" fill="black"/>
<path d="M103.156 156.936L109.602 153.684L110.275 156.434L105.392 158.972L103.156 156.936Z" fill="#407BFF"/>
<path d="M63.293 139.278C63.293 139.278 64.3569 139.159 80.6405 136.119C80.6405 136.119 81.0054 157.112 81.7815 172.755L86.7982 172.915C86.7982 172.915 93.9942 138.191 93.1512 132.944C92.3083 127.702 86.1146 126.992 86.1146 126.992C86.1146 126.992 75.3617 135.409 63.2981 139.278H63.293Z" fill="#263238"/>
<path opacity="0.4" d="M63.293 139.278C63.293 139.278 64.3569 139.159 80.6405 136.119C80.6405 136.119 81.0054 157.112 81.7815 172.755L86.7982 172.915C86.7982 172.915 93.9942 138.191 93.1512 132.944C92.3083 127.702 86.1146 126.992 86.1146 126.992C86.1146 126.992 75.3617 135.409 63.2981 139.278H63.293Z" fill="white"/>
<path opacity="0.3" d="M63.293 139.278C63.293 139.278 64.3569 139.159 80.6405 136.119C80.6405 136.119 81.0054 157.112 81.7815 172.755L86.7982 172.915C86.7982 172.915 93.9942 138.191 93.1512 132.944C92.3083 127.702 86.1146 126.992 86.1146 126.992C86.1146 126.992 75.3617 135.409 63.2981 139.278H63.293Z" fill="black"/>
<path d="M80.8594 171.356L87.7007 171.195L86.7652 174.034L81.214 174.086L80.8594 171.356Z" fill="#407BFF"/>
<path opacity="0.3" d="M70.3026 120.171L61.4258 123.356C61.4258 123.356 66.0929 119.844 69.732 118.213C70.061 119.275 70.3077 120.171 70.3077 120.171H70.3026Z" fill="black"/>
<path d="M50.6211 115.062L50.9501 117.543L67.5882 113.984L67.2027 111.053L50.6211 115.062Z" fill="#263238"/>
<path opacity="0.2" d="M50.6211 115.062L50.9501 117.543L67.5882 113.984L67.2027 111.053L50.6211 115.062Z" fill="black"/>
<path d="M56.1335 113.255L55.3047 113.41L56.0876 117.663L56.9164 117.508L56.1335 113.255Z" fill="#263238"/>
<path d="M63.3881 112.181L59.7578 113.006L60.3782 115.78L64.0085 114.955L63.3881 112.181Z" fill="white"/>
<path d="M66.2429 110.748L65.4141 110.902L66.1962 115.155L67.025 115L66.2429 110.748Z" fill="#263238"/>
<path opacity="0.3" d="M56.1335 113.255L55.3047 113.41L56.0876 117.663L56.9164 117.508L56.1335 113.255Z" fill="white"/>
<path opacity="0.3" d="M66.2429 110.748L65.4141 110.902L66.1962 115.155L67.025 115L66.2429 110.748Z" fill="white"/>
<path d="M118.753 168.616C118.213 168.45 117.643 168.388 117.083 168.424C117.083 168.424 114.991 167.544 112.467 163.354L110.308 163.638C109.563 163.752 108.967 164.317 108.818 165.063C108.797 165.166 108.787 165.27 108.797 165.374C108.89 165.897 109.018 166.41 109.177 166.917C109.594 168.518 111.136 171.853 111.136 171.853L111.49 171.708L110.385 168.559C110.015 167.487 111.305 168.393 111.994 169.429C112.678 170.465 113.649 171.47 115.952 170.595C118.635 169.559 119.699 168.999 118.763 168.616H118.753Z" fill="#263238"/>
<path d="M111.914 162.244C111.914 162.244 115.379 167.548 117.08 168.429C117.08 168.429 115.173 169.967 112.629 167.486C109.339 164.28 108.794 165.378 108.794 165.378C108.794 165.378 108.743 164.13 108.882 163.498C109.144 162.28 111.914 162.244 111.914 162.244Z" fill="#E4897B"/>
<path d="M90.9497 186.247C90.4614 185.957 89.9268 185.76 89.3717 185.661C89.3717 185.661 87.547 184.309 86.0821 179.632L83.9182 179.394C83.1677 179.327 82.4533 179.736 82.1346 180.419C82.0883 180.513 82.0575 180.611 82.0421 180.715C82.0112 181.243 82.0112 181.777 82.0472 182.305C82.0729 183.957 82.7874 187.567 82.7874 187.567L83.1626 187.51L82.8285 184.185C82.7205 183.056 83.764 184.242 84.1854 185.413C84.6069 186.583 85.3111 187.79 87.7577 187.49C90.6104 187.122 91.7721 186.837 90.9548 186.241L90.9497 186.247Z" fill="#263238"/>
<path d="M85.8106 178.422C85.8106 178.422 87.9283 184.399 89.3726 185.663C89.3726 185.663 87.1573 186.699 85.2709 183.684C82.8294 179.784 82.043 180.722 82.043 180.722C82.043 180.722 82.2897 179.499 82.5673 178.919C83.107 177.8 85.8106 178.427 85.8106 178.427V178.422Z" fill="#E4897B"/>
<path d="M46.9983 72.7602L42.6653 73.6407C42.6653 73.6407 42.0279 74.1742 41.4214 73.9411C40.1261 73.4491 38.2603 71.9055 38.0239 71.372C37.6743 70.5899 38.0239 68.2953 38.9388 67.8861C39.8537 67.4769 43.0045 71.3047 43.0045 71.3047L47.6768 70.2428L46.9983 72.7653V72.7602Z" fill="#E4897B"/>
<path d="M60.7118 87.3193C60.7118 87.3193 60.316 73.127 58.6866 72.5158C57.0572 71.9046 44.8189 73.6035 44.8189 73.6035L44.5156 70.3611C44.5156 70.3611 58.774 68.1545 61.5342 69.4598C64.2943 70.7651 65.2041 91.9344 64.7004 96.0108L60.7169 87.3193H60.7118Z" fill="#407BFF"/>
<path opacity="0.6" d="M60.7118 87.3193C60.7118 87.3193 60.316 73.127 58.6866 72.5158C57.0572 71.9046 44.8189 73.6035 44.8189 73.6035L44.5156 70.3611C44.5156 70.3611 58.774 68.1545 61.5342 69.4598C64.2943 70.7651 65.2041 91.9344 64.7004 96.0108L60.7169 87.3193H60.7118Z" fill="white"/>
<path d="M45.0212 73.9205L44.168 70.3569L45.3913 69.9062L46.1674 74.0293L45.0212 73.9205Z" fill="#407BFF"/>
<path opacity="0.7" d="M45.0212 73.9205L44.168 70.3569L45.3913 69.9062L46.1674 74.0293L45.0212 73.9205Z" fill="white"/>
<path d="M60.6454 85.5488C60.6454 85.5488 59.5557 89.8687 54.2821 91.2517C49.0084 92.6346 43.1797 89.0296 43.1797 89.0296L44.3413 99.3371L50.8023 115.575L67.3017 111.24C67.3017 111.24 66.3097 92.3497 60.6505 85.5488H60.6454Z" fill="#407BFF"/>
<path opacity="0.7" d="M60.6454 85.5488C60.6454 85.5488 59.5557 89.8687 54.2821 91.2517C49.0084 92.6346 43.1797 89.0296 43.1797 89.0296L44.3413 99.3371L50.8023 115.575L67.3017 111.24C67.3017 111.24 66.3097 92.3497 60.6505 85.5488H60.6454Z" fill="white"/>
<path opacity="0.6" d="M63.5096 102.68L65.4409 102.066C65.6547 101.998 65.7734 101.769 65.706 101.553L64.5554 97.878C64.4879 97.6625 64.2598 97.5429 64.046 97.6109L62.1146 98.2249C61.9008 98.2929 61.7821 98.5227 61.8496 98.7383L63.0001 102.413C63.0676 102.629 63.2957 102.748 63.5096 102.68Z" fill="#407BFF"/>
<path opacity="0.2" d="M63.1087 101.56L65.3047 100.861L64.3567 97.8333L62.1607 98.5315L63.1087 101.56Z" fill="black"/>
<path d="M63.0361 96.7402L62.5508 96.8945L63.1091 98.6778L63.5943 98.5235L63.0361 96.7402Z" fill="#263238"/>
<path d="M49.4235 69.4141C45.3578 69.4141 42.6747 73.7546 43.6256 80.6384C44.5765 87.5274 48.3904 89.506 48.3904 89.506L48.1436 87.8485C48.1436 87.8485 54.1677 89.418 61.045 88.5737C61.045 88.5737 59.0816 82.9589 59.7189 77.225C59.7189 77.225 61.0091 69.4141 49.4235 69.4192V69.4141Z" fill="#263238"/>
<path opacity="0.2" d="M57.5005 89.8324L59.1608 96.0428L56.2412 93.8C56.2412 93.8 59.0837 100.347 59.8135 104.17C59.8135 104.17 57.3566 97.6796 55.2389 94.116L54.0002 97.6796L49.0195 92.5672C49.0195 92.5672 53.4348 89.1849 57.5005 89.8324Z" fill="black"/>
<path d="M55.0739 91.8573L50.011 92.0127C52.252 89.1121 48.1914 84.0723 48.1914 84.0723L53.1978 85.1652C54.3902 90.1532 56.4565 90.3086 56.4565 90.3086L55.0739 91.8625V91.8573Z" fill="#E4897B"/>
<path opacity="0.2" d="M54.5932 88.7502C52.2648 88.5378 50.6457 87.4035 49.5663 86.207C48.8981 84.9587 48.1836 84.0781 48.1836 84.0781L53.19 85.171C53.596 86.8544 54.0997 87.994 54.5932 88.7502Z" fill="black"/>
<path d="M53.1907 71.5277C57.5546 71.8954 58.7676 74.3661 58.7111 78.9294C58.6442 84.6271 57.0611 88.5481 51.7052 86.8802C44.427 84.6115 45.9382 70.9165 53.1907 71.5277Z" fill="#E4897B"/>
<path d="M55.9118 78.4434C55.9118 78.4434 56.4207 79.645 57.0323 80.3754C57.0323 80.3754 56.6108 80.94 55.8398 80.7742L55.9118 78.4434Z" fill="#DE5753"/>
<path d="M52.957 77.7229L53.9028 77.4121C53.9028 77.4121 53.3991 78.1683 52.957 77.7229Z" fill="#263238"/>
<path d="M53.2856 77.6132C53.2856 77.6132 52.6225 77.2817 52.2422 77.8929C52.2422 77.8929 52.6739 77.6443 53.2496 77.867L53.2856 77.6132Z" fill="#263238"/>
<path d="M51.5243 75.511C51.478 75.511 51.4317 75.4955 51.3958 75.4592C51.3238 75.3867 51.3187 75.2676 51.3958 75.1951C52.1925 74.3611 53.462 74.6253 53.5186 74.6356C53.6214 74.6564 53.6831 74.7548 53.6625 74.8584C53.6419 74.962 53.5443 75.0241 53.4415 75.0034C53.4312 75.0034 52.3158 74.7755 51.6682 75.454C51.6322 75.4903 51.5808 75.511 51.5345 75.511H51.5243Z" fill="#263238"/>
<path d="M58.3743 75.5944C58.3331 75.5944 58.292 75.5789 58.2561 75.553C57.4337 74.8952 56.7398 75.0713 56.7089 75.0816C56.6113 75.1075 56.5085 75.0506 56.4828 74.9522C56.4571 74.8537 56.5136 74.7501 56.6113 74.7242C56.6472 74.7139 57.5107 74.486 58.4873 75.2681C58.5696 75.3303 58.5799 75.4494 58.5182 75.5323C58.4822 75.5789 58.4257 75.6048 58.3743 75.6048V75.5944Z" fill="#263238"/>
<path d="M47.8037 78.5403C47.8037 78.5403 50.1424 75.0958 50.0653 72.2781C50.0653 72.2781 59.014 69.4448 58.7056 78.328C58.7056 78.328 60.2013 70.5377 52.7072 69.7349C45.2285 68.932 44.3342 79.9958 47.9373 83.6216C47.9373 83.6216 46.349 80.6951 47.7985 78.5403H47.8037Z" fill="#263238"/>
<path d="M48.4421 79.5296C48.473 78.8199 47.8459 77.5613 46.5249 77.5924C45.1577 77.6286 44.2839 80.3738 47.594 81.3269C48.0669 81.4616 48.3805 81.0109 48.4421 79.5296Z" fill="#E4897B"/>
<path d="M55.8736 82.0796C55.5035 82.5354 55.0203 83.4471 55.0203 83.4471C54.9278 83.416 54.8404 83.3901 54.7531 83.3538C53.5452 82.9239 53.1237 82.3231 53.026 81.7896C52.9746 81.4943 53.0209 81.2198 53.0826 81.0023C53.1545 80.7536 53.2676 80.5879 53.2676 80.5879C53.7765 81.1991 54.8713 81.686 55.4675 81.9242C55.7142 82.0278 55.8787 82.0745 55.8787 82.0745L55.8736 82.0796Z" fill="#263238"/>
<path d="M55.4631 81.9301L55.2009 82.3289C54.065 81.9249 53.3146 81.4847 53.0781 81.0081C53.1501 80.7595 53.2632 80.5938 53.2632 80.5938C53.772 81.205 54.8668 81.6918 55.4631 81.9301Z" fill="white"/>
<path d="M54.7466 83.3592C53.5387 82.9293 53.1172 82.3284 53.0195 81.7949C53.4256 81.9555 53.8985 82.1989 54.2686 82.5408C54.5513 82.7998 54.6849 83.095 54.7466 83.3644V83.3592Z" fill="#DE5753"/>
<path d="M53.073 71.8489C53.073 71.8489 50.7138 78.9399 46.2009 78.4686C41.6828 77.9972 49.4236 69.4145 49.4236 69.4145C49.4236 69.4145 57.036 67.2287 60.3564 71.4864C63.6717 75.7441 58.7116 78.3339 58.7116 78.3339C58.7116 78.3339 59.4518 72.7502 53.073 71.8541V71.8489Z" fill="#263238"/>
<path d="M49.4743 77.883C49.4229 77.883 49.3715 77.8519 49.356 77.8001C49.3303 77.7327 49.3663 77.6602 49.428 77.6343C53.026 76.2462 52.9438 71.3825 52.9438 71.3358C52.9438 71.2633 53.0003 71.2064 53.0671 71.2012C53.1391 71.2115 53.1956 71.2582 53.2008 71.3255C53.2008 71.3773 53.283 76.4223 49.5205 77.8726C49.5051 77.8778 49.4897 77.883 49.4743 77.883Z" fill="#263238"/>
<path d="M57.3867 78.1526L58.3325 77.8418C58.3325 77.8418 57.8288 78.598 57.3867 78.1526Z" fill="#263238"/>
<path d="M57.7153 78.0429C57.7153 78.0429 57.0522 77.7114 56.6719 78.3226C56.6719 78.3226 57.1036 78.074 57.6793 78.2967L57.7153 78.0429Z" fill="#263238"/>
<path d="M50.7209 89.916L54.5399 91.8739L54.4782 95.7794L49.0195 92.5732L50.7209 89.916Z" fill="#407BFF"/>
<path d="M55.1172 89.1797L55.3433 91.552L57.8362 94.2092L57.497 89.8323L55.1172 89.1797Z" fill="#407BFF"/>
<path d="M37.4734 62.3804L35.88 58.2263C35.88 58.2263 35.9828 57.3976 35.4637 57.0091C34.3534 56.1752 32.061 55.4189 31.4853 55.507C30.6424 55.6313 28.9153 57.1645 29.0592 58.159C29.2032 59.1535 34.1067 59.7751 34.1067 59.7751L35.731 64.3176L37.4734 62.3856V62.3804Z" fill="#E4897B"/>
<path d="M44.3353 99.3383C44.3353 99.3383 47.445 96.8676 46.1908 91.4031L42.8755 76.2991L37.1804 60.7031L34.3945 62.1224C34.3945 62.1224 39.0719 77.361 39.5037 78.3917C39.7247 78.9201 40.6036 86.8191 41.8013 92.1231C42.9012 97.0023 44.3353 99.3383 44.3353 99.3383Z" fill="#407BFF"/>
<path opacity="0.6" d="M44.3353 99.3383C44.3353 99.3383 47.445 96.8676 46.1908 91.4031L42.8755 76.2991L37.1804 60.7031L34.3945 62.1224C34.3945 62.1224 39.0719 77.361 39.5037 78.3917C39.7247 78.9201 40.6036 86.8191 41.8013 92.1231C42.9012 97.0023 44.3353 99.3383 44.3353 99.3383Z" fill="white"/>
<path d="M33.9062 61.6752L37.1599 60.0332L37.8692 61.1261L34.0656 62.8199L33.9062 61.6752Z" fill="#407BFF"/>
<path opacity="0.7" d="M33.9062 61.6752L37.1599 60.0332L37.8692 61.1261L34.0656 62.8199L33.9062 61.6752Z" fill="white"/>
<path opacity="0.6" d="M50.7209 89.916L54.5399 91.8739L54.4782 95.7794L49.0195 92.5732L50.7209 89.916Z" fill="white"/>
<path opacity="0.6" d="M55.1172 89.1797L55.3433 91.552L57.8362 94.2092L57.497 89.8323L55.1172 89.1797Z" fill="white"/>
<path d="M163.571 81.7773H148.172V93.8356H163.571V81.7773Z" fill="white"/>
<path opacity="0.1" d="M163.573 81.7773H159.625V93.8356H163.573V81.7773Z" fill="black"/>
<path d="M147.289 104.485H164.698V82.5957H159.091L147.289 88.2933V104.485Z" fill="#407BFF"/>
<path opacity="0.2" d="M164.698 82.5957H159.09V104.48H164.698V82.5957Z" fill="black"/>
<path opacity="0.7" d="M157.234 92.6035H149.082V96.5401H157.234V92.6035Z" fill="white"/>
<path opacity="0.7" d="M157.234 97.8594H149.082V98.424H157.234V97.8594Z" fill="white"/>
<path opacity="0.7" d="M164.153 99.5078H159.625V102.849H164.153V99.5078Z" fill="white"/>
<path d="M157.028 81.1191H141.629V93.8353H157.028V81.1191Z" fill="white"/>
<path opacity="0.1" d="M157.03 81.1191H153.082V93.8353H157.03V81.1191Z" fill="black"/>
<path d="M140.746 104.485H158.155V82.5957H152.548L140.746 88.2933V104.485Z" fill="#407BFF"/>
<path opacity="0.2" d="M158.155 82.5957H152.547V104.48H158.155V82.5957Z" fill="black"/>
<path opacity="0.7" d="M150.691 92.6016H142.539V96.5381H150.691V92.6016Z" fill="white"/>
<path opacity="0.7" d="M150.691 97.8594H142.539V98.424H150.691V97.8594Z" fill="white"/>
<path opacity="0.7" d="M157.61 99.5078H153.082V102.849H157.61V99.5078Z" fill="white"/>
<path d="M129.93 187.572H133.081L138.735 108.193H134.561L129.93 187.572Z" fill="#263238"/>
<path opacity="0.1" d="M129.93 187.571H133.081L138.462 112.135L138.74 108.322H134.561L134.335 112.135L129.93 187.571Z" fill="white"/>
<path opacity="0.2" d="M134.336 111.948H138.463L138.741 108.322H134.562L134.336 111.948Z" fill="black"/>
<path d="M106.823 187.572H109.973L110.487 108.193H106.309L106.823 187.572Z" fill="#263238"/>
<path opacity="0.1" d="M106.309 108.322L106.391 121.126L106.823 187.571H109.973L110.405 121.126L110.487 108.322H106.309Z" fill="white"/>
<path opacity="0.2" d="M106.309 108.322L106.391 121.271H110.405L110.487 108.322H106.309Z" fill="black"/>
<path d="M73.3906 187.572H76.5414L82.1954 108.193H78.0218L73.3906 187.572Z" fill="#263238"/>
<path opacity="0.1" d="M73.3906 187.571H76.5414L81.923 112.135L82.2006 108.322H78.0218L77.7956 112.135L73.3906 187.571Z" fill="white"/>
<path opacity="0.2" d="M77.7969 111.948H81.9243L82.2019 108.322H78.023L77.7969 111.948Z" fill="black"/>
<path d="M165.952 187.572H169.103L164.472 108.193H160.293L165.952 187.572Z" fill="#263238"/>
<path opacity="0.1" d="M160.297 108.322L160.574 112.135L165.956 187.571H169.102L164.702 112.135L164.476 108.322H160.297Z" fill="white"/>
<path opacity="0.2" d="M164.476 108.322H160.297L160.574 111.948H164.702L164.476 108.322Z" fill="black"/>
<path d="M166.675 110.182L75.8203 110.182C75.2086 110.182 74.71 109.679 74.71 109.063V106.209L167.785 106.209V109.063C167.785 109.679 167.287 110.182 166.675 110.182Z" fill="#407BFF"/>
<path opacity="0.4" d="M166.675 110.182L75.8203 110.182C75.2086 110.182 74.71 109.679 74.71 109.063V106.209L167.785 106.209V109.063C167.785 109.679 167.287 110.182 166.675 110.182Z" fill="white"/>
<path opacity="0.2" d="M74.71 108.193L167.785 108.193V106.204L74.71 106.204V108.193Z" fill="black"/>
<path d="M72.7587 106.722H169.74C170.352 106.722 170.85 106.22 170.85 105.603C170.85 104.987 170.352 104.484 169.74 104.484H72.7587C72.147 104.484 71.6484 104.987 71.6484 105.603C71.6484 106.22 72.147 106.722 72.7587 106.722Z" fill="#407BFF"/>
<path opacity="0.4" d="M72.7587 106.722H169.74C170.352 106.722 170.85 106.22 170.85 105.603C170.85 104.987 170.352 104.484 169.74 104.484H72.7587C72.147 104.484 71.6484 104.987 71.6484 105.603C71.6484 106.22 72.147 106.722 72.7587 106.722Z" fill="white"/>
<path d="M148.896 104.475V102.724H150.063L148.896 102.041H149.77L148.603 101.274H147.498V100.394H148.783L147.498 99.8756V97.9695H148.783V96.716H150.063L148.783 96.2861V95.3952H149.698L148.947 94.639L148.3 93.9863H128.439V94.8824H127.128L128.588 95.5454V96.2861H125.91V97.6639H124.723L125.91 98.2596V99.8031H126.748V100.539H128.439V102.724H127.493L128.269 103.507V104.486L148.896 104.475Z" fill="#407BFF"/>
<path opacity="0.7" d="M148.896 104.475V102.724H150.063L148.896 102.041H149.77L148.603 101.274H147.498V100.394H148.783L147.498 99.8756V97.9695H148.783V96.716H150.063L148.783 96.2861V95.3952H149.698L148.947 94.639L148.3 93.9863H128.439V94.8824H127.128L128.588 95.5454V96.2861H125.91V97.6639H124.723L125.91 98.2596V99.8031H126.748V100.539H128.439V102.724H127.493L128.269 103.507V104.486L148.896 104.475Z" fill="white"/>
<path opacity="0.1" d="M148.897 104.475V102.724H150.064L148.897 102.041H149.771L148.604 101.274H147.499V100.394H148.784L147.499 99.8756V97.9695H148.784V96.716H150.064L148.784 96.2861V95.3952H149.699L148.949 94.639L148.301 93.9863H137.841V94.8824H136.531L137.985 95.5454V96.2861H135.307V97.6639H134.125L135.307 98.2596V99.8031H136.15V100.539H137.841V102.724H136.89L137.666 103.507V104.486L148.897 104.475Z" fill="black"/>
<path opacity="0.1" d="M128.59 96.2865H137.986L128.59 95.9395V96.2865Z" fill="black"/>
<path opacity="0.1" d="M128.438 100.539H137.839L137.88 101.202L128.438 100.539Z" fill="black"/>
<path opacity="0.1" d="M126.746 99.8027H136.147L126.746 100.134V99.8027Z" fill="black"/>
<path opacity="0.1" d="M128.438 102.724H137.839L128.438 102.377V102.724Z" fill="black"/>
<path opacity="0.1" d="M128.27 103.506H137.665V103.868L128.27 103.506Z" fill="black"/>
<path opacity="0.1" d="M125.91 97.663H135.306L125.91 97.3574V97.663Z" fill="black"/>
<path opacity="0.1" d="M128.438 94.8823H137.839L128.438 94.5508V94.8823Z" fill="black"/>
<path opacity="0.1" d="M148.785 95.3945H139.25L148.785 95.6898V95.3945Z" fill="black"/>
<path opacity="0.1" d="M137.984 96.2852H148.784L138.992 96.6063L137.984 96.2852Z" fill="black"/>
<path opacity="0.1" d="M135.305 97.6641L148.782 97.9697V97.6641H135.305Z" fill="black"/>
<path opacity="0.1" d="M135.305 98.2598H141.971L135.305 98.5913V98.2598Z" fill="black"/>
<path opacity="0.1" d="M147.498 99.876L137.84 99.8035L147.498 99.5859V99.876Z" fill="black"/>
<path opacity="0.1" d="M147.497 100.395H137.664L147.497 100.721V100.395Z" fill="black"/>
<path opacity="0.1" d="M148.897 102.041H137.984V102.378L148.897 102.041Z" fill="black"/>
<path opacity="0.1" d="M148.898 102.725H140.992L148.898 102.942V102.725Z" fill="black"/>
<path d="M123.608 102.211V103.874C123.608 104.298 123.109 104.474 122.693 104.474H89.735C89.3135 104.474 88.8047 104.298 88.8047 103.874V102.211H123.613H123.608Z" fill="#263238"/>
<path opacity="0.4" d="M123.608 102.211V103.874C123.608 104.298 123.109 104.474 122.693 104.474H89.735C89.3135 104.474 88.8047 104.298 88.8047 103.874V102.211H123.613H123.608Z" fill="white"/>
<path opacity="0.2" d="M123.608 102.211V103.874C123.608 104.298 123.11 104.474 122.694 104.474H100.956C100.535 104.474 100.031 104.298 100.031 103.874V102.211H123.614H123.608Z" fill="black"/>
<path d="M129.123 84.9569L125.201 102.889C125.073 103.479 124.502 103.909 123.927 103.909H102.493C101.922 103.909 101.557 103.371 101.686 102.78L105.603 84.9828C105.736 84.3975 106.302 84.1074 106.877 84.1074H128.311C128.887 84.1074 129.247 84.3716 129.123 84.9569Z" fill="#263238"/>
<path opacity="0.4" d="M129.124 84.9569L125.202 102.889C125.073 103.479 124.503 103.909 123.927 103.909H103.223C102.647 103.909 102.288 103.371 102.411 102.78L106.333 84.9828C106.461 84.3975 107.032 84.1074 107.607 84.1074H128.311C128.887 84.1074 129.247 84.3716 129.124 84.9569Z" fill="white"/>
<path opacity="0.2" d="M118.555 94.0739C118.555 95.6122 116.92 96.8605 115.723 96.8605C114.525 96.8605 113.816 95.6122 114.155 94.079C114.494 92.5769 115.687 91.3494 116.859 91.3027C116.52 92.8359 117.249 94.079 118.442 94.079C118.468 94.079 118.55 94.079 118.55 94.079L118.555 94.0739Z" fill="black"/>
</g>
<defs>
<clipPath id="clip0_1326_38020">
<rect width="257" height="193" fill="white" transform="translate(0.5 0.736328)"/>
</clipPath>
</defs>
</svg>
