<svg width="308" height="215" viewBox="0 0 308 215" fill="none" xmlns="http://www.w3.org/2000/svg">
<path d="M156.138 214.18C109.373 214.18 67.6973 184.247 52.4258 139.683L55.9965 138.437C70.7367 181.456 110.979 210.355 156.126 210.355C214.531 210.355 262.038 162.426 262.038 103.532V101.625H294.422V105.438H265.806C264.793 165.567 215.976 214.168 156.126 214.168L156.138 214.18Z" fill="#001A4E"/>
<path d="M291.68 113.048L308.001 103.54L291.68 94.0312V113.048Z" fill="#001A4E"/>
<path d="M53.5861 4.61485C60.4928 4.61485 66.8806 5.51211 72.5765 7.26923C78.2848 9.02635 83.2517 11.5686 87.3291 14.8211C91.4188 18.0861 94.6436 22.0864 96.8923 26.7222C99.141 31.358 100.29 36.592 100.29 42.2746C100.29 46.4742 99.4993 50.2377 97.9549 53.4902C96.4104 56.7178 94.4582 59.6713 92.1477 62.2758C89.8372 64.8679 87.3291 67.2107 84.6603 69.242C81.9915 71.2733 79.4957 73.155 77.2222 74.8249C74.9488 76.5073 73.0213 78.1273 71.5016 79.6601C70.0313 81.1431 69.29 82.6509 69.29 84.1588V92.259H37.6597V78.8875C37.6597 76.6319 38.2528 74.476 39.4266 72.4696C40.588 70.5007 42.0707 68.5566 43.8499 66.6998C45.6291 64.8554 47.5318 63.0111 49.5334 61.229C51.5227 59.447 53.4254 57.5777 55.1676 55.671C56.9097 53.7644 58.3677 51.758 59.5044 49.7018C60.6411 47.6456 61.1847 45.4523 61.1847 42.9849C61.1847 41.3399 60.9252 39.7947 60.4063 38.2743C59.8874 36.754 59.1337 35.4579 58.1205 34.3239C57.1074 33.1899 55.9089 32.2926 54.4633 31.5823C53.0177 30.8844 51.4115 30.548 49.5581 30.548C47.1488 30.548 45.1719 30.9841 43.7016 31.844C42.2189 32.7039 41.0575 33.8379 40.2297 35.2087C39.4019 36.592 38.8335 38.212 38.5493 40.0065C38.2528 41.8259 38.1045 43.6952 38.1045 45.577V48.0319C38.1045 48.817 38.1663 49.6271 38.2775 50.4371L38.3269 50.8109H4.3368L4.31209 50.5118C4.18854 49.328 4.07733 48.1815 3.95378 47.0724C3.83022 45.9757 3.7808 44.8043 3.7808 43.608C3.7808 37.6263 5.04107 32.168 7.53689 27.3827C10.0327 22.5973 13.5293 18.46 17.9403 15.0828C22.3512 11.7056 27.6517 9.08866 33.7183 7.30661C39.7602 5.52457 46.4569 4.61485 53.5984 4.61485M53.5984 0.801527C46.0986 0.801527 39.0559 1.76109 32.6557 3.64283C26.1567 5.56195 20.4361 8.39079 15.6545 12.0421C10.7988 15.7557 6.93147 20.3168 4.18854 25.6006C1.40854 30.9467 0 36.9907 0 43.5955C0 44.9414 0.0617799 46.2499 0.197691 47.4711C0.308891 48.5678 0.432445 49.7018 0.543645 50.8857L0.914313 54.6118H42.7379L42.0583 49.8763C41.9718 49.2407 41.9224 48.6176 41.9224 48.007V45.552C41.9224 43.8697 42.0583 42.1998 42.3178 40.5798C42.5278 39.2713 42.9232 38.1123 43.5039 37.1527C43.9981 36.3303 44.69 35.6573 45.6291 35.1215C46.5063 34.6105 47.8778 34.3364 49.5952 34.3364C50.8678 34.3364 51.9428 34.5482 52.8694 34.9968C53.8702 35.4829 54.6733 36.081 55.3529 36.8412C56.0201 37.6014 56.5267 38.4612 56.8726 39.4956C57.2557 40.6171 57.441 41.7512 57.441 42.96C57.441 44.7545 57.0456 46.3496 56.2301 47.8201C55.2417 49.6146 53.9567 51.3717 52.4123 53.0541C50.7443 54.8735 48.9404 56.6555 47.05 58.3379C44.9866 60.1822 42.9973 62.0889 41.1564 64.008C39.1671 66.0767 37.4991 68.2575 36.1894 70.5006C34.6697 73.1052 33.8913 75.9091 33.8913 78.8625V96.0474H73.0831V84.1339C73.0831 83.6853 73.4785 83.0373 74.1828 82.3269C75.5666 80.9312 77.3334 79.4358 79.4586 77.8781C81.7814 76.1708 84.2773 74.3015 86.9461 72.2578C89.8002 70.0894 92.4937 67.5721 94.9648 64.7931C97.5101 61.9269 99.6599 58.6744 101.365 55.1227C103.157 51.3592 104.071 47.0225 104.071 42.2496C104.071 35.9813 102.798 30.1866 100.29 25.0274C97.7819 19.8806 94.2111 15.4317 89.6766 11.8178C85.2163 8.26617 79.8416 5.51211 73.6762 3.60544C67.622 1.73617 60.8511 0.789062 53.5737 0.789062L53.5984 0.801527Z" fill="#001A4E"/>
<path d="M69.7453 106.759V136.904H37.7691V106.759H69.7453ZM73.5261 102.945H33.9883V140.717H73.5261V102.945Z" fill="#001A4E"/>
</svg>
