<svg width="33" height="32" viewBox="0 0 33 32" fill="none" xmlns="http://www.w3.org/2000/svg">
<g clip-path="url(#clip0_409_15017)">
<path d="M16.4994 28.3524C23.3218 28.3524 28.8524 22.8218 28.8524 15.9994C28.8524 9.17708 23.3218 3.64648 16.4994 3.64648C9.67708 3.64648 4.14648 9.17708 4.14648 15.9994C4.14648 22.8218 9.67708 28.3524 16.4994 28.3524Z" fill="#3918A4"/>
<path d="M16.4991 31.7638C25.2057 31.7638 32.2638 24.7057 32.2638 15.9991C32.2638 7.29247 25.2057 0.234375 16.4991 0.234375C7.79247 0.234375 0.734375 7.29247 0.734375 15.9991C0.734375 24.7057 7.79247 31.7638 16.4991 31.7638Z" stroke="#3E4357" stroke-miterlimit="10"/>
<path d="M30.3834 16.761C30.8045 16.761 31.1458 16.4197 31.1458 15.9987C31.1458 15.5776 30.8045 15.2363 30.3834 15.2363C29.9624 15.2363 29.6211 15.5776 29.6211 15.9987C29.6211 16.4197 29.9624 16.761 30.3834 16.761Z" fill="#3E4357"/>
<path d="M2.61782 16.761C3.03886 16.761 3.38017 16.4197 3.38017 15.9987C3.38017 15.5776 3.03886 15.2363 2.61782 15.2363C2.19679 15.2363 1.85547 15.5776 1.85547 15.9987C1.85547 16.4197 2.19679 16.761 2.61782 16.761Z" fill="#3E4357"/>
<path d="M22.6357 18.6398C22.5557 18.5175 22.0239 18.2587 22.0239 18.2587C21.8122 18.1551 20.2545 17.3928 19.9628 17.2845C19.7133 17.1951 19.4263 17.0916 19.1722 17.4728C18.9792 17.7598 18.4145 18.4187 18.2263 18.6257C18.0992 18.7716 17.9769 18.8187 17.6898 18.6775C17.6428 18.654 16.2545 18.061 15.2992 17.214C14.4522 16.4657 13.8639 15.5387 13.6475 15.1763C13.5157 14.9551 13.6004 14.8516 13.7651 14.6869C13.8639 14.5881 14.3063 14.0563 14.3392 14.0092C14.4098 13.901 14.5322 13.6469 14.5322 13.6469C14.6592 13.3975 14.5792 13.181 14.5086 13.0351C14.4569 12.9363 13.6616 11.0116 13.5816 10.8328C13.3557 10.2916 13.111 10.2634 12.8804 10.2728C12.7675 10.2822 11.7086 10.2869 11.3745 10.654L11.3133 10.7151C10.9839 11.0634 10.2969 11.7928 10.2969 13.1998C10.2969 13.5245 10.3486 13.8634 10.4569 14.2398C10.6545 14.9175 11.0357 15.661 11.5439 16.3387C11.5533 16.3528 12.3298 17.4257 12.7157 17.8728C13.9392 19.2798 15.3181 20.3198 16.711 20.8657C18.4898 21.5622 19.2522 21.7222 19.6851 21.7222C19.8733 21.7222 20.2733 21.6281 20.3581 21.6187C20.9039 21.5716 22.1933 20.8987 22.4663 20.141C22.7251 19.4257 22.7298 18.7998 22.631 18.6398H22.6357Z" fill="white"/>
</g>
<defs>
<clipPath id="clip0_409_15017">
<rect width="32" height="32" fill="white" transform="translate(0.5)"/>
</clipPath>
</defs>
</svg>
