<svg width="128" height="126" viewBox="0 0 128 126" fill="none" xmlns="http://www.w3.org/2000/svg">
<g clip-path="url(#clip0_1153_84407)">
<path d="M112.046 107.192C109.499 109.863 107.088 111.586 105.184 112.947C82.8 128.944 56.3137 124.281 50.6849 123.142C42.3725 121.46 26.3047 118.21 14.688 104.603C-2.88738 84.0165 -0.150461 51.5837 13.4817 30.174C15.9756 26.2581 29.1474 4.52222 55.9188 1.03652C72.1207 -1.07308 91.0067 3.18167 104.684 14.595C133.393 38.5526 131.349 86.9505 112.045 107.192H112.046Z" fill="url(#paint0_linear_1153_84407)"/>
<path d="M2.15234 121.826H56.3083V111.029H2.15234C3.31162 111.029 3.31162 121.826 2.15234 121.826Z" fill="#BDD0FB"/>
<path d="M56.3072 119.124V114.183C56.3072 112.441 55.2369 111.029 53.9168 111.029H2.37988C1.34168 111.029 0.5 110.191 0.5 109.157C0.5 108.843 0.75571 108.588 1.07106 108.588H57.3969C58.6886 108.588 60.7397 110.611 60.7397 113.106V120.007C60.7397 122.359 58.7487 124.267 57.5307 124.267H1.36743C0.888535 124.267 0.5 123.88 0.5 123.403C0.5 122.532 1.20885 121.826 2.08351 121.826H54.2593C55.3901 121.826 56.3072 120.616 56.3072 119.124Z" fill="url(#paint1_linear_1153_84407)"/>
<path d="M54.8066 113.397H4.02816C3.94322 113.397 3.875 113.329 3.875 113.244C3.875 113.16 3.94367 113.092 4.02816 113.092H54.8066C54.8915 113.092 54.9597 113.16 54.9597 113.244C54.9597 113.329 54.891 113.397 54.8066 113.397Z" fill="url(#paint2_linear_1153_84407)"/>
<path d="M54.8066 115H4.02816C3.94322 115 3.875 114.932 3.875 114.848C3.875 114.764 3.94367 114.695 4.02816 114.695H54.8066C54.8915 114.695 54.9597 114.764 54.9597 114.848C54.9597 114.932 54.891 115 54.8066 115Z" fill="url(#paint3_linear_1153_84407)"/>
<path d="M54.8066 116.602H4.02816C3.94322 116.602 3.875 116.534 3.875 116.449C3.875 116.365 3.94367 116.297 4.02816 116.297H54.8066C54.8915 116.297 54.9597 116.365 54.9597 116.449C54.9597 116.534 54.891 116.602 54.8066 116.602Z" fill="url(#paint4_linear_1153_84407)"/>
<path d="M54.8066 118.204H4.02816C3.94322 118.204 3.875 118.135 3.875 118.051C3.875 117.967 3.94367 117.898 4.02816 117.898H54.8066C54.8915 117.898 54.9597 117.967 54.9597 118.051C54.9597 118.135 54.891 118.204 54.8066 118.204Z" fill="url(#paint5_linear_1153_84407)"/>
<path d="M54.8066 119.807H4.02816C3.94322 119.807 3.875 119.739 3.875 119.654C3.875 119.57 3.94367 119.502 4.02816 119.502H54.8066C54.8915 119.502 54.9597 119.57 54.9597 119.654C54.9597 119.739 54.891 119.807 54.8066 119.807Z" fill="url(#paint6_linear_1153_84407)"/>
<path d="M9.57817 96.7285H53.2541C54.955 96.7285 56.3361 98.1042 56.3361 99.7984V105.642C56.3361 107.336 54.955 108.712 53.2541 108.712H9.57817C7.8772 108.712 6.49609 107.336 6.49609 105.642V99.7984C6.49609 98.1042 7.8772 96.7285 9.57817 96.7285Z" fill="#7D97F4"/>
<path d="M45.1751 107.334H50.376C50.5567 107.334 50.7031 107.188 50.7031 107.008V98.4312C50.7031 98.2513 50.5567 98.1054 50.376 98.1054H45.1751C44.9944 98.1054 44.848 98.2513 44.848 98.4312V107.008C44.848 107.188 44.9944 107.334 45.1751 107.334Z" fill="url(#paint7_linear_1153_84407)"/>
<path d="M43.8225 107.334H41.9571C41.8653 107.334 41.7912 107.26 41.7912 107.169V98.2705C41.7912 98.1792 41.8653 98.1054 41.9571 98.1054H43.8225C43.9142 98.1054 43.9883 98.1792 43.9883 98.2705V107.169C43.9883 107.26 43.9142 107.334 43.8225 107.334Z" fill="url(#paint8_linear_1153_84407)"/>
<path d="M51.9796 66.6252C51.9796 66.6252 39.7597 24.0305 17.4592 1.50482C15.9601 -0.00943154 13.3741 0.718219 12.9047 2.79272C9.76796 16.6653 4.4509 58.5536 51.9792 66.6252H51.9796Z" fill="#BDD0FB"/>
<path d="M47.5466 64.0456C47.6568 64.1437 47.5245 64.3125 47.402 64.2301C42.8873 61.1949 25.2763 46.0717 17.5887 14.6847C17.5639 14.5839 17.7125 14.5384 17.7459 14.6365C20.2028 21.8815 30.1109 48.5571 47.5466 64.0456Z" fill="url(#paint9_linear_1153_84407)"/>
<path d="M61.7342 98.4061C61.7342 98.4061 37.7846 50.0167 6.14116 27.8605C4.01415 26.371 1.07438 27.8038 0.965956 30.3913C0.239033 47.6938 3.02067 99.0383 61.7342 98.4065V98.4061Z" fill="#91B3FA"/>
<path d="M55.8558 96.2767C56.0094 96.3703 55.8879 96.6011 55.723 96.5291C49.6496 93.871 25.2433 79.5677 9.17375 43.6253C9.12225 43.5097 9.28986 43.4228 9.35131 43.5335C13.8782 51.6821 31.5796 81.4973 55.8558 96.2767Z" fill="#BDD0FB"/>
<path d="M20.3361 8.59398C20.3198 7.13778 21.5997 6.00423 23.0495 6.19233C32.6649 7.44063 65.7274 11.2832 93.0351 9.05298C94.2802 8.95128 95.3663 9.88593 95.4395 11.1284L101.418 113.163C101.5 114.562 100.434 115.764 99.0298 115.854C87.5437 116.591 40.2395 119.454 23.3527 117.781C22.3249 117.679 21.5406 116.822 21.5293 115.793L20.3361 8.59398Z" fill="#7D97F4"/>
<path d="M21.4806 11.1454C21.4648 9.7441 22.6968 8.65285 24.0919 8.8342C33.3454 10.0352 65.1628 13.7333 91.4423 11.5868C92.6409 11.4887 93.6858 12.3883 93.7559 13.5839L99.5098 111.776C99.5889 113.123 98.5624 114.28 97.2111 114.366C86.1577 115.076 40.6345 117.831 24.3838 116.221C23.3948 116.123 22.6399 115.298 22.6291 114.308L21.4806 11.1454Z" fill="#BDD0FB"/>
<path opacity="0.78" d="M30.0801 18.6742L31.172 39.7265C31.2082 40.4267 31.7792 40.9807 32.4831 40.9969C36.3992 41.0864 48.6005 41.3195 55.4876 40.9262C56.2664 40.8817 56.88 40.2508 56.9016 39.4736C57.0123 35.524 57.2396 24.0287 56.3112 19.2286C56.1612 18.4532 55.4885 17.888 54.696 17.8646L31.5497 17.1784C30.7153 17.1536 30.0371 17.8439 30.0801 18.6746V18.6742Z" fill="white"/>
<path d="M47.9668 26.4756C48.1576 23.9829 46.2835 21.8081 43.7809 21.618C41.2783 21.428 39.0949 23.2946 38.9041 25.7873C38.7133 28.28 40.5873 30.4548 43.0899 30.6449C45.5925 30.835 47.776 28.9683 47.9668 26.4756Z" fill="url(#paint10_linear_1153_84407)"/>
<path d="M36.6013 39.4595L51.0797 39.3844C51.9674 39.3799 52.4942 38.4007 52.0121 37.6582C50.7724 35.7479 48.1846 32.9453 43.7291 33.0956C39.4349 33.2405 36.9026 35.797 35.6322 37.628C35.0932 38.4052 35.6525 39.4645 36.6008 39.4595H36.6013Z" fill="url(#paint11_linear_1153_84407)"/>
<g opacity="0.6">
<path d="M88.0908 20.2059C88.4888 20.2037 88.8033 19.8842 88.7902 19.4958C88.7766 19.1075 88.44 18.7853 88.042 18.7803L62.461 18.459C62.063 18.4541 61.8471 18.7551 61.9812 19.1286L62.1723 19.6605C62.3065 20.0336 62.742 20.3373 63.1401 20.3355L88.0908 20.2064V20.2059Z" fill="white"/>
</g>
<g opacity="0.6">
<path d="M62.4806 22.3848C62.0825 22.3799 61.8666 22.6809 62.0008 23.0544L62.1919 23.5863C62.3261 23.9594 62.7616 24.2631 63.1596 24.2613L88.1103 24.1322C88.5084 24.1299 88.8228 23.8104 88.8097 23.4221C88.7966 23.0337 88.4596 22.7115 88.0616 22.7066L62.4806 22.3853V22.3848Z" fill="white"/>
</g>
<g opacity="0.6">
<path d="M62.5001 26.3672C62.1021 26.3623 61.8861 26.6633 62.0203 27.0368L62.2114 27.5687C62.3456 27.9418 62.7811 28.2455 63.1791 28.2437L88.1299 28.1146C88.5279 28.1123 88.8423 27.7928 88.8292 27.4045C88.8161 27.0161 88.4791 26.6939 88.0811 26.689L62.5001 26.3677V26.3672Z" fill="white"/>
</g>
<g opacity="0.6">
<path d="M90.696 47.3082C91.094 47.3059 91.3967 46.9869 91.3692 46.5981C91.3412 46.2097 90.9928 45.8911 90.5948 45.8898L30.9388 45.7305C30.5408 45.7296 30.4193 45.9811 30.6687 46.2903L31.284 47.0517C31.5334 47.3604 32.0633 47.6115 32.4613 47.6097L90.6956 47.3077L90.696 47.3082Z" fill="white"/>
</g>
<g opacity="0.6">
<path d="M30.9584 49.6567C30.5603 49.6558 30.4388 49.9074 30.6882 50.2165L31.3035 50.9779C31.5529 51.2866 32.0829 51.5377 32.4809 51.5359L90.7151 51.234C91.1131 51.2317 91.4158 50.9127 91.3882 50.5239C91.3607 50.1355 91.0119 49.8169 90.6139 49.8156L30.9579 49.6562L30.9584 49.6567Z" fill="white"/>
</g>
<path opacity="0.6" d="M30.8248 56.2134C32.2538 56.0968 34.9302 56.0325 36.4039 56.0041C37.0283 55.9924 37.5781 56.4105 37.7276 57.0144C38.0181 58.1871 38.4211 60.2242 38.3832 62.3851C38.3719 63.0322 37.8424 63.5515 37.1927 63.5479L31.7546 63.5178C31.086 63.5142 30.528 63.0079 30.4625 62.3451L29.9578 57.2524C29.9054 56.7255 30.2958 56.257 30.8253 56.2138L30.8248 56.2134Z" fill="white"/>
<g opacity="0.6">
<path d="M40.7925 58.2485C40.3949 58.2341 40.1193 58.5428 40.1803 58.9343L40.3475 60.0053C40.4085 60.3973 40.7844 60.7159 41.1824 60.7136L54.59 60.6443C54.988 60.6421 55.3079 60.3163 55.3011 59.9198L55.2935 59.4968C55.2862 59.1004 54.9551 58.7642 54.5575 58.7498L40.792 58.2481L40.7925 58.2485Z" fill="white"/>
</g>
<path opacity="0.6" d="M60.4498 56.0591C61.8788 55.9425 64.5552 55.8782 66.0289 55.8498C66.6533 55.8381 67.2031 56.2562 67.3526 56.8601C67.6431 58.0328 68.0461 60.07 68.0082 62.2309C67.9969 62.878 67.4674 63.3972 66.8177 63.3936L61.3796 63.3635C60.711 63.3599 60.153 62.8537 60.0875 62.1908L59.5828 57.0981C59.5304 56.5712 59.9208 56.1028 60.4503 56.0596L60.4498 56.0591Z" fill="white"/>
<g opacity="0.6">
<path d="M70.4175 58.0962C70.0199 58.0818 69.7443 58.3905 69.8053 58.782L69.9725 59.853C70.0335 60.2449 70.4094 60.5635 70.8074 60.5613L84.215 60.492C84.613 60.4897 84.9329 60.1639 84.9261 59.7675L84.9185 59.3445C84.9112 58.948 84.5801 58.6119 84.1825 58.5975L70.417 58.0957L70.4175 58.0962Z" fill="white"/>
</g>
<path d="M38.6051 76.3888C38.6006 76.3888 38.5961 76.3888 38.5916 76.3888L33.5736 76.3667C32.8566 76.3636 32.2625 75.8753 32.1911 75.2314L31.7281 71.0405C31.701 70.7944 31.7764 70.5509 31.9404 70.3543C32.1243 70.1342 32.4035 69.9952 32.7062 69.9727C33.1286 69.9416 33.724 69.8881 34.3538 69.8314C35.6803 69.7117 37.3311 69.5632 38.2604 69.547C38.9345 69.5402 39.5087 69.9344 39.6704 70.5185C39.937 71.4797 39.9234 73.3022 39.8837 75.2435C39.871 75.874 39.2986 76.3852 38.6047 76.3888H38.6051ZM32.7346 70.3552C32.5354 70.3696 32.3542 70.4587 32.2368 70.5991C32.1401 70.7147 32.0954 70.8565 32.1112 70.9978L32.5743 75.1886C32.624 75.6391 33.0545 75.9802 33.5754 75.9824L38.5934 76.0045C38.5966 76.0045 38.6002 76.0045 38.6033 76.0045C39.0895 76.0018 39.4902 75.6589 39.4992 75.235C39.5381 73.3229 39.5521 71.5315 39.2995 70.6198C39.1861 70.2112 38.7574 69.929 38.2677 69.9299C37.3523 69.9461 35.7092 70.0942 34.3891 70.213C33.7575 70.2697 33.1607 70.3237 32.7351 70.3547L32.7346 70.3552Z" fill="white"/>
<path opacity="0.6" d="M33.276 70.7852C34.3295 70.7078 36.6196 70.4644 37.7062 70.4455C38.1666 70.4374 38.5718 70.7123 38.682 71.1092C38.8957 71.8805 38.8759 73.42 38.8469 74.8411C38.8384 75.2668 38.4476 75.6083 37.9687 75.6061L33.9586 75.5885C33.4657 75.5863 33.0542 75.2537 33.0063 74.8177L32.6363 71.4683C32.5978 71.1218 32.8856 70.8136 33.2764 70.7848L33.276 70.7852Z" fill="white"/>
<g opacity="0.6">
<path d="M42.9963 73.5822C43.1445 74.1303 43.6468 74.5083 44.2165 74.5002L90.6402 73.8652C91.1652 73.858 91.5831 73.4247 91.5691 72.9013C91.5551 72.3928 91.1372 71.9878 90.6266 71.9883L44.1989 72.018C43.3794 72.0184 42.7835 72.7933 42.9967 73.5817L42.9963 73.5822Z" fill="white"/>
</g>
<path d="M38.6598 87.1011C38.6553 87.1011 38.6508 87.1011 38.6463 87.1011L33.6283 87.0791C32.9113 87.0759 32.3172 86.5877 32.2458 85.9437L31.7828 81.7529C31.7556 81.5067 31.8311 81.2633 31.9951 81.0666C32.179 80.8466 32.4582 80.7075 32.7609 80.6855C33.1833 80.6544 33.7783 80.6009 34.4085 80.5442C35.735 80.4245 37.3858 80.276 38.3151 80.2598C38.3219 80.2598 38.3287 80.2598 38.3354 80.2598C38.9955 80.2562 39.5652 80.6535 39.7256 81.2318C39.9921 82.193 39.9786 84.0155 39.9388 85.9568C39.9262 86.5872 39.3538 87.0984 38.6598 87.102V87.1011ZM32.7893 81.0675C32.5901 81.0819 32.4089 81.171 32.2915 81.3114C32.1948 81.4271 32.1501 81.5688 32.1659 81.7101L32.6289 85.901C32.6786 86.3514 33.1092 86.6925 33.6301 86.6948L38.6481 86.7168C38.6512 86.7168 38.6549 86.7168 38.658 86.7168C39.1441 86.7141 39.5449 86.3708 39.5539 85.9473C39.5928 84.0353 39.6068 82.2438 39.3542 81.3321C39.2408 80.924 38.8062 80.6319 38.3223 80.6423C37.407 80.6585 35.7639 80.8065 34.4438 80.9253C33.8122 80.982 33.2154 81.036 32.7898 81.0671L32.7893 81.0675Z" fill="white"/>
<path opacity="0.6" d="M33.3307 81.4981C34.3842 81.4207 36.6743 81.1773 37.7609 81.1584C38.2212 81.1503 38.6265 81.4252 38.7367 81.8221C38.9504 82.5934 38.9305 84.1329 38.9016 85.554C38.893 85.9797 38.5022 86.3212 38.0234 86.319L34.0133 86.3014C33.5204 86.2992 33.1088 85.9666 33.0609 85.5306L32.6909 82.1812C32.6525 81.8347 32.9403 81.5265 33.3311 81.4977L33.3307 81.4981Z" fill="white"/>
<g opacity="0.6">
<path d="M43.0549 84.2931C43.203 84.8412 43.7054 85.2192 44.2751 85.2111L90.6988 84.5762C91.2238 84.569 91.6417 84.1356 91.6277 83.6123C91.6136 83.1038 91.1957 82.6988 90.6852 82.6992L44.2575 82.7289C43.438 82.7294 42.8421 83.5043 43.0553 84.2927L43.0549 84.2931Z" fill="white"/>
</g>
<path d="M38.7184 97.811C38.7139 97.811 38.7094 97.811 38.7049 97.811L33.6869 97.789C32.9699 97.7858 32.3758 97.298 32.3044 96.6536L31.8413 92.4628C31.8142 92.2166 31.8897 91.9727 32.0537 91.7761C32.2376 91.556 32.5163 91.417 32.8195 91.3945C33.2419 91.3634 33.8369 91.3099 34.4671 91.2532C35.7936 91.1335 37.4444 90.985 38.3737 90.9688C38.3805 90.9688 38.3873 90.9688 38.394 90.9688C39.0541 90.9652 39.6238 91.3625 39.7842 91.9408C40.0507 92.902 40.0372 94.7245 39.9974 96.6658C39.9848 97.2962 39.4124 97.8074 38.7184 97.811ZM32.8479 91.7774C32.6487 91.7918 32.4675 91.8809 32.3501 92.0213C32.2534 92.137 32.2086 92.2787 32.2245 92.4205L32.6875 96.6113C32.7372 97.0618 33.1678 97.4029 33.6887 97.4051L38.7067 97.4272C38.7098 97.4272 38.7135 97.4272 38.7166 97.4272C39.2027 97.4245 39.6035 97.0811 39.6125 96.6577C39.6514 94.7456 39.6654 92.9542 39.4128 92.0425C39.2994 91.6343 38.8648 91.3409 38.3809 91.3526C37.4656 91.3688 35.8225 91.5169 34.5024 91.6357C33.8708 91.6924 33.274 91.7464 32.8484 91.7774H32.8479Z" fill="white"/>
<path opacity="0.6" d="M33.3893 92.2091C34.4428 92.1317 36.7329 91.8882 37.8195 91.8693C38.2798 91.8612 38.6851 92.1362 38.7953 92.5331C39.009 93.3044 38.9891 94.8438 38.9602 96.2649C38.9516 96.6906 38.5608 97.0322 38.082 97.0299L34.0719 97.0124C33.579 97.0101 33.1674 96.6776 33.1195 96.2415L32.7495 92.8922C32.7111 92.5457 32.9989 92.2374 33.3897 92.2086L33.3893 92.2091Z" fill="white"/>
<g opacity="0.6">
<path d="M43.1095 95.0041C43.2577 95.5522 43.7601 95.9302 44.3298 95.9221L90.7535 95.2871C91.2785 95.2799 91.6963 94.8466 91.6823 94.3232C91.6683 93.8147 91.2504 93.4097 90.7399 93.4102L44.3122 93.4399C43.4927 93.4403 42.8968 94.2152 43.11 95.0036L43.1095 95.0041Z" fill="white"/>
</g>
<path d="M38.7731 108.524C38.7686 108.524 38.7641 108.524 38.7596 108.524L33.7416 108.502C33.0246 108.499 32.4305 108.011 32.3591 107.367L31.896 103.176C31.8689 102.93 31.9444 102.686 32.1084 102.489C32.2922 102.269 32.571 102.13 32.8741 102.107C33.2966 102.076 33.892 102.023 34.5218 101.966C35.8482 101.846 37.4991 101.698 38.4284 101.682C38.4352 101.682 38.4419 101.682 38.4487 101.682C39.1088 101.678 39.6785 102.075 39.8389 102.654C40.1054 103.615 40.0919 105.437 40.0521 107.379C40.0395 108.009 39.467 108.52 38.7731 108.524ZM32.9026 102.49C32.7034 102.505 32.5222 102.594 32.4047 102.734C32.3081 102.85 32.2633 102.992 32.2791 103.133L32.7422 107.324C32.7919 107.775 33.2225 108.116 33.7434 108.118L38.7614 108.14C38.7645 108.14 38.7681 108.14 38.7713 108.14C39.2574 108.137 39.6582 107.794 39.6672 107.371C39.706 105.459 39.72 103.667 39.4675 102.755C39.3541 102.347 38.9195 102.052 38.4356 102.066C37.5203 102.082 35.8772 102.23 34.557 102.349C33.9254 102.405 33.3286 102.459 32.9031 102.49H32.9026Z" fill="white"/>
<path opacity="0.6" d="M33.4439 102.92C34.4975 102.843 36.7876 102.599 37.8742 102.58C38.3345 102.572 38.7398 102.847 38.85 103.244C39.0637 104.015 39.0438 105.555 39.0149 106.976C39.0063 107.402 38.6155 107.743 38.1366 107.741L34.1266 107.723C33.6337 107.721 33.2221 107.388 33.1742 106.952L32.8042 103.603C32.7658 103.257 33.0536 102.948 33.4444 102.92L33.4439 102.92Z" fill="white"/>
<g opacity="0.6">
<path d="M43.1642 105.717C43.3124 106.265 43.8148 106.643 44.3845 106.635L90.8082 106C91.3331 105.993 91.751 105.559 91.737 105.036C91.723 104.528 91.3051 104.123 90.7946 104.123L44.3669 104.153C43.5474 104.153 42.9514 104.928 43.1647 105.716L43.1642 105.717Z" fill="white"/>
</g>
<path d="M33.6635 103.576C34.0349 103.356 34.5151 103.484 34.7275 103.859L35.7264 105.621C35.8262 105.797 36.0855 105.785 36.1678 105.6L38.5939 100.143C38.7149 99.8711 39.1215 99.9611 39.1184 100.259C39.1021 101.924 38.6752 105.091 36.0178 107.754C36.0178 107.754 34.5427 107.192 33.3441 104.606C33.1711 104.232 33.308 103.787 33.6635 103.577V103.576Z" fill="url(#paint12_linear_1153_84407)"/>
<path d="M26.3986 14.9494C26.3823 13.4932 27.6622 12.3597 29.112 12.5478C38.7274 13.7961 71.7899 17.6386 99.0976 15.4084C100.343 15.3067 101.429 16.2414 101.502 17.4838L107.481 119.518C107.563 120.917 106.496 122.12 105.092 122.21C93.6062 122.946 46.302 125.81 29.4152 124.137C28.3874 124.035 27.6031 123.177 27.5918 122.148L26.3986 14.9494Z" fill="#7D97F4"/>
<path d="M27.5431 17.5009C27.5273 16.0996 28.7593 15.0083 30.1544 15.1897C39.4079 16.3907 71.2253 20.0888 97.5048 17.9423C98.7034 17.8442 99.7483 18.7438 99.8184 19.9394L105.572 118.132C105.651 119.478 104.625 120.635 103.274 120.722C92.2202 121.431 46.697 124.186 30.4463 122.576C29.4573 122.478 28.7024 121.653 28.6916 120.663L27.5431 17.5013V17.5009Z" fill="#BDD0FB"/>
<path d="M44.3161 78.566C44.3116 78.566 44.307 78.566 44.3025 78.566L39.2845 78.544C38.5676 78.5408 37.9735 78.0526 37.9021 77.4086L37.439 73.2178C37.4119 72.9716 37.4873 72.7282 37.6513 72.5315C37.8352 72.3115 38.1144 72.1724 38.4171 72.1504C38.8395 72.1193 39.435 72.0658 40.0648 72.0091C41.3912 71.8894 43.042 71.7409 43.9714 71.7247C44.6454 71.7179 45.2196 72.1121 45.3814 72.6962C45.6479 73.6574 45.6344 75.4799 45.5946 77.4212C45.582 78.0517 45.0096 78.5629 44.3156 78.5665L44.3161 78.566ZM38.4456 72.5324C38.2463 72.5468 38.0652 72.6359 37.9477 72.7763C37.851 72.892 37.8063 73.0337 37.8221 73.175L38.2852 77.3659C38.3349 77.8163 38.7654 78.1574 39.2864 78.1597L44.3043 78.1817C44.3075 78.1817 44.3111 78.1817 44.3143 78.1817C44.8004 78.179 45.2011 77.8357 45.2102 77.4122C45.249 75.5002 45.263 73.7087 45.0105 72.797C44.8971 72.3884 44.4683 72.1063 43.9786 72.1072C43.0633 72.1234 41.4201 72.2714 40.1 72.3902C39.4684 72.4469 38.8716 72.5009 38.446 72.532L38.4456 72.5324Z" fill="white"/>
<path opacity="0.6" d="M38.9869 72.963C40.0405 72.8856 42.3306 72.6421 43.4171 72.6232C43.8775 72.6151 44.2827 72.8901 44.393 73.287C44.6067 74.0583 44.5868 75.5977 44.5579 77.0188C44.5493 77.4445 44.1585 77.7861 43.6796 77.7838L39.6696 77.7663C39.1767 77.764 38.7651 77.4315 38.7172 76.9954L38.3472 73.6461C38.3088 73.2996 38.5966 72.9913 38.9874 72.9625L38.9869 72.963Z" fill="white"/>
<g opacity="0.6">
<path d="M48.7072 75.7599C48.8554 76.308 49.3578 76.686 49.9275 76.6779L96.3511 76.043C96.8761 76.0358 97.294 75.6024 97.28 75.0791C97.266 74.5706 96.8481 74.1656 96.3376 74.166L49.9099 74.1957C49.0903 74.1962 48.4944 74.9711 48.7077 75.7595L48.7072 75.7599Z" fill="white"/>
</g>
<path d="M44.3708 91.0196C44.3662 91.0196 44.3617 91.0196 44.3572 91.0196L39.3392 90.9975C38.6222 90.9944 38.0281 90.5061 37.9568 89.8622L37.4937 85.6713C37.4666 85.4252 37.542 85.1817 37.706 84.9851C37.8899 84.765 38.1691 84.626 38.4718 84.6035C38.8942 84.5724 39.4892 84.5189 40.1195 84.4622C41.4459 84.3425 43.0967 84.194 44.0261 84.1778C44.0328 84.1778 44.0396 84.1778 44.0464 84.1778C44.7064 84.1742 45.2761 84.5715 45.4365 85.1498C45.7031 86.111 45.6895 87.9335 45.6498 89.8748C45.6371 90.5052 45.0647 91.0164 44.3708 91.02V91.0196ZM38.5003 84.986C38.301 85.0004 38.1199 85.0895 38.0024 85.2299C37.9057 85.3455 37.861 85.4873 37.8768 85.6286L38.3399 89.8194C38.3896 90.2699 38.8201 90.611 39.341 90.6132L44.359 90.6353C44.3622 90.6353 44.3658 90.6353 44.369 90.6353C44.8551 90.6326 45.2558 90.2892 45.2648 89.8658C45.3037 87.9537 45.3177 86.1623 45.0652 85.2506C44.9518 84.8424 44.5171 84.5504 44.0333 84.5607C43.118 84.5769 41.4748 84.725 40.1547 84.8438C39.5231 84.9005 38.9263 84.9545 38.5007 84.9855L38.5003 84.986Z" fill="white"/>
<path opacity="0.6" d="M39.0416 85.4161C40.0952 85.3387 42.3853 85.0952 43.4718 85.0763C43.9322 85.0682 44.3374 85.3432 44.4477 85.7401C44.6614 86.5114 44.6415 88.0508 44.6126 89.4719C44.604 89.8976 44.2132 90.2392 43.7343 90.2369L39.7243 90.2194C39.2314 90.2171 38.8202 89.8846 38.7719 89.4485L38.4019 86.0992C38.3635 85.7527 38.6513 85.4444 39.0421 85.4156L39.0416 85.4161Z" fill="white"/>
<g opacity="0.6">
<path d="M48.7658 88.2111C48.914 88.7592 49.4164 89.1372 49.9861 89.1291L96.4097 88.4941C96.9347 88.4869 97.3526 88.0536 97.3386 87.5302C97.3246 87.0217 96.9067 86.6167 96.3962 86.6172L49.9685 86.6469C49.1489 86.6473 48.553 87.4222 48.7663 88.2106L48.7658 88.2111Z" fill="white"/>
</g>
<path d="M44.4294 103.993C44.4248 103.993 44.4203 103.993 44.4158 103.993L39.3978 103.971C38.6808 103.967 38.0867 103.48 38.0154 102.835L37.5523 98.6444C37.5252 98.3983 37.6006 98.1544 37.7651 97.9577C37.9489 97.7377 38.2277 97.5986 38.5308 97.5761C38.9533 97.5451 39.5483 97.4915 40.1785 97.4348C41.5049 97.3151 43.1558 97.1666 44.0851 97.1504C44.0919 97.1504 44.0986 97.1504 44.1054 97.1504C44.7655 97.1468 45.3352 97.5442 45.4956 98.1224C45.7621 99.0836 45.7486 100.906 45.7088 102.847C45.6962 103.478 45.1237 103.989 44.4298 103.993H44.4294ZM38.5589 97.9591C38.3596 97.9735 38.1785 98.0626 38.061 98.203C37.9643 98.3186 37.9196 98.4604 37.9354 98.6021L38.3985 102.793C38.4482 103.243 38.8787 103.585 39.3996 103.587L44.4176 103.609C44.4208 103.609 44.4244 103.609 44.4275 103.609C44.9137 103.606 45.3144 103.263 45.3234 102.839C45.3623 100.927 45.3763 99.1358 45.1237 98.2241C45.0103 97.816 44.5757 97.5226 44.0919 97.5343C43.1766 97.5505 41.5334 97.6985 40.2133 97.8173C39.5817 97.874 38.9849 97.928 38.5593 97.9591H38.5589Z" fill="white"/>
<path opacity="0.6" d="M39.1002 98.3888C40.1538 98.3114 42.4439 98.0679 43.5304 98.049C43.9908 98.0409 44.396 98.3159 44.5063 98.7128C44.72 99.4841 44.7001 101.024 44.6712 102.445C44.6626 102.87 44.2718 103.212 43.7929 103.21L39.7828 103.192C39.2899 103.19 38.8784 102.857 38.8305 102.421L38.4605 99.0719C38.4221 98.7254 38.7099 98.4171 39.1006 98.3883L39.1002 98.3888Z" fill="white"/>
<g opacity="0.6">
<path d="M48.8205 101.186C48.9687 101.734 49.4711 102.112 50.0408 102.104L96.4644 101.469C96.9894 101.462 97.4073 101.028 97.3933 100.505C97.3793 99.9963 96.9614 99.5913 96.4509 99.5918L50.0231 99.6215C49.2036 99.622 48.6077 100.397 48.8209 101.185L48.8205 101.186Z" fill="white"/>
</g>
<path d="M44.8317 116.967C44.8272 116.967 44.8227 116.967 44.8181 116.967L39.8002 116.945C39.0832 116.942 38.4891 116.454 38.4177 115.81L37.9546 111.619C37.9275 111.373 38.003 111.129 38.167 110.932C38.3508 110.712 38.6296 110.573 38.9327 110.551C39.3552 110.52 39.9506 110.466 40.5804 110.409C41.9068 110.29 43.5577 110.141 44.487 110.125C44.4938 110.125 44.5005 110.125 44.5073 110.125C45.1674 110.121 45.7371 110.519 45.8975 111.097C46.164 112.058 46.1505 113.881 46.1107 115.822C46.0981 116.452 45.5256 116.964 44.8317 116.967ZM38.9612 110.934C38.762 110.948 38.5808 111.037 38.4633 111.178C38.3667 111.293 38.3219 111.435 38.3377 111.577L38.8008 115.768C38.8505 116.218 39.2811 116.559 39.802 116.561L44.82 116.583C44.8231 116.583 44.8267 116.583 44.8299 116.583C45.316 116.581 45.7167 116.237 45.7258 115.814C45.7646 113.902 45.7786 112.11 45.5261 111.199C45.4127 110.791 44.9781 110.496 44.4942 110.509C43.5789 110.525 41.9358 110.673 40.6156 110.792C39.984 110.849 39.3872 110.903 38.9617 110.934H38.9612Z" fill="white"/>
<path opacity="0.6" d="M39.5064 111.363C40.56 111.286 42.8501 111.043 43.9367 111.024C44.397 111.016 44.8023 111.29 44.9125 111.687C45.1262 112.459 45.1063 113.998 45.0774 115.419C45.0688 115.845 44.678 116.186 44.1991 116.184L40.1891 116.167C39.6962 116.164 39.2846 115.832 39.2367 115.396L38.8667 112.046C38.8283 111.7 39.1161 111.392 39.5069 111.363L39.5064 111.363Z" fill="white"/>
<g opacity="0.6">
<path d="M49.2267 114.16C49.3749 114.708 49.8773 115.086 50.447 115.078L96.8707 114.443C97.3956 114.436 97.8135 114.003 97.7995 113.479C97.7855 112.971 97.3676 112.566 96.8571 112.566L50.4294 112.596C49.6098 112.597 49.0139 113.371 49.2272 114.16L49.2267 114.16Z" fill="white"/>
</g>
<path d="M39.7221 112.019C40.0935 111.8 40.5737 111.927 40.7861 112.302L41.785 114.064C41.8848 114.241 42.1441 114.228 42.2264 114.043L44.6524 108.587C44.7735 108.315 45.1801 108.404 45.177 108.702C45.1607 110.367 44.7338 113.535 42.0764 116.198C42.0764 116.198 40.6013 115.636 39.4027 113.049C39.2297 112.676 39.3666 112.23 39.7221 112.02V112.019Z" fill="url(#paint13_linear_1153_84407)"/>
<path d="M39.1049 98.6195C39.4763 98.3999 39.9565 98.5272 40.1689 98.9021L41.1678 100.664C41.2676 100.84 41.5269 100.828 41.6092 100.643L44.0353 95.1864C44.1563 94.9142 44.5629 95.0037 44.5598 95.3016C44.5435 96.9666 44.1166 100.134 41.4592 102.797C41.4592 102.797 39.9841 102.235 38.7855 99.6486C38.6125 99.2751 38.7494 98.8301 39.1049 98.6199V98.6195Z" fill="url(#paint14_linear_1153_84407)"/>
<path d="M39.1049 85.6682C39.4763 85.4486 39.9565 85.5759 40.1689 85.9508L41.1678 87.7125C41.2676 87.8889 41.5269 87.8763 41.6092 87.6914L44.0353 82.2351C44.1563 81.9629 44.5629 82.0529 44.5598 82.3503C44.5435 84.0153 44.1166 87.1829 41.4592 89.846C41.4592 89.846 39.9841 89.2839 38.7855 86.6973C38.6125 86.3238 38.7494 85.8788 39.1049 85.6686V85.6682Z" fill="url(#paint15_linear_1153_84407)"/>
<path d="M44.3048 69.8954C44.4259 69.6232 44.8325 69.7127 44.8293 70.0106C44.813 71.6756 44.3861 74.8432 41.7287 77.5063C41.7287 77.5063 40.2536 76.9442 39.055 74.3576C38.882 73.9841 39.0189 73.5391 39.3745 73.3289C39.7458 73.1093 40.2261 73.2367 40.4384 73.6115L41.4373 75.3733C41.5372 75.5497 41.7965 75.5371 41.8787 75.3521L44.3048 69.8959V69.8954Z" fill="url(#paint16_linear_1153_84407)"/>
<path d="M43.3161 40.086C43.3116 40.086 43.307 40.086 43.3025 40.086L38.2845 40.0639C37.5676 40.0608 36.9735 39.5725 36.9021 38.9286L36.439 34.7377C36.4119 34.4916 36.4873 34.2481 36.6513 34.0515C36.8352 33.8314 37.1144 33.6924 37.4171 33.6699C37.8395 33.6388 38.435 33.5853 39.0648 33.5286C40.3912 33.4089 42.042 33.2604 42.9714 33.2442C42.9781 33.2442 42.9849 33.2442 42.9917 33.2442C43.6518 33.2406 44.2215 33.6379 44.3818 34.2162C44.6484 35.1774 44.6348 36.9999 44.5951 38.9412C44.5824 39.5716 44.01 40.0828 43.3161 40.0864V40.086ZM37.4456 34.0524C37.2463 34.0668 37.0652 34.1559 36.9477 34.2963C36.851 34.4119 36.8063 34.5537 36.8221 34.695L37.2852 38.8858C37.3349 39.3363 37.7654 39.6774 38.2864 39.6796L43.3043 39.7017C43.3075 39.7017 43.3111 39.7017 43.3143 39.7017C43.8004 39.699 44.2011 39.3556 44.2102 38.9322C44.249 37.0201 44.263 35.2287 44.0105 34.317C43.8971 33.9088 43.4625 33.6168 42.9786 33.6271C42.0633 33.6433 40.4201 33.7914 39.1 33.9102C38.4684 33.9669 37.8716 34.0209 37.446 34.0519L37.4456 34.0524Z" fill="white"/>
<path opacity="0.6" d="M37.9869 34.4825C39.0405 34.4051 41.3306 34.1617 42.4171 34.1428C42.8775 34.1347 43.2827 34.4096 43.393 34.8065C43.6067 35.5778 43.5868 37.1173 43.5579 38.5384C43.5493 38.9641 43.1585 39.3056 42.6796 39.3034L38.6696 39.2858C38.1767 39.2836 37.7655 38.951 37.7172 38.515L37.3472 35.1656C37.3088 34.8191 37.5966 34.5109 37.9874 34.4821L37.9869 34.4825Z" fill="white"/>
<g opacity="0.6">
<path d="M47.7072 37.2794C47.8554 37.8275 48.3578 38.2055 48.9275 38.1974L95.3511 37.5625C95.8761 37.5553 96.294 37.1219 96.28 36.5986C96.266 36.0901 95.8481 35.6851 95.3376 35.6855L48.9099 35.7152C48.0903 35.7157 47.4944 36.4906 47.7077 37.279L47.7072 37.2794Z" fill="white"/>
</g>
<g opacity="0.6">
<path d="M40.9266 26.1161C41.0617 26.9531 41.5546 27.5386 42.1248 27.5381L88.5547 27.5048C89.0802 27.5048 89.508 26.8528 89.5066 26.0567C89.5048 25.2827 89.0969 24.6581 88.5863 24.6482L42.1663 23.7599C41.3468 23.7442 40.7328 24.9119 40.9266 26.1157V26.1161Z" fill="white"/>
</g>
<path d="M43.3708 53.061C43.3662 53.061 43.3617 53.061 43.3572 53.061L38.3392 53.039C37.6222 53.0358 37.0281 52.548 36.9568 51.9036L36.4937 47.7128C36.4666 47.4666 36.542 47.2227 36.7065 47.0261C36.8904 46.806 37.1691 46.667 37.4723 46.6445C37.8947 46.6134 38.4901 46.5599 39.1199 46.5032C40.4464 46.3835 42.0972 46.235 43.0265 46.2188C43.0333 46.2188 43.0401 46.2188 43.0468 46.2188C43.7069 46.2152 44.2766 46.6125 44.437 47.1908C44.7035 48.152 44.69 49.9745 44.6502 51.9158C44.6376 52.5462 44.0652 53.0574 43.3712 53.061H43.3708ZM37.5003 47.0274C37.301 47.0418 37.1199 47.1309 37.0024 47.2713C36.9057 47.387 36.861 47.5287 36.8768 47.6705L37.3399 51.8613C37.3896 52.3118 37.8201 52.6529 38.341 52.6551L43.359 52.6772C43.3622 52.6772 43.3658 52.6772 43.369 52.6772C43.8551 52.6745 44.2558 52.3311 44.2648 51.9077C44.3037 49.9956 44.3177 48.2042 44.0652 47.2925C43.9518 46.8843 43.5171 46.5909 43.0333 46.6026C42.118 46.6188 40.4748 46.7669 39.1547 46.8857C38.5231 46.9424 37.9263 46.9964 37.5007 47.0274H37.5003Z" fill="white"/>
<path opacity="0.6" d="M38.0416 47.4571C39.0952 47.3797 41.3853 47.1363 42.4718 47.1174C42.9322 47.1093 43.3374 47.3842 43.4477 47.7811C43.6614 48.5524 43.6415 50.0919 43.6126 51.513C43.604 51.9387 43.2132 52.2802 42.7343 52.278L38.7243 52.2604C38.2309 52.2582 37.8198 51.9256 37.7719 51.4896L37.4019 48.1402C37.3635 47.7937 37.6513 47.4855 38.0421 47.4567L38.0416 47.4571Z" fill="white"/>
<g opacity="0.6">
<path d="M47.7658 50.2521C47.914 50.8002 48.4164 51.1782 48.9861 51.1701L95.4097 50.5352C95.9347 50.528 96.3526 50.0946 96.3386 49.5713C96.3246 49.0628 95.9067 48.6578 95.3962 48.6582L48.9685 48.6879C48.1489 48.6884 47.553 49.4633 47.7663 50.2517L47.7658 50.2521Z" fill="white"/>
</g>
<path d="M43.777 66.0337C43.7725 66.0337 43.768 66.0337 43.7635 66.0337L38.7455 66.0116C38.0285 66.0085 37.4344 65.5207 37.363 64.8763L36.8999 60.6854C36.8728 60.4393 36.9483 60.1954 37.1127 59.9987C37.2966 59.7787 37.5754 59.6396 37.8785 59.6171C38.3009 59.5861 38.8964 59.5325 39.5262 59.4758C40.8526 59.3561 42.5034 59.2076 43.4328 59.1914C43.4395 59.1914 43.4463 59.1914 43.4531 59.1914C44.1131 59.1878 44.6828 59.5852 44.8432 60.1634C45.1098 61.1246 45.0962 62.9471 45.0565 64.8884C45.0438 65.5189 44.4714 66.0301 43.7775 66.0337H43.777ZM37.9065 60.0001C37.7073 60.0145 37.5261 60.1036 37.4086 60.244C37.312 60.3596 37.2672 60.5014 37.283 60.6431L37.7461 64.834C37.7958 65.2844 38.2264 65.6255 38.7473 65.6278L43.7653 65.6498C43.7684 65.6498 43.772 65.6498 43.7752 65.6498C44.2613 65.6471 44.6621 65.3038 44.6711 64.8803C44.7099 62.9683 44.724 61.1768 44.4714 60.2651C44.358 59.857 43.9234 59.5622 43.4395 59.5753C42.5242 59.5915 40.8811 59.7395 39.561 59.8583C38.9294 59.915 38.3325 59.969 37.907 60.0001H37.9065Z" fill="white"/>
<path opacity="0.6" d="M38.4479 60.4317C39.5014 60.3543 41.7915 60.1109 42.8781 60.092C43.3384 60.0839 43.7437 60.3588 43.8539 60.7557C44.0676 61.527 44.0477 63.0665 44.0188 64.4876C44.0102 64.9133 43.6194 65.2548 43.1405 65.2526L39.1305 65.235C38.6376 65.2328 38.226 64.9002 38.1781 64.4642L37.8081 61.1148C37.7697 60.7683 38.0575 60.4601 38.4483 60.4313L38.4479 60.4317Z" fill="white"/>
<g opacity="0.6">
<path d="M48.1681 63.2267C48.3163 63.7748 48.8187 64.1528 49.3884 64.1447L95.8121 63.5098C96.337 63.5026 96.7549 63.0692 96.7409 62.5459C96.7269 62.0374 96.309 61.6324 95.7985 61.6328L49.3708 61.6625C48.5513 61.663 47.9554 62.4379 48.1686 63.2263L48.1681 63.2267Z" fill="white"/>
</g>
<path d="M98.9995 125.402C100.063 125.494 101.909 125.643 103.364 125.707C104.238 125.745 104.742 125.66 105.032 125.544C105.032 125.577 105.031 125.608 105.029 125.636C105.023 125.788 104.898 125.91 104.743 125.919C101.994 126.072 99.8073 125.972 99.0289 125.925C98.868 125.915 98.7718 125.741 98.8545 125.604C98.8956 125.536 98.9457 125.468 98.9995 125.402Z" fill="url(#paint17_linear_1153_84407)"/>
<path d="M103.364 125.707C101.909 125.643 100.064 125.494 99 125.403C100.045 124.125 103.364 123.264 103.364 123.264H104.302C104.946 124.189 105.04 125.07 105.033 125.544C104.743 125.66 104.239 125.745 103.364 125.707Z" fill="url(#paint18_linear_1153_84407)"/>
<path d="M104.459 121.738L104.372 123.467C104.362 123.654 104.222 123.812 104.033 123.838C103.846 123.865 103.595 123.869 103.329 123.78C103.166 123.726 103.044 123.589 103.014 123.421L102.711 121.738H104.46H104.459Z" fill="url(#paint19_linear_1153_84407)"/>
<path d="M116.632 125.695C117.093 125.631 117.302 125.392 117.389 125.137C117.389 125.139 117.39 125.141 117.391 125.143C117.458 125.413 117.301 125.692 116.987 125.824C116.607 125.985 116.191 126.012 115.869 125.999C115.522 125.985 115.205 125.842 115.03 125.614L115.027 125.61C115.375 125.782 115.863 125.801 116.632 125.695Z" fill="url(#paint20_linear_1153_84407)"/>
<path d="M114.459 121.729H115.232C116.409 121.705 117.149 124.178 117.39 125.136C117.303 125.391 117.094 125.63 116.633 125.694C115.864 125.801 115.376 125.781 115.029 125.609C114.393 124.776 114.077 123.555 113.926 122.842C113.753 122.032 114.459 121.729 114.459 121.729Z" fill="url(#paint21_linear_1153_84407)"/>
<path d="M115.131 120.123L115.56 121.824C115.613 122.032 115.513 122.248 115.319 122.347C115.079 122.47 114.741 122.599 114.43 122.561C114.284 122.544 114.163 122.441 114.115 122.304L113.484 120.515L115.131 120.123V120.123Z" fill="url(#paint22_linear_1153_84407)"/>
<path d="M115.642 120.615C115.108 121.087 113.371 121.149 113.371 121.149C107.114 106.191 104.554 104.066 104.554 104.066C105.457 109.712 104.699 122.211 104.699 122.211C103.667 122.664 102.336 122.211 102.336 122.211C102.252 112.968 100.825 104.907 99.1406 98.552C103.37 98.4575 105.618 97.0158 106.353 96.4375C109.878 102.098 115.642 120.615 115.642 120.615Z" fill="url(#paint23_linear_1153_84407)"/>
<path d="M105.281 79.2348C106.082 83.2119 105.795 90.3296 105.606 93.5763C105.554 94.4889 106.193 95.7539 106.71 96.617C106.791 96.7524 106.741 96.9257 106.6 96.9977C105.735 97.4409 102.803 98.8139 99.4048 98.9849C99.178 98.9961 98.976 98.8427 98.9173 98.6244C96.3968 89.25 93.4688 83.2596 93.4688 83.2596C96.7013 78.1184 105.282 79.2353 105.282 79.2353L105.281 79.2348Z" fill="url(#paint24_linear_1153_84407)"/>
<path d="M104.129 103.71C104.164 103.71 104.2 103.701 104.232 103.681C104.327 103.624 104.357 103.501 104.299 103.407C104.266 103.352 103.456 102.049 101.819 101.262C101.719 101.214 101.599 101.256 101.551 101.355C101.503 101.454 101.545 101.574 101.645 101.622C103.172 102.355 103.95 103.602 103.957 103.615C103.995 103.677 104.061 103.711 104.129 103.711V103.71Z" fill="url(#paint25_linear_1153_84407)"/>
<path d="M110.302 90.6476C110.045 92.5003 109.285 94.5212 107.765 96.6673L107.188 96.1984C107.188 96.1984 107.854 93.5033 107.475 90.4451C108.413 90.2629 109.52 90.4505 110.302 90.6476Z" fill="url(#paint26_linear_1153_84407)"/>
<path d="M104.387 84.1412L105.281 79.2344C105.281 79.2344 111.254 83.7825 110.301 90.6482C109.52 90.4511 108.413 90.2634 107.475 90.4457C107.202 88.2425 106.386 85.8507 104.387 84.1416V84.1412Z" fill="url(#paint27_linear_1153_84407)"/>
<path d="M93.4697 83.2598L95.7756 88.2062C95.4029 91.1924 93.7923 92.4834 92.0556 92.9789C91.9472 91.6181 91.602 90.5183 91.2812 89.7578C93.5 87.4758 93.4697 83.2602 93.4697 83.2602V83.2598Z" fill="url(#paint28_linear_1153_84407)"/>
<path d="M91.2797 89.7578C91.6005 90.5183 91.9456 91.6181 92.0541 92.9789C87.421 94.7695 86.1953 91.2968 86.1953 91.2968L87.0514 91.1465C88.9851 91.3495 90.3359 90.7285 91.2797 89.7578Z" fill="url(#paint29_linear_1153_84407)"/>
<path d="M95.5938 77.1531L96.7069 81.2292C96.8321 81.6873 97.3291 81.933 97.7718 81.7571C98.2493 81.5672 98.8547 81.3075 99.3761 81.0272C99.9327 80.7279 100.107 80.0147 99.7547 79.4918L97.4402 76.0547L95.5938 77.1536V77.1531Z" fill="url(#paint30_linear_1153_84407)"/>
<path d="M93.1563 74.0569C93.1464 74.1271 94.0847 78.7081 94.0847 78.7081L96.6997 78.1186L96.458 73.6447C96.458 73.6447 93.3262 72.8847 93.1568 74.0565L93.1563 74.0569Z" fill="url(#paint31_linear_1153_84407)"/>
<path d="M95.8697 74.6411L96.1823 76.9861C96.1864 77.0163 96.1864 77.046 96.1823 77.0761C96.1561 77.2597 96.0188 77.8856 95.3845 77.707C94.8089 77.5445 94.2812 77.405 93.9166 77.5162C93.7531 77.5661 93.6541 77.7313 93.6885 77.8982C93.7738 78.3145 93.9835 79.2487 94.2902 80.0331C94.3526 80.1924 94.5274 80.2756 94.6919 80.2279C95.1879 80.0839 96.2252 79.7509 96.9969 79.2883C97.1012 79.2257 97.1636 79.1123 97.1586 78.9908C97.1333 78.3987 97.0642 76.5991 97.1225 76.0947C97.1776 75.6213 97.7609 75.3373 98.0143 75.2356C98.0974 75.2023 98.1625 75.1371 98.1959 75.0543C98.3134 74.7613 98.4751 74.0832 97.6172 73.8055C97.4378 73.7475 97.343 73.5544 97.4067 73.3776C97.5336 73.0252 97.5874 72.4875 96.9237 72.1914C96.2492 71.8903 95.7454 72.2485 95.4735 72.5397C95.3637 72.6576 95.187 72.6751 95.0506 72.5896C94.9729 72.5406 94.873 72.5248 94.752 72.5995C94.5889 72.7007 94.3734 72.6319 94.2893 72.46C94.1276 72.1297 93.7987 71.776 93.1382 71.8885C91.9663 72.0883 91.8339 73.3816 92.1429 74.1394C92.4519 74.8972 93.7101 74.6088 94.3413 74.2267C94.8211 73.936 95.4437 74.2407 95.7143 74.4036C95.8001 74.4553 95.857 74.5426 95.8701 74.6416L95.8697 74.6411Z" fill="url(#paint32_linear_1153_84407)"/>
<path d="M97.2258 76.9487C97.2258 76.9487 96.7442 75.605 97.2389 75.2761C97.7336 74.9471 98.4669 75.1177 98.3056 76.091C98.105 77.3015 97.2258 76.9487 97.2258 76.9487Z" fill="url(#paint33_linear_1153_84407)"/>
<path d="M86.538 91.9317C86.3049 92.1131 85.5057 91.7342 85.0168 91.4723C84.7787 91.3445 84.6631 91.0673 84.7449 90.8103C84.8623 90.4409 85.0584 89.9639 85.3001 89.9036C85.7008 89.8037 87.4989 91.1838 86.538 91.9317Z" fill="url(#paint34_linear_1153_84407)"/>
<path d="M125.879 103.156L64.8686 81.543L61.6406 90.4737L122.63 112.69C123.925 113.162 125.371 112.639 126.065 111.451C126.778 110.232 127.459 108.327 127.501 105.473C127.515 104.435 126.86 103.503 125.879 103.156H125.879Z" fill="url(#paint35_linear_1153_84407)"/>
<path d="M45.9919 79.2341L54.4195 80.2646C54.4105 81.4197 54.031 82.9146 52.7452 84.6291L45.7073 80.0049C45.3337 79.7592 45.5478 79.1796 45.9924 79.2341H45.9919Z" fill="url(#paint36_linear_1153_84407)"/>
<path d="M64.8679 81.5412C65.2542 87.1383 61.6399 90.4719 61.6399 90.4719L52.7461 84.6282C54.0319 82.9133 54.4114 81.4188 54.4204 80.2637L64.8675 81.5412H64.8679Z" fill="url(#paint37_linear_1153_84407)"/>
<path d="M125.12 105.892C125.194 105.892 125.263 105.847 125.289 105.773C125.322 105.68 125.273 105.578 125.179 105.546L66.8092 84.9985C66.7157 84.9657 66.6131 85.0143 66.5806 85.1074C66.5476 85.2006 66.5964 85.3023 66.6899 85.3351L125.06 105.882C125.08 105.889 125.1 105.892 125.12 105.892Z" fill="url(#paint38_linear_1153_84407)"/>
<path d="M124.112 109.396C124.186 109.396 124.255 109.35 124.281 109.277C124.314 109.184 124.265 109.082 124.172 109.049L65.8014 88.5024C65.7079 88.4696 65.6058 88.5182 65.5728 88.6114C65.5398 88.7045 65.5886 88.8062 65.6821 88.839L124.052 109.386C124.072 109.393 124.092 109.396 124.112 109.396Z" fill="url(#paint39_linear_1153_84407)"/>
<path d="M107.423 96.1171L104.726 95.8984L103.559 96.9708C103.559 96.9708 103.835 97.351 104.698 97.1323C105.562 96.9136 106.745 96.8601 106.745 96.8601C106.745 96.8601 107.938 97.3956 107.953 96.3939L107.423 96.1176V96.1171Z" fill="url(#paint40_linear_1153_84407)"/>
<path d="M59.1758 36.8299C59.1758 52.053 72.034 64.3942 87.8958 64.3942C103.757 64.3942 117.326 51.5139 117.326 36.2908C117.326 21.0678 103.757 9.26562 87.8958 9.26562C72.034 9.26562 59.1758 21.6064 59.1758 36.8299Z" fill="url(#paint41_linear_1153_84407)"/>
<path d="M115.073 30.1271C115.09 30.1271 115.107 30.1253 115.124 30.1208C115.23 30.0938 115.293 29.9894 115.265 29.8877C114.956 28.7739 114.561 27.6692 114.092 26.604C114.049 26.5073 113.932 26.4632 113.832 26.5028C113.731 26.5442 113.684 26.6553 113.727 26.7525C114.189 27.801 114.578 28.8887 114.882 29.9858C114.905 30.0708 114.986 30.1271 115.073 30.1271H115.073Z" fill="#BDD0FB"/>
<path d="M110.684 21.5125C110.726 21.5125 110.768 21.4999 110.803 21.4743C110.891 21.4113 110.908 21.2916 110.842 21.2079C105.521 14.4354 96.9499 10.3926 87.9146 10.3926C84.0559 10.3926 80.3233 11.1436 76.8215 12.6237C76.7212 12.666 76.676 12.7789 76.7199 12.8748C76.7637 12.9711 76.8811 13.0147 76.9814 12.9724C80.4326 11.5131 84.1111 10.7733 87.9146 10.7733C96.8266 10.7733 105.279 14.7594 110.526 21.4365C110.565 21.4864 110.624 21.5125 110.684 21.5125Z" fill="#BDD0FB"/>
<path d="M63.082 36.8286C63.082 50.006 74.2122 60.6885 87.9424 60.6885C101.673 60.6885 113.418 49.5393 113.418 36.362C113.418 23.1846 101.673 12.9688 87.9424 12.9688C74.2122 12.9688 63.082 23.6513 63.082 36.8286Z" fill="#91B3FA"/>
<path opacity="0.78" d="M107.066 35.592C107.127 36.6049 108.033 37.378 109.088 37.3191C110.143 37.2601 110.949 36.3912 110.887 35.3787C110.826 34.3657 109.921 33.5926 108.865 33.6516C107.81 33.7105 107.004 34.5795 107.066 35.592Z" fill="white"/>
<path opacity="0.78" d="M65.7142 37.9006C65.7757 38.9135 66.6811 39.6866 67.736 39.6277C68.7913 39.5687 69.5969 38.6998 69.5354 37.6873C69.474 36.6743 68.5686 35.9012 67.5137 35.9602C66.4583 36.0191 65.6528 36.8881 65.7142 37.9006Z" fill="white"/>
<path opacity="0.78" d="M91.6797 54.3857C90.6397 54.5679 89.9507 55.5246 90.1409 56.5227C90.3311 57.5208 91.3278 58.1819 92.3678 57.9996C93.4078 57.8174 94.0968 56.8607 93.9066 55.8626C93.7168 54.8645 92.7197 54.2034 91.6797 54.3857Z" fill="white"/>
<path opacity="0.78" d="M84.2344 15.2802C83.1944 15.4625 82.5054 16.4192 82.6956 17.4173C82.8854 18.4154 83.8825 19.0764 84.9225 18.8942C85.9625 18.7119 86.6515 17.7552 86.4613 16.7571C86.2715 15.759 85.2744 15.098 84.2344 15.2802Z" fill="white"/>
<path opacity="0.78" d="M78.0724 55.4358C77.8777 55.907 77.9265 56.348 78.1809 56.4209C78.4352 56.4938 78.7994 56.1711 78.9936 55.7004C79.1884 55.2293 79.1396 54.7883 78.8852 54.7154C78.6309 54.6425 78.2667 54.9651 78.0724 55.4358Z" fill="white"/>
<path opacity="0.78" d="M94.7051 18.344C94.5108 18.8152 94.5591 19.2562 94.8135 19.3291C95.0678 19.402 95.432 19.0793 95.6263 18.6086C95.8205 18.1375 95.7722 17.6965 95.5178 17.6236C95.2635 17.5507 94.8993 17.8733 94.7051 18.344Z" fill="white"/>
<path opacity="0.78" d="M69.3845 48.3845C68.9634 48.69 68.7665 49.0914 68.9445 49.2804C69.1225 49.4699 69.6081 49.3754 70.0292 49.0698C70.4503 48.7643 70.6472 48.3629 70.4692 48.1739C70.2912 47.9844 69.8056 48.0789 69.3845 48.3845Z" fill="white"/>
<path opacity="0.78" d="M103.67 24.9741C103.249 25.2797 103.052 25.6806 103.23 25.8701C103.408 26.0595 103.893 25.965 104.314 25.6595C104.735 25.3539 104.932 24.9525 104.754 24.7635C104.576 24.5745 104.091 24.6686 103.67 24.9741Z" fill="white"/>
<path opacity="0.78" d="M68.294 27.3813C67.8174 27.1635 67.3556 27.1806 67.2626 27.4196C67.1695 27.6585 67.4803 28.0284 67.957 28.2462C68.4336 28.464 68.8953 28.4469 68.9884 28.2084C69.0814 27.9694 68.7702 27.5995 68.294 27.3818V27.3813Z" fill="white"/>
<path opacity="0.78" d="M105.743 45.7954C105.267 45.5776 104.805 45.5947 104.712 45.8332C104.619 46.0722 104.93 46.4421 105.406 46.6599C105.883 46.8777 106.345 46.8606 106.438 46.6221C106.531 46.3831 106.219 46.0132 105.743 45.7954Z" fill="white"/>
<path opacity="0.78" d="M76.2074 19.537C75.9178 19.1135 75.5139 18.898 75.3057 19.0555C75.0969 19.2134 75.1624 19.6846 75.452 20.108C75.7416 20.5315 76.1455 20.747 76.3538 20.5895C76.5625 20.4316 76.497 19.9604 76.2074 19.537Z" fill="white"/>
<path opacity="0.78" d="M98.2465 53.9354C97.9569 53.5119 97.553 53.2964 97.3447 53.4539C97.136 53.6114 97.2015 54.083 97.4911 54.5064C97.7807 54.9299 98.1846 55.1454 98.3929 54.9879C98.6016 54.83 98.5361 54.3588 98.2465 53.9354Z" fill="white"/>
<path d="M88.0198 36.3832L104.807 39.4009C105.133 39.4594 105.411 39.1606 105.316 38.8555L104.751 37.0406C104.641 36.6878 105.023 36.3701 105.367 36.529L118.593 42.6368C118.998 42.8236 118.871 43.4122 118.42 43.4423L103.834 44.4103C103.484 44.4332 103.256 44.0732 103.433 43.7798L104.625 41.8061C104.772 41.5622 104.641 41.2544 104.36 41.1869L87.8174 37.2116C87.587 37.1563 87.4483 36.9326 87.5048 36.7081C87.5608 36.4858 87.788 36.3427 88.0198 36.3841V36.3832Z" fill="url(#paint42_linear_1153_84407)"/>
<path d="M116.913 43.0516C117.051 43.0138 117.155 42.9058 117.184 42.764C117.218 42.5944 117.132 42.4351 116.97 42.3662L114.109 41.1508C114.01 41.1085 113.892 41.153 113.847 41.2493C113.802 41.3461 113.845 41.4581 113.944 41.5004L116.805 42.7159C113.491 42.8905 105.749 43.3729 105.593 43.3999C105.487 43.4165 105.411 43.5173 105.428 43.6213C105.445 43.7239 105.544 43.7923 105.65 43.7761C105.879 43.7495 111.811 43.3765 116.83 43.0651C116.859 43.0633 116.887 43.0588 116.913 43.0516H116.913Z" fill="white"/>
<path d="M87.1136 35.3648L87.1444 20.9364C87.1394 20.6169 86.7807 20.4185 86.4902 20.5737L84.7607 21.4989C84.4242 21.6789 84.0261 21.3864 84.1192 21.0278L87.6964 7.2326C87.8058 6.8105 88.4283 6.8033 88.5481 7.22315L92.4199 20.7744C92.5125 21.0989 92.1926 21.3918 91.8592 21.2879L89.6206 20.589C89.3437 20.5026 89.0577 20.693 89.045 20.972L87.9942 35.3765C87.9838 35.606 87.7845 35.7851 87.5451 35.7801C87.3084 35.7752 87.1182 35.5916 87.1141 35.3643L87.1136 35.3648Z" fill="url(#paint43_linear_1153_84407)"/>
<path d="M91.2333 19.4521C91.2577 19.4521 91.2821 19.4481 91.3056 19.4391C91.4064 19.4013 91.4565 19.2928 91.4195 19.1961C91.3472 18.9873 89.7939 13.4707 88.4829 8.80286C88.4363 8.63771 88.29 8.52926 88.107 8.53331C87.9285 8.53781 87.783 8.65346 87.7455 8.82086L87.0787 11.7819C87.0557 11.8845 87.1234 11.9862 87.231 12.0078C87.3371 12.0303 87.4433 11.965 87.4668 11.862L88.1336 8.90096C88.9676 11.9902 90.9912 19.1893 91.049 19.3311C91.0797 19.4062 91.1543 19.4517 91.2333 19.4517V19.4521Z" fill="white"/>
<path d="M88.0717 38.0998C89.2007 38.0998 90.116 37.2214 90.116 36.1378C90.116 35.0542 89.2007 34.1758 88.0717 34.1758C86.9426 34.1758 86.0273 35.0542 86.0273 36.1378C86.0273 37.2214 86.9426 38.0998 88.0717 38.0998Z" fill="url(#paint44_linear_1153_84407)"/>
</g>
<defs>
<linearGradient id="paint0_linear_1153_84407" x1="142.554" y1="161.292" x2="32.1894" y2="23.682" gradientUnits="userSpaceOnUse">
<stop stop-color="#DAE3FE"/>
<stop offset="1" stop-color="#E9EFFD"/>
</linearGradient>
<linearGradient id="paint1_linear_1153_84407" x1="53.653" y1="90.4394" x2="9.96901" y2="138.078" gradientUnits="userSpaceOnUse">
<stop stop-color="#4F52FF"/>
<stop offset="1" stop-color="#4042E2"/>
</linearGradient>
<linearGradient id="paint2_linear_1153_84407" x1="3.875" y1="113.244" x2="54.9602" y2="113.244" gradientUnits="userSpaceOnUse">
<stop stop-color="#DAE3FE"/>
<stop offset="1" stop-color="#E9EFFD"/>
</linearGradient>
<linearGradient id="paint3_linear_1153_84407" x1="3.875" y1="114.847" x2="54.9602" y2="114.847" gradientUnits="userSpaceOnUse">
<stop stop-color="#DAE3FE"/>
<stop offset="1" stop-color="#E9EFFD"/>
</linearGradient>
<linearGradient id="paint4_linear_1153_84407" x1="3.875" y1="116.449" x2="54.9602" y2="116.449" gradientUnits="userSpaceOnUse">
<stop stop-color="#DAE3FE"/>
<stop offset="1" stop-color="#E9EFFD"/>
</linearGradient>
<linearGradient id="paint5_linear_1153_84407" x1="3.875" y1="118.051" x2="54.9602" y2="118.051" gradientUnits="userSpaceOnUse">
<stop stop-color="#DAE3FE"/>
<stop offset="1" stop-color="#E9EFFD"/>
</linearGradient>
<linearGradient id="paint6_linear_1153_84407" x1="3.875" y1="119.655" x2="54.9602" y2="119.655" gradientUnits="userSpaceOnUse">
<stop stop-color="#DAE3FE"/>
<stop offset="1" stop-color="#E9EFFD"/>
</linearGradient>
<linearGradient id="paint7_linear_1153_84407" x1="71.5566" y1="70.8903" x2="27.1273" y2="130.829" gradientUnits="userSpaceOnUse">
<stop stop-color="#53D8FF"/>
<stop offset="1" stop-color="#3840F7"/>
</linearGradient>
<linearGradient id="paint8_linear_1153_84407" x1="68.218" y1="68.8194" x2="24.204" y2="128.198" gradientUnits="userSpaceOnUse">
<stop stop-color="#53D8FF"/>
<stop offset="1" stop-color="#3840F7"/>
</linearGradient>
<linearGradient id="paint9_linear_1153_84407" x1="17.586" y1="39.4171" x2="47.5877" y2="39.4171" gradientUnits="userSpaceOnUse">
<stop stop-color="#DAE3FE"/>
<stop offset="1" stop-color="#E9EFFD"/>
</linearGradient>
<linearGradient id="paint10_linear_1153_84407" x1="37.2809" y1="15.5836" x2="74.7176" y2="80.2614" gradientUnits="userSpaceOnUse">
<stop stop-color="#CE1567"/>
<stop offset="1" stop-color="#7A1DBC"/>
</linearGradient>
<linearGradient id="paint11_linear_1153_84407" x1="32.26" y1="18.4891" x2="69.6977" y2="83.169" gradientUnits="userSpaceOnUse">
<stop stop-color="#CE1567"/>
<stop offset="1" stop-color="#7A1DBC"/>
</linearGradient>
<linearGradient id="paint12_linear_1153_84407" x1="62.2375" y1="58.7777" x2="36.9951" y2="102.555" gradientUnits="userSpaceOnUse">
<stop stop-color="#A737D5"/>
<stop offset="1" stop-color="#EF497A"/>
</linearGradient>
<linearGradient id="paint13_linear_1153_84407" x1="81.7802" y1="-28.5851" x2="74.3819" y2="-2.18135" gradientUnits="userSpaceOnUse">
<stop stop-color="#FF928E"/>
<stop offset="1" stop-color="#FE7062"/>
</linearGradient>
<linearGradient id="paint14_linear_1153_84407" x1="77.7003" y1="-29.7265" x2="70.3025" y2="-3.32275" gradientUnits="userSpaceOnUse">
<stop stop-color="#FF928E"/>
<stop offset="1" stop-color="#FE7062"/>
</linearGradient>
<linearGradient id="paint15_linear_1153_84407" x1="74.3105" y1="-30.6768" x2="66.9127" y2="-4.27299" gradientUnits="userSpaceOnUse">
<stop stop-color="#FF928E"/>
<stop offset="1" stop-color="#FE7062"/>
</linearGradient>
<linearGradient id="paint16_linear_1153_84407" x1="71.3309" y1="-31.512" x2="63.9326" y2="-5.10819" gradientUnits="userSpaceOnUse">
<stop stop-color="#FF928E"/>
<stop offset="1" stop-color="#FE7062"/>
</linearGradient>
<linearGradient id="paint17_linear_1153_84407" x1="105.032" y1="125.701" x2="98.8242" y2="125.701" gradientUnits="userSpaceOnUse">
<stop stop-color="#4F52FF"/>
<stop offset="1" stop-color="#4042E2"/>
</linearGradient>
<linearGradient id="paint18_linear_1153_84407" x1="105.033" y1="124.489" x2="99" y2="124.489" gradientUnits="userSpaceOnUse">
<stop stop-color="#09005D"/>
<stop offset="1" stop-color="#1A0F91"/>
</linearGradient>
<linearGradient id="paint19_linear_1153_84407" x1="104.459" y1="122.797" x2="102.71" y2="122.797" gradientUnits="userSpaceOnUse">
<stop stop-color="#FEBBBA"/>
<stop offset="1" stop-color="#FF928E"/>
</linearGradient>
<linearGradient id="paint20_linear_1153_84407" x1="117.406" y1="125.569" x2="115.027" y2="125.569" gradientUnits="userSpaceOnUse">
<stop stop-color="#4F52FF"/>
<stop offset="1" stop-color="#4042E2"/>
</linearGradient>
<linearGradient id="paint21_linear_1153_84407" x1="117.39" y1="123.744" x2="113.899" y2="123.744" gradientUnits="userSpaceOnUse">
<stop stop-color="#09005D"/>
<stop offset="1" stop-color="#1A0F91"/>
</linearGradient>
<linearGradient id="paint22_linear_1153_84407" x1="115.574" y1="121.346" x2="113.484" y2="121.346" gradientUnits="userSpaceOnUse">
<stop stop-color="#FEBBBA"/>
<stop offset="1" stop-color="#FF928E"/>
</linearGradient>
<linearGradient id="paint23_linear_1153_84407" x1="99.414" y1="102.166" x2="122.422" y2="135.831" gradientUnits="userSpaceOnUse">
<stop stop-color="#4F52FF"/>
<stop offset="1" stop-color="#4042E2"/>
</linearGradient>
<linearGradient id="paint24_linear_1153_84407" x1="119.978" y1="38.2007" x2="113.581" y2="55.021" gradientUnits="userSpaceOnUse">
<stop stop-color="#FF928E"/>
<stop offset="1" stop-color="#FE7062"/>
</linearGradient>
<linearGradient id="paint25_linear_1153_84407" x1="108.531" y1="113.635" x2="107.536" y2="111.638" gradientUnits="userSpaceOnUse">
<stop stop-color="#53D8FF"/>
<stop offset="1" stop-color="#3840F7"/>
</linearGradient>
<linearGradient id="paint26_linear_1153_84407" x1="106" y1="91.0027" x2="113.413" y2="97.5933" gradientUnits="userSpaceOnUse">
<stop stop-color="#FEBBBA"/>
<stop offset="1" stop-color="#FF928E"/>
</linearGradient>
<linearGradient id="paint27_linear_1153_84407" x1="124.98" y1="40.1028" x2="118.582" y2="56.9232" gradientUnits="userSpaceOnUse">
<stop stop-color="#FF928E"/>
<stop offset="1" stop-color="#FE7062"/>
</linearGradient>
<linearGradient id="paint28_linear_1153_84407" x1="113.86" y1="35.8743" x2="107.463" y2="52.6951" gradientUnits="userSpaceOnUse">
<stop stop-color="#FF928E"/>
<stop offset="1" stop-color="#FE7062"/>
</linearGradient>
<linearGradient id="paint29_linear_1153_84407" x1="92.0536" y1="91.6249" x2="86.1949" y2="91.6249" gradientUnits="userSpaceOnUse">
<stop stop-color="#FEBBBA"/>
<stop offset="1" stop-color="#FF928E"/>
</linearGradient>
<linearGradient id="paint30_linear_1153_84407" x1="97.7501" y1="76.029" x2="97.8133" y2="86.9267" gradientUnits="userSpaceOnUse">
<stop stop-color="#FEBBBA"/>
<stop offset="1" stop-color="#FF928E"/>
</linearGradient>
<linearGradient id="paint31_linear_1153_84407" x1="94.1982" y1="74.2446" x2="98.4851" y2="82.0492" gradientUnits="userSpaceOnUse">
<stop stop-color="#FEBBBA"/>
<stop offset="1" stop-color="#FF928E"/>
</linearGradient>
<linearGradient id="paint32_linear_1153_84407" x1="98.024" y1="76.5236" x2="91.6579" y2="75.6014" gradientUnits="userSpaceOnUse">
<stop stop-color="#09005D"/>
<stop offset="1" stop-color="#1A0F91"/>
</linearGradient>
<linearGradient id="paint33_linear_1153_84407" x1="101.198" y1="80.9273" x2="97.5742" y2="75.93" gradientUnits="userSpaceOnUse">
<stop stop-color="#FEBBBA"/>
<stop offset="1" stop-color="#FF928E"/>
</linearGradient>
<linearGradient id="paint34_linear_1153_84407" x1="86.8168" y1="90.939" x2="84.7187" y2="90.939" gradientUnits="userSpaceOnUse">
<stop stop-color="#FEBBBA"/>
<stop offset="1" stop-color="#FF928E"/>
</linearGradient>
<linearGradient id="paint35_linear_1153_84407" x1="63.4369" y1="74.7205" x2="151.686" y2="139.352" gradientUnits="userSpaceOnUse">
<stop stop-color="#09005D"/>
<stop offset="1" stop-color="#1A0F91"/>
</linearGradient>
<linearGradient id="paint36_linear_1153_84407" x1="60.333" y1="89.0292" x2="48.7166" y2="78.8915" gradientUnits="userSpaceOnUse">
<stop stop-color="#09005D"/>
<stop offset="1" stop-color="#1A0F91"/>
</linearGradient>
<linearGradient id="paint37_linear_1153_84407" x1="50.1434" y1="74.2161" x2="93.1255" y2="118.564" gradientUnits="userSpaceOnUse">
<stop stop-color="#FEBBBA"/>
<stop offset="1" stop-color="#FF928E"/>
</linearGradient>
<linearGradient id="paint38_linear_1153_84407" x1="76.4598" y1="75.5058" x2="115.25" y2="115.529" gradientUnits="userSpaceOnUse">
<stop stop-color="#4F52FF"/>
<stop offset="1" stop-color="#4042E2"/>
</linearGradient>
<linearGradient id="paint39_linear_1153_84407" x1="75.452" y1="79.0097" x2="114.242" y2="119.033" gradientUnits="userSpaceOnUse">
<stop stop-color="#4F52FF"/>
<stop offset="1" stop-color="#4042E2"/>
</linearGradient>
<linearGradient id="paint40_linear_1153_84407" x1="103.059" y1="94.3072" x2="110.473" y2="100.898" gradientUnits="userSpaceOnUse">
<stop stop-color="#FEBBBA"/>
<stop offset="1" stop-color="#FF928E"/>
</linearGradient>
<linearGradient id="paint41_linear_1153_84407" x1="223.189" y1="-82.7823" x2="163.28" y2="-29.3865" gradientUnits="userSpaceOnUse">
<stop stop-color="#09005D"/>
<stop offset="1" stop-color="#1A0F91"/>
</linearGradient>
<linearGradient id="paint42_linear_1153_84407" x1="133.855" y1="3.24174" x2="120.565" y2="19.2388" gradientUnits="userSpaceOnUse">
<stop stop-color="#FF928E"/>
<stop offset="1" stop-color="#FE7062"/>
</linearGradient>
<linearGradient id="paint43_linear_1153_84407" x1="174.11" y1="-38.2521" x2="157.025" y2="-26.3582" gradientUnits="userSpaceOnUse">
<stop stop-color="#FF928E"/>
<stop offset="1" stop-color="#FE7062"/>
</linearGradient>
<linearGradient id="paint44_linear_1153_84407" x1="130.969" y1="147.377" x2="112.642" y2="99.4762" gradientUnits="userSpaceOnUse">
<stop stop-color="#09005D"/>
<stop offset="1" stop-color="#1A0F91"/>
</linearGradient>
<clipPath id="clip0_1153_84407">
<rect width="127" height="126" fill="white" transform="translate(0.5)"/>
</clipPath>
</defs>
</svg>
