<svg width="138" height="126" viewBox="0 0 138 126" fill="none" xmlns="http://www.w3.org/2000/svg">
<g clip-path="url(#clip0_1153_108639)">
<path d="M117.781 48.0156H0V118.908H117.781V48.0156Z" fill="#102048"/>
<path d="M129.25 22.9546H107.461V6.14166C107.461 2.74981 110.714 0 114.726 0C116.732 0 118.55 0.688378 119.863 1.79923C121.16 2.89526 121.974 4.41284 121.992 6.08515V6.14166L121.986 16.8129C121.986 16.8648 121.986 16.9204 121.992 16.9723V17.2956L122.014 17.2863C122.296 20.4577 125.428 22.9546 129.25 22.9546Z" fill="#86A7FF"/>
<path d="M136.508 13.1016V16.8168C136.508 18.5122 135.7 20.0493 134.38 21.1546C133.072 22.2691 131.254 22.9538 129.249 22.9538C125.425 22.9538 122.293 20.4569 122.012 17.2856L136.508 13.1025V13.1016Z" fill="#D3DFFF"/>
<path d="M114.725 0C114.57 0 114.421 0.00463242 114.271 0.0138973C114.171 0.0185297 114.077 0.0231621 113.982 0.0324269C113.877 0.0416918 113.777 0.0509566 113.672 0.0648539C113.611 0.0694863 113.551 0.0787512 113.489 0.088016C113.411 0.0972808 113.334 0.111178 113.262 0.125075C113.152 0.143605 113.046 0.162135 112.936 0.186223C112.78 0.21865 112.626 0.256636 112.47 0.30296C112.392 0.32149 112.314 0.345579 112.243 0.368741C112.171 0.38727 112.093 0.415991 112.022 0.439154C111.916 0.47158 111.817 0.509566 111.717 0.551258C111.628 0.583685 111.539 0.617039 111.451 0.65873C111.429 0.667995 111.4 0.67726 111.373 0.691157C111.295 0.723584 111.217 0.76157 111.14 0.798629C110.836 0.944087 110.542 1.10808 110.27 1.29059C110.192 1.34248 110.109 1.39806 110.038 1.44995C109.949 1.5111 109.871 1.57132 109.788 1.6371C109.705 1.70288 109.627 1.76866 109.55 1.83351C109.334 2.02066 109.129 2.218 108.941 2.42832C108.858 2.52189 108.78 2.61083 108.703 2.70441C108.46 3.01849 108.248 3.34646 108.066 3.69297C108.022 3.77728 107.983 3.86622 107.939 3.95516C107.823 4.22199 107.723 4.49901 107.645 4.77973C107.623 4.87794 107.602 4.97151 107.578 5.06509C107.54 5.25687 107.506 5.45421 107.49 5.65063V91.8025H10.3594V9.57521C10.3594 4.28592 15.4305 0 21.6865 0H114.724H114.725Z" fill="#D3DFFF"/>
<path d="M95.5472 8.78125H21.8438V12.0601H95.5472V8.78125Z" fill="#ADC3FF"/>
<path d="M89.836 18.3828H21.8438V21.6616H89.836V18.3828Z" fill="#ADC3FF"/>
<path d="M86.2521 27.9844H21.8438V31.2632H86.2521V27.9844Z" fill="#ADC3FF"/>
<path d="M95.5472 37.5938H21.8438V40.8726H95.5472V37.5938Z" fill="#ADC3FF"/>
<path d="M90.282 47.3125H50.3242V50.5913H90.282V47.3125Z" fill="#ADC3FF"/>
<path d="M58.3647 65.7192C57.9241 65.7192 57.5175 65.5923 57.2391 65.268C56.8971 64.8678 56.9213 64.3203 56.9377 63.958L57.3136 55.4844L57.8671 55.502L57.4912 63.9756C57.4736 64.3703 57.4758 64.7455 57.6885 64.9938C58.1597 65.5432 59.2919 65.0679 59.5144 64.9669C60.6301 64.4611 61.4313 63.5087 62.2062 62.5877C63.0676 61.564 63.9586 60.5059 65.3056 60.0084C66.1046 59.7128 66.6932 60.1464 67.1655 60.492C67.434 60.6884 67.6872 60.8737 67.9546 60.9414C68.6594 61.1174 69.3608 60.9636 70.1028 60.7987C70.7582 60.6532 71.4388 60.5022 72.137 60.5939C72.7759 60.6764 73.291 60.8913 73.7897 61.0998C74.5262 61.4074 75.163 61.6733 76.0836 61.4843C77.3528 61.2258 78.5321 60.6152 79.6719 60.0241C80.0029 59.8527 80.3317 59.6823 80.6649 59.5183C81.9461 58.8892 83.8729 58.0952 85.7887 58.4667L85.6648 58.9235C83.9364 58.59 82.1423 59.3339 80.9422 59.9241C80.6134 60.0853 80.2879 60.2548 79.9602 60.4235C78.7831 61.0331 77.5665 61.664 76.2119 61.9392C75.095 62.1662 74.3048 61.8382 73.5431 61.5195C73.0828 61.3277 72.606 61.1285 72.0526 61.0572C71.4673 60.9821 70.8722 61.1137 70.242 61.2517C69.4583 61.425 68.6517 61.6038 67.7957 61.3907C67.4132 61.2944 67.1009 61.0664 66.8006 60.8459C66.3063 60.4837 65.9808 60.2706 65.5248 60.4374C64.3181 60.883 63.5104 61.8428 62.6555 62.8592C61.8434 63.8237 61.0049 64.8215 59.7741 65.3792C59.3368 65.5775 58.8294 65.7202 58.3625 65.7202L58.3647 65.7192Z" fill="#102048"/>
<path opacity="0.3" d="M107.488 50.9846V91.8009H10.3594V47.4297L40.6998 68.7675C42.3734 69.9479 44.5676 70.3982 46.7289 70.1397C47.3547 70.0646 47.998 70.0368 48.6403 70.0507L69.3217 70.5427C70.0363 70.5612 70.7454 70.6363 71.4381 70.7632C73.5829 71.1569 75.8275 70.7956 77.5943 69.6903L107.485 50.9846H107.488Z" fill="#86A7FF"/>
<path d="M44.2876 77.4065L43.4776 78.1653L6.92511 112.428L0.00390625 118.911V48.0156L44.2876 77.4065Z" fill="#2A94F4"/>
<path d="M117.781 48.0156L73.4961 77.4056L117.781 118.908V48.0156Z" fill="#2A94F4"/>
<path d="M43.4776 78.1642L6.92511 112.426L0.00390625 113.715V101.119C18.2741 90.0491 38.7736 77.2136 43.4557 76.9375L43.4776 78.1651V78.1642Z" fill="#CCE9FF"/>
<path d="M74.3086 78.1651L110.861 112.427L117.782 113.715V101.119C99.5121 90.0491 79.0126 77.2136 74.3305 76.9375L74.3086 78.1651Z" fill="#CCE9FF"/>
<path d="M117.781 118.909H0L0.0219199 109.583L40.6066 78.4595C42.7361 76.8261 45.509 75.9219 48.3838 75.9219H69.074C71.906 75.9219 74.6405 76.8002 76.7591 78.3891L117.896 109.261L117.781 118.91V118.909Z" fill="#2A94F4"/>
<path opacity="0.4" d="M125.981 120.989C133.88 114.311 133.88 103.485 125.981 96.8081C118.082 90.1309 105.276 90.1308 97.3766 96.8081C89.4776 103.485 89.4776 114.311 97.3766 120.989C105.276 127.666 118.082 127.666 125.981 120.989Z" fill="#5B4DAD"/>
<path d="M131.697 97.1309C139.385 103.63 139.385 114.167 131.697 120.666C124.009 127.165 111.544 127.165 103.856 120.666C96.168 114.167 96.168 103.63 103.856 97.1309C111.544 90.6319 124.009 90.6319 131.697 97.1309Z" fill="white" stroke="#D3DFFF"/>
<path d="M117.343 118.163C116.383 118.163 115.463 117.823 114.805 117.208L107.649 110.528C107.033 109.953 107.084 109.064 107.765 108.544C108.447 108.023 109.498 108.067 110.113 108.642L117.268 115.321C117.283 115.334 117.31 115.356 117.365 115.35C117.422 115.342 117.436 115.314 117.445 115.297L125.148 100.473C125.517 99.7625 126.496 99.4401 127.338 99.7514C128.179 100.064 128.562 100.893 128.192 101.603L120.49 116.427C120.019 117.331 119.052 117.966 117.899 118.124C117.713 118.15 117.527 118.162 117.342 118.162L117.343 118.163Z" fill="#159655"/>
</g>
<defs>
<clipPath id="clip0_1153_108639">
<rect width="138" height="126" fill="white"/>
</clipPath>
</defs>
</svg>
