<svg width="222" height="222" viewBox="0 0 222 222" fill="none" xmlns="http://www.w3.org/2000/svg">
<g clip-path="url(#clip0_1255_23994)">
<path d="M209.233 147.721C188.253 197.038 132.366 224.666 83.9021 217.214C76.0159 216.001 54.3955 212.389 35.2541 195.347C-1.59463 162.54 -9.47524 97.5777 20.2499 51.7971C41.8845 18.4766 80.666 -0.410789 117.516 0.533817C125.454 0.736967 155.874 1.99143 182.608 23.9996C186.535 27.2318 195.196 34.9135 203.001 47.0994C221.329 75.7142 222.905 115.581 209.233 147.722V147.721Z" fill="url(#paint0_linear_1255_23994)"/>
<path d="M15.2751 180.052C15.2751 181.962 16.8421 183.525 18.7574 183.525H207.058C208.974 183.525 210.541 181.962 210.541 180.052L212.108 72.0205C212.108 70.1107 209.853 66.3813 205.722 66.6611L21.6933 61.9073C19.2903 61.8448 16.9672 62.7689 15.2656 64.462C13.5641 66.1552 12.633 68.4705 12.69 70.8672L15.2759 180.052H15.2751Z" fill="url(#paint1_linear_1255_23994)"/>
<path d="M18.7119 176.719C18.7119 178.528 20.1941 180.008 22.0065 180.008H202.516C204.328 180.008 205.811 178.529 205.811 176.719L207.289 78.647C207.115 72.7454 201.932 70.6238 198.79 70.7495L22.415 66.0256C20.727 65.9806 19.0943 66.6295 17.8987 67.8208C16.7031 69.0112 16.0451 70.6412 16.0879 72.3264L18.7111 176.719H18.7119Z" fill="url(#paint2_linear_1255_23994)"/>
<path d="M203.862 130.131H203.857C203.588 130.127 203.375 129.908 203.379 129.642L203.496 121.688C203.5 121.424 203.715 121.213 203.978 121.213H203.985C204.252 121.217 204.465 121.436 204.461 121.702L204.344 129.656C204.34 129.92 204.125 130.131 203.862 130.131Z" fill="#BDD0FB"/>
<path d="M204.15 110.639H204.142C203.876 110.636 203.663 110.417 203.667 110.15L204.115 79.688C204.106 77.8786 203.556 76.4337 202.48 75.4037C200.469 73.4813 197.278 73.5793 197.144 73.5856L140.77 72.0766C140.504 72.0695 140.294 71.8482 140.301 71.5818C140.308 71.3154 140.512 71.0893 140.797 71.113L197.137 72.622C197.487 72.6015 200.885 72.543 203.148 74.7073C204.421 75.9246 205.071 77.6028 205.081 79.6928L204.632 110.164C204.629 110.428 204.413 110.639 204.15 110.639H204.15Z" fill="#BDD0FB"/>
<path d="M0.447357 192.492L221.553 192.492C221.8 192.492 222 192.292 222 192.046V183.447C222 183.2 221.8 183 221.553 183L0.447357 183C0.200287 183 0 183.2 0 183.447V192.046C0 192.292 0.200287 192.492 0.447357 192.492Z" fill="url(#paint3_linear_1255_23994)"/>
<path d="M173.838 6.44216L55.5584 5.71888C51.6715 5.69517 48.5622 8.93686 48.7546 12.8125L56.8917 180.58H188.514L195.823 30.6889L173.837 6.44216H173.838Z" fill="#91B3FA"/>
<path d="M178.756 29.9709C174.903 29.8358 171.941 26.5206 172.244 22.6836L173.512 6.66406L195.845 30.5915L178.755 29.9709H178.756Z" fill="#7D97F4"/>
<path d="M122.903 48.7577C132.323 48.8905 168.49 49.3608 177.622 49.4786C178.774 49.4936 179.697 50.254 179.662 51.1568C179.629 52.016 178.735 52.6887 177.639 52.6784L122.946 52.1654C121.892 52.1559 121.007 51.5172 120.903 50.6928L120.877 50.4841C120.759 49.5418 121.698 48.7395 122.903 48.7561V48.7577Z" fill="#BDD0FB"/>
<path d="M121.924 58.7773C122.076 58.9939 122.363 59.1315 122.675 59.1378L160.212 59.9433C160.684 59.9536 161.072 59.6658 161.086 59.2967L161.161 57.3569C161.176 56.9711 160.78 56.6478 160.289 56.6431L123.781 56.3087C122.155 56.2937 121.135 57.6509 121.925 58.7781L121.924 58.7773Z" fill="#BDD0FB"/>
<path d="M122.161 66.3018C131.581 66.4346 167.747 66.905 176.88 67.0235C178.032 67.0385 178.955 67.799 178.92 68.7017C178.887 69.5609 177.993 70.2336 176.896 70.2233L122.204 69.7103C121.15 69.7008 120.265 69.0621 120.161 68.2377L120.135 68.029C120.016 67.0868 120.955 66.2844 122.161 66.301V66.3018Z" fill="#BDD0FB"/>
<path d="M121.182 76.3223C121.334 76.5389 121.621 76.6764 121.933 76.6827L159.47 77.4882C159.942 77.4985 160.33 77.2108 160.344 76.8416L160.419 74.9018C160.434 74.5161 160.037 74.1928 159.546 74.188L123.039 73.8536C121.413 73.8386 120.393 75.1958 121.183 76.3231L121.182 76.3223Z" fill="#BDD0FB"/>
<g opacity="0.8">
<path d="M106.031 47.5097C105.838 47.2726 105.536 47.1745 105.214 47.1809L75.9673 47.7935L75.2286 45.4505C75.1256 45.1241 74.8184 44.9154 74.4708 44.9241L70.4549 45.0292C70.0242 45.0403 69.6758 45.3391 69.6758 45.7683C69.6758 46.1975 70.0242 46.4789 70.4549 46.4687L73.8865 46.388L80.0956 66.1963C80.2002 66.5299 80.5137 66.7591 80.8692 66.7639L101.398 67.039C101.879 67.0453 102.27 66.7433 102.27 66.2888C102.27 65.8343 101.879 65.5228 101.398 65.5173L81.4686 65.3031L79.8692 60.1603L101.77 60.1935C102.218 60.1935 102.614 59.901 102.739 59.4947L106.196 48.3373C106.286 48.0464 106.225 47.7468 106.032 47.5097H106.031Z" fill="white"/>
<path d="M83.8719 67.9867C82.183 67.9606 80.8164 69.2728 80.8164 70.9122C80.8164 72.5517 82.183 73.9207 83.8719 73.965C85.5711 74.0093 86.9614 72.6979 86.9614 71.0403C86.9614 69.3827 85.5711 68.0128 83.8719 67.9867ZM83.8719 72.3706C83.0825 72.3524 82.4419 71.713 82.4419 70.9462C82.4419 70.1795 83.0825 69.5668 83.8719 69.5811C84.6637 69.5953 85.309 70.2348 85.309 71.0063C85.309 71.7778 84.6629 72.3896 83.8719 72.3714V72.3706Z" fill="white"/>
<path d="M97.5583 68.1977C95.7855 68.17 94.3516 69.5138 94.3516 71.1935C94.3516 72.8733 95.7855 74.2764 97.5583 74.323C99.3422 74.3696 100.801 73.0266 100.801 71.3279C100.801 69.6292 99.3422 68.2254 97.5583 68.1977ZM97.5583 72.6891C96.7301 72.6701 96.0571 72.0148 96.0571 71.2283C96.0571 70.4418 96.7293 69.815 97.5583 69.8308C98.3889 69.8458 99.0674 70.5011 99.0674 71.2916C99.0674 72.082 98.3897 72.7089 97.5583 72.6891Z" fill="white"/>
</g>
<path opacity="0.81" d="M89.2815 81.7534C75.1838 81.7534 63.7148 70.3035 63.7148 56.2292C63.7148 42.155 75.1838 30.7051 89.2815 30.7051C103.379 30.7051 114.848 42.155 114.848 56.2292C114.848 70.3035 103.379 81.7534 89.2815 81.7534ZM89.2815 32.8575C76.3731 32.8575 65.8709 43.3423 65.8709 56.2292C65.8709 69.1162 76.3731 79.6009 89.2815 79.6009C102.19 79.6009 112.692 69.1162 112.692 56.2292C112.692 43.3423 102.19 32.8575 89.2815 32.8575Z" fill="white"/>
<g opacity="0.3">
<path d="M42.3539 23.199C42.1916 23.5626 41.7656 23.7262 41.4014 23.5642C40.6943 23.2504 39.9627 22.9619 39.2279 22.7081C38.8558 22.5793 38.6571 22.1777 38.7782 21.8054C38.7798 21.8007 38.7814 21.7967 38.783 21.792C38.9136 21.4165 39.3245 21.2173 39.7006 21.3469C40.4742 21.6141 41.2446 21.9177 41.9889 22.2489C42.3294 22.3998 42.4948 22.7824 42.3816 23.1286C42.3737 23.1524 42.365 23.1761 42.3547 23.1998L42.3539 23.199ZM35.5652 21.7153C34.8027 21.5635 34.0259 21.4434 33.2571 21.3572C32.8612 21.3129 32.5762 20.9564 32.6205 20.5612C32.6664 20.1644 33.022 19.8814 33.4178 19.9257C34.227 20.0166 35.0442 20.1431 35.847 20.3027C36.2374 20.3802 36.4915 20.7596 36.4132 21.1493C36.4076 21.1778 36.4005 21.2054 36.3918 21.2323C36.2801 21.5746 35.9278 21.7872 35.5652 21.7153ZM29.4668 21.1983C28.6917 21.2197 27.9078 21.275 27.1374 21.3635C26.7415 21.4086 26.3844 21.1248 26.3385 20.7296C26.2934 20.3351 26.5776 19.9778 26.9735 19.932C27.7851 19.8395 28.6109 19.781 29.4265 19.7581C29.8247 19.747 30.1565 20.0601 30.1676 20.4577C30.17 20.5422 30.1573 20.6244 30.1327 20.7003C30.0409 20.9817 29.7796 21.1888 29.4668 21.1975V21.1983ZM23.4058 22.056C22.6544 22.2504 21.9022 22.4797 21.1706 22.7366C20.7945 22.8686 20.3827 22.6718 20.2505 22.2971C20.1183 21.9216 20.3154 21.5114 20.6907 21.3786C21.4611 21.1074 22.2529 20.8663 23.0439 20.6616C23.4295 20.562 23.823 20.7936 23.9228 21.1786C23.9584 21.3161 23.9521 21.4552 23.9109 21.5809C23.8373 21.807 23.6536 21.992 23.4058 22.056ZM17.6867 24.24C16.9986 24.595 16.3161 24.9847 15.6582 25.3981C15.3209 25.6099 14.8759 25.5087 14.6637 25.172C14.4515 24.8353 14.5528 24.391 14.8901 24.1792C15.5822 23.7444 16.3003 23.3342 17.0248 22.9603C17.3787 22.7777 17.8134 22.916 17.9963 23.2693C18.0881 23.4472 18.0992 23.6456 18.0414 23.8227C17.9844 23.9966 17.8625 24.1491 17.6867 24.2392V24.24ZM12.5948 27.6327C12.0017 28.1315 11.4229 28.6627 10.8734 29.2097C10.5915 29.4911 10.1347 29.4903 9.8536 29.2097C9.57173 28.9283 9.57173 28.473 9.8536 28.1916C10.4308 27.6153 11.0405 27.0565 11.6652 26.5316C11.97 26.2755 12.4245 26.3142 12.6819 26.6186C12.8489 26.8162 12.8901 27.077 12.8157 27.3055C12.7753 27.4288 12.7016 27.5434 12.5948 27.6327ZM2.40451 52.3616C2.00862 52.4059 1.65153 52.1221 1.60719 51.7269C1.51613 50.9175 1.45912 50.093 1.43775 49.2765C1.42745 48.8789 1.74179 48.5484 2.14006 48.5382C2.53832 48.5279 2.86929 48.8417 2.87958 49.2393C2.89938 50.0148 2.95401 50.7973 3.04111 51.5664C3.05298 51.6716 3.04111 51.7743 3.01023 51.8692C2.92551 52.1292 2.6951 52.33 2.40451 52.3624V52.3616ZM8.38405 32.0656C7.9169 32.6838 7.47113 33.3288 7.0594 33.9849C6.8472 34.3216 6.40222 34.4236 6.06492 34.2118C5.72762 33.9999 5.62707 33.5565 5.83768 33.2189C6.27158 32.5289 6.74111 31.8483 7.2328 31.1977C7.47271 30.88 7.92482 30.8167 8.24312 31.057C8.4957 31.2467 8.58754 31.57 8.4949 31.8546C8.47115 31.9289 8.43394 32 8.38405 32.0656ZM2.24774 46.0877C1.85185 46.0427 1.5676 45.6854 1.61273 45.2909C1.70537 44.4815 1.83443 43.6657 1.99516 42.8658C2.07196 42.4753 2.45439 42.2239 2.84474 42.3014C3.23509 42.3796 3.48846 42.7591 3.41008 43.1496C3.25726 43.91 3.13454 44.6854 3.04665 45.4546C3.04111 45.5036 3.03002 45.551 3.01577 45.5961C2.91204 45.9146 2.59454 46.128 2.24853 46.0885L2.24774 46.0877ZM5.27314 37.3254C4.95643 38.0313 4.66664 38.7609 4.41089 39.4929C4.28025 39.8683 3.86852 40.0667 3.49242 39.9363C3.12108 39.8075 2.92313 39.4059 3.04348 39.0344C3.04506 39.0297 3.04665 39.0249 3.04823 39.0202C3.31665 38.2495 3.62227 37.4819 3.95561 36.7389C4.11872 36.3761 4.5447 36.2132 4.90892 36.3761C5.2486 36.5278 5.41329 36.9096 5.30085 37.2551C5.29294 37.2796 5.28343 37.3033 5.27314 37.327V37.3254Z" fill="#BDD0FB"/>
<path d="M4.03112 56.8221C4.07467 56.687 4.07942 56.5384 4.03587 56.3921C3.92819 56.0364 3.82684 55.6736 3.73262 55.3116C3.63285 54.9266 3.23934 54.695 2.85374 54.7946C2.46814 54.8942 2.23536 55.2871 2.33591 55.672C2.43409 56.0522 2.54177 56.4348 2.65421 56.8087C2.76902 57.1889 3.17203 57.4047 3.55288 57.2901C3.78804 57.219 3.95986 57.0395 4.03033 56.8229L4.03112 56.8221Z" fill="#BDD0FB"/>
</g>
<g opacity="0.3">
<path d="M18.1031 73.6898C18.2108 73.3594 18.0651 72.9902 17.746 72.8266C17.415 72.6574 17.0817 72.4788 16.7562 72.2946C16.4094 72.0986 15.9692 72.2211 15.7736 72.5673C15.5765 72.9151 15.7 73.3531 16.0468 73.5483C16.3897 73.742 16.7404 73.9301 17.0888 74.108C17.4435 74.289 17.8782 74.1491 18.0595 73.7949C18.0777 73.7601 18.092 73.7246 18.1039 73.6882L18.1031 73.6898Z" fill="#BDD0FB"/>
<path d="M57.1579 58.7713C57.0161 59.1428 56.5997 59.3301 56.2275 59.1886C55.8554 59.0472 55.6685 58.6322 55.8103 58.2598C56.0795 57.5524 56.3233 56.822 56.5371 56.0813C56.6456 55.7003 57.047 55.479 57.4302 55.5889C57.8127 55.6987 58.0336 56.0979 57.9235 56.4805C57.8309 56.8014 57.7335 57.1192 57.6306 57.4346C57.4841 57.8844 57.3257 58.3342 57.1587 58.7721L57.1579 58.7713ZM57.9346 53.253C57.5403 53.1953 57.2679 52.8301 57.3257 52.4365C57.4358 51.6808 57.5158 50.9125 57.5625 50.1528C57.5854 49.756 57.9291 49.4541 58.3265 49.4778C58.724 49.5023 59.0265 49.8438 59.0019 50.2406C58.9528 51.0405 58.8689 51.8492 58.7525 52.6444C58.7462 52.6855 58.7367 52.7258 58.7248 52.7637C58.6179 53.091 58.2877 53.3044 57.9346 53.253ZM55.5125 62.3347C55.1277 63.0374 54.7073 63.7338 54.2623 64.4033C54.0422 64.7346 53.5948 64.8255 53.2623 64.6057C52.9305 64.386 52.8395 63.9393 53.0596 63.6073C53.4816 62.971 53.8807 62.3102 54.2465 61.643C54.4381 61.2944 54.876 61.1656 55.2259 61.3569C55.5347 61.5261 55.6709 61.8873 55.5656 62.2106C55.5521 62.2525 55.5339 62.2944 55.5125 62.3339V62.3347ZM58.3083 47.0882C57.9109 47.1182 57.5641 46.8218 57.534 46.425C57.4754 45.6646 57.3843 44.8986 57.2616 44.1461C57.1975 43.7532 57.4643 43.3841 57.8578 43.32C58.2513 43.256 58.6211 43.5224 58.6852 43.9153C58.8143 44.7073 58.9101 45.5144 58.9718 46.3151C58.979 46.4116 58.9671 46.5056 58.9394 46.5926C58.8515 46.8621 58.6084 47.0653 58.3083 47.0882ZM51.8743 67.5154C51.3438 68.1162 50.7809 68.7027 50.1997 69.2584C49.9123 69.5335 49.4562 69.524 49.1799 69.237C48.9043 68.9501 48.9138 68.494 49.2012 68.2189C49.7531 67.6909 50.2884 67.1336 50.7919 66.5629C51.0556 66.2641 51.5109 66.2356 51.8102 66.4989C52.0327 66.6949 52.1055 66.9977 52.0192 67.2625C51.9899 67.3534 51.9416 67.4395 51.8743 67.5154ZM47.1854 71.7744C46.5353 72.2463 45.8568 72.6961 45.1703 73.1111C44.8298 73.3174 44.3864 73.2083 44.1798 72.8684C43.9731 72.5278 44.0824 72.0851 44.4228 71.8796C45.0753 71.4851 45.7198 71.0575 46.3374 70.6093C46.6596 70.3753 47.1109 70.4473 47.3445 70.769C47.4855 70.9626 47.5155 71.2037 47.4467 71.4156C47.4015 71.5555 47.3128 71.682 47.1846 71.7752L47.1854 71.7744ZM41.6785 74.9118C40.9406 75.2311 40.1805 75.5228 39.4196 75.7789C39.0419 75.9062 38.6333 75.7038 38.5059 75.3268C38.3784 74.9497 38.5819 74.5411 38.9588 74.4146C39.6817 74.1711 40.403 73.8945 41.1053 73.5909C41.4711 73.4328 41.8955 73.6004 42.0538 73.9656C42.1267 74.1332 42.1306 74.3134 42.0784 74.4739C42.0166 74.6636 41.8765 74.8264 41.6793 74.9126L41.6785 74.9118ZM35.6166 76.7757C34.8264 76.9259 34.0204 77.0445 33.2215 77.1275C32.8256 77.1686 32.4709 76.8816 32.4297 76.4856C32.3885 76.0904 32.6768 75.7363 33.0726 75.6952C33.8312 75.6161 34.596 75.5039 35.3474 75.3608C35.7386 75.2865 36.1163 75.5426 36.1907 75.9331C36.2144 76.0564 36.2049 76.1781 36.1685 76.2896C36.0901 76.5315 35.8851 76.7235 35.6174 76.7749L35.6166 76.7757ZM29.2895 77.2642C28.4874 77.2374 27.6758 77.1757 26.8777 77.0808C26.4818 77.0342 26.1992 76.6753 26.2467 76.2809C26.2934 75.8872 26.6521 75.6042 27.048 75.6509C27.8065 75.741 28.5777 75.7995 29.3394 75.8256C29.7377 75.839 30.0488 76.1726 30.0354 76.5694C30.033 76.639 30.0211 76.7054 30.0005 76.7678C29.9039 77.065 29.6189 77.2753 29.2895 77.2642ZM23.0162 76.3552C22.4438 76.2074 21.8689 76.0398 21.3075 75.858C21.1041 75.7916 20.9022 75.7236 20.7018 75.654C20.3257 75.5228 20.1183 75.1142 20.2592 74.7371C20.3907 74.3616 20.8016 74.1632 21.1777 74.2944C21.3685 74.3608 21.5609 74.4257 21.7541 74.4889C22.2878 74.662 22.8341 74.8209 23.3788 74.9624C23.7644 75.062 23.9964 75.4548 23.8959 75.8398C23.8919 75.854 23.888 75.8683 23.8832 75.8825C23.766 76.2414 23.3876 76.4524 23.017 76.356L23.0162 76.3552Z" fill="#BDD0FB"/>
<path d="M57.7813 40.51C57.8256 40.3741 57.8296 40.2231 57.7845 40.076C57.6697 39.7037 57.5446 39.3259 57.4131 38.9552C57.2801 38.5805 56.8684 38.3837 56.4931 38.5157C56.1178 38.6485 55.9206 39.0587 56.0528 39.4342C56.1779 39.7867 56.2959 40.1456 56.4052 40.4989C56.5224 40.8792 56.9254 41.0926 57.3062 40.9756C57.5398 40.9037 57.71 40.725 57.7805 40.5092L57.7813 40.51Z" fill="#BDD0FB"/>
</g>
<path d="M46.8607 34.7209C46.7831 34.6 46.6367 34.5423 46.4973 34.5763L42.5123 35.5501C41.1354 34.2206 39.5352 33.1005 37.7544 32.2555L37.2691 28.1909C37.2517 28.0486 37.1464 27.9324 37.0054 27.9016L32.1961 26.8613C32.0552 26.8305 31.9111 26.8929 31.8367 27.0155L29.7091 30.5148C27.7376 30.548 25.8167 30.9061 24.0123 31.548L20.7881 29.0153C20.6749 28.9268 20.5181 28.9189 20.397 28.9972L16.2591 31.6571C16.138 31.7345 16.0802 31.8808 16.1142 32.0199L17.0897 35.9983C15.7579 37.3729 14.6352 38.9705 13.7896 40.7482L9.71822 41.2328C9.5757 41.2502 9.45931 41.3553 9.42843 41.496L8.38644 46.2981C8.35635 46.4388 8.41811 46.5826 8.54084 46.6569L12.0461 48.7809C12.0793 50.7492 12.438 52.6669 13.0809 54.4683L10.5433 57.6871C10.4546 57.8001 10.4467 57.9567 10.525 58.0776L13.1894 62.2086C13.267 62.3295 13.4135 62.3872 13.5528 62.3532L17.5379 61.3794C18.9148 62.7089 20.515 63.829 22.2957 64.674L22.781 68.7386C22.7977 68.8809 22.9038 68.9971 23.0447 69.0279L27.8548 70.0682C27.9957 70.0982 28.1398 70.0366 28.2143 69.914L30.3418 66.4146C32.3133 66.3814 34.2342 66.0234 36.0387 65.3815L39.2628 67.9142C39.376 68.0027 39.5328 68.0106 39.6539 67.9323L43.7918 65.2724C43.9129 65.195 43.9707 65.0487 43.9367 64.9096L42.9612 60.9312C44.293 59.5566 45.4149 57.959 46.2614 56.1813L50.3327 55.6967C50.4752 55.6793 50.5916 55.5742 50.6225 55.4335L51.6645 50.6314C51.6946 50.4907 51.6328 50.3468 51.5101 50.2725L48.0049 48.1486C47.9716 46.1803 47.6129 44.2626 46.97 42.4612L49.5077 39.2424C49.5963 39.1293 49.6043 38.9728 49.5259 38.8519L46.8615 34.7209H46.8607Z" fill="#BDD0FB"/>
<path d="M34.4548 50.6593C33.2418 53.0987 30.2679 54.0986 27.8245 52.8877C26.6407 52.3011 25.7563 51.2901 25.3351 50.0396C24.9139 48.7899 25.0049 47.45 25.5924 46.2683C26.8054 43.8289 29.7794 42.829 32.2228 44.04C34.4453 45.1411 35.4747 47.6982 34.7296 49.9874C34.656 50.2143 34.5641 50.4388 34.4548 50.6585V50.6593ZM26.4293 49.672C26.7524 50.6309 27.4302 51.4063 28.3383 51.8561C30.2117 52.7841 32.492 52.0173 33.4216 50.1471C34.3519 48.2769 33.5831 46.0003 31.7097 45.0723C29.8364 44.1443 27.556 44.9111 26.6265 46.7813C26.5426 46.9513 26.4713 47.1244 26.4135 47.3014C26.1633 48.069 26.1665 48.8934 26.4293 49.6728V49.672Z" fill="url(#paint4_linear_1255_23994)"/>
<path d="M41.4927 52.2892C41.621 51.8963 41.7295 51.494 41.819 51.0845C41.8467 50.9557 41.8728 50.826 41.8966 50.6964C42.0137 50.0561 42.0803 49.4079 42.0945 48.7613C42.0945 48.7526 42.0945 48.7439 42.0945 48.7352C42.0945 48.71 42.0953 48.6855 42.0953 48.6602C42.0953 48.6111 42.0961 48.5629 42.0961 48.5139C42.0961 48.3859 42.013 48.2776 41.8974 48.2396C41.8688 48.2301 41.8388 48.2254 41.8079 48.2254C41.6487 48.2254 41.5197 48.3542 41.5189 48.5131C41.5181 49.332 41.4286 50.1557 41.2536 50.962C40.385 54.9681 37.522 58.0398 33.9296 59.3654C31.932 60.1029 29.7079 60.3006 27.4766 59.8176C27.0855 59.733 26.7007 59.6294 26.3254 59.5069C23.7972 58.6864 21.6467 57.0359 20.1883 54.7744C18.5128 52.1769 17.9507 49.0831 18.6063 46.0635C19.9602 39.8275 26.1401 35.857 32.3833 37.2079C32.7681 37.2909 33.1474 37.3936 33.5195 37.5146C35.1324 38.0387 36.6122 38.9082 37.8498 40.0678C37.8814 40.0978 37.9186 40.1192 37.9582 40.1318C38.0612 40.165 38.1791 40.1389 38.2575 40.0551C38.366 39.9389 38.3613 39.7571 38.2441 39.6481C36.9448 38.4307 35.3905 37.517 33.6977 36.9676C33.3073 36.8403 32.909 36.7328 32.5052 36.6459C25.9501 35.2278 19.4614 39.4006 18.0417 45.9425C17.3537 49.1123 17.9436 52.3603 19.7021 55.0874C21.2334 57.462 23.4908 59.1939 26.1448 60.0563C26.5391 60.1844 26.9422 60.2934 27.3531 60.382C30.5289 61.0689 33.7816 60.48 36.514 58.7244C38.8925 57.1956 40.6281 54.9404 41.4912 52.29L41.4927 52.2892Z" fill="url(#paint5_linear_1255_23994)"/>
<g opacity="0.3">
<path d="M68.0652 5.62723C68.1246 5.44463 68.0604 5.23674 67.8926 5.12291C67.5806 4.90948 67.2576 4.70317 66.9329 4.50872C66.7223 4.38224 66.4484 4.45101 66.3217 4.66128C66.1942 4.87154 66.2639 5.14504 66.4745 5.27152C66.7841 5.45649 67.0913 5.65331 67.3898 5.85725C67.5925 5.99558 67.8696 5.9442 68.009 5.74105C68.0335 5.70469 68.0517 5.66675 68.0644 5.62723H68.0652Z" fill="#BDD0FB"/>
<path d="M65.0552 4.00564C64.9555 4.23013 64.6926 4.3321 64.4677 4.2325C63.9 3.98192 63.3125 3.75822 62.7219 3.56614C62.5975 3.52582 62.4716 3.4863 62.3458 3.44836C62.1106 3.37721 61.9768 3.12901 62.048 2.89424C62.1241 2.67449 62.3679 2.52588 62.6039 2.59703C62.7361 2.63655 62.8667 2.67765 62.9974 2.72034C63.6166 2.92112 64.2326 3.15667 64.828 3.41911C65.0386 3.51159 65.1415 3.74873 65.0719 3.96295C65.0671 3.97718 65.0616 3.99141 65.056 4.00564H65.0552ZM60.1438 2.92823C59.4019 2.80017 58.6458 2.71639 57.8959 2.68002C57.6497 2.66817 57.4605 2.45948 57.4723 2.21444C57.4842 1.97019 57.6932 1.77968 57.9387 1.79154C58.7249 1.82948 59.5175 1.91722 60.2958 2.0516C60.5381 2.0935 60.7004 2.32352 60.6593 2.5662C60.6553 2.58754 60.6498 2.60809 60.6434 2.62785C60.5761 2.83496 60.3647 2.96617 60.1438 2.92823ZM55.6338 2.71164C54.884 2.76856 54.1302 2.87369 53.3931 3.02309C53.1524 3.0721 52.9172 2.91637 52.8681 2.67607C52.819 2.43419 52.9742 2.20021 53.2157 2.15199C53.9893 1.99548 54.7803 1.88561 55.5657 1.82553C55.8112 1.80656 56.025 1.98995 56.044 2.23499C56.0479 2.29428 56.0408 2.35277 56.0234 2.40652C55.9695 2.57252 55.8191 2.6982 55.6338 2.71243V2.71164ZM51.2077 3.60803C50.4944 3.84754 49.7881 4.1329 49.1119 4.45699C48.8894 4.56291 48.6234 4.46964 48.5173 4.24831C48.4112 4.02698 48.5046 3.76138 48.7263 3.65467C49.4365 3.31477 50.1753 3.01518 50.9243 2.7646C51.1571 2.68635 51.4104 2.81203 51.4888 3.04522C51.5197 3.13928 51.5189 3.23651 51.4904 3.32346C51.4484 3.4531 51.3479 3.56139 51.2085 3.60803H51.2077ZM47.1348 5.55574C46.5014 5.96046 45.887 6.40865 45.3082 6.88767C45.1189 7.04419 44.8379 7.0181 44.6811 6.82918C44.5243 6.64026 44.5496 6.35964 44.7397 6.20313C45.3462 5.70118 45.9899 5.23244 46.6542 4.80717C46.8617 4.67516 47.1372 4.73523 47.2694 4.94155C47.3446 5.05854 47.3581 5.19687 47.3177 5.31939C47.2868 5.41345 47.2243 5.49883 47.1348 5.55653V5.55574ZM43.6597 8.43145C43.1442 8.97766 42.6581 9.56103 42.2155 10.1657C42.0706 10.3641 41.7919 10.4068 41.5931 10.2622C41.3944 10.1175 41.3516 9.84006 41.4965 9.64087C41.9613 9.00691 42.4712 8.3943 43.012 7.82121C43.1807 7.64257 43.4625 7.63387 43.6415 7.80224C43.7713 7.92397 43.8117 8.10499 43.7595 8.26387C43.7397 8.32474 43.7072 8.38165 43.6597 8.43145ZM40.9953 12.0668C40.6311 12.7205 40.3033 13.4059 40.0206 14.1046C39.928 14.3323 39.6691 14.4422 39.4411 14.3505C39.213 14.2588 39.1061 14.0011 39.1948 13.771C39.4909 13.0391 39.8354 12.3205 40.217 11.6352C40.3366 11.421 40.6082 11.3435 40.8227 11.4629C41.012 11.568 41.0943 11.7901 41.0302 11.9885C41.0215 12.0154 41.0104 12.0415 40.9961 12.0676L40.9953 12.0668ZM38.3524 18.8395C38.1085 18.8055 37.9391 18.581 37.9731 18.3376C38.0673 17.6641 38.1996 16.9843 38.3666 16.3187C38.3912 16.2175 38.4181 16.1172 38.4442 16.0168C38.5004 15.7788 38.7522 15.6389 38.9905 15.7029C39.2281 15.767 39.369 16.0104 39.3049 16.2476C39.2795 16.3416 39.255 16.4365 39.2312 16.5329C39.0713 17.1701 38.9446 17.8182 38.8551 18.4609C38.8512 18.487 38.8456 18.5131 38.8377 18.5376C38.772 18.7391 38.5701 18.8703 38.3524 18.8403V18.8395Z" fill="#BDD0FB"/>
</g>
<g opacity="0.3">
<path d="M75.2454 27.1738C74.996 27.9082 74.6991 28.633 74.3642 29.3294C74.2573 29.5508 73.9913 29.644 73.7696 29.5373C73.5479 29.4306 73.4576 29.1642 73.5613 28.9437C73.8812 28.2797 74.1639 27.588 74.4022 26.8877C74.4814 26.6553 74.7347 26.5304 74.9675 26.6094C75.1987 26.6877 75.323 26.9367 75.2478 27.1683L75.2462 27.1738H75.2454ZM75.3333 25.2704C75.0926 25.2198 74.9382 24.9842 74.9889 24.7439C75.1409 24.0207 75.251 23.2816 75.3151 22.5457C75.3373 22.3022 75.5526 22.1196 75.7981 22.1417C76.0436 22.1631 76.2241 22.3789 76.2027 22.6231C76.1354 23.3938 76.0198 24.1693 75.8599 24.9265C75.8567 24.9423 75.8527 24.9582 75.8472 24.9732C75.7775 25.1866 75.5574 25.3178 75.3317 25.2704H75.3333ZM73.2248 31.3625C72.8044 32.0146 72.3412 32.647 71.8471 33.2414C71.6903 33.4304 71.4085 33.4564 71.22 33.2999C71.0308 33.1434 71.0046 32.8636 71.1614 32.6739C71.6333 32.1071 72.0751 31.504 72.4758 30.8819C72.6088 30.6756 72.8843 30.6155 73.091 30.7483C73.2652 30.8598 73.3349 31.0724 73.2739 31.2597C73.262 31.2953 73.2462 31.3301 73.2248 31.3633V31.3625ZM75.8345 20.7537C75.5891 20.7624 75.3824 20.5703 75.3737 20.3252C75.3476 19.5869 75.2755 18.8431 75.1591 18.1143C75.1211 17.8716 75.2866 17.644 75.5289 17.6052C75.772 17.5665 76 17.7317 76.0388 17.9744C76.1607 18.7388 76.2367 19.5197 76.2637 20.2936C76.2653 20.3474 76.2581 20.3987 76.2423 20.447C76.1861 20.6193 76.0269 20.7473 75.8345 20.7537ZM70.2517 34.9386C69.6879 35.4698 69.0862 35.9717 68.4614 36.4318C68.2635 36.5772 67.9848 36.5353 67.8383 36.3377C67.6918 36.1401 67.7338 35.8618 67.9325 35.7156C68.5279 35.2777 69.102 34.7987 69.6396 34.292C69.8186 34.1236 70.1004 34.1315 70.2691 34.3102C70.3847 34.4327 70.4171 34.6034 70.3688 34.7536C70.3467 34.8216 70.3071 34.8864 70.2509 34.9394L70.2517 34.9386ZM66.5049 37.6989C65.8288 38.0807 65.1233 38.4245 64.4091 38.7217C64.1819 38.8158 63.9214 38.7091 63.8271 38.4822C63.7329 38.2562 63.8398 37.9953 64.067 37.9004C64.7488 37.6175 65.421 37.2886 66.0663 36.925C66.2801 36.8041 66.5525 36.8792 66.6736 37.0934C66.7377 37.2064 66.7464 37.3353 66.7092 37.4499C66.676 37.5518 66.6055 37.6428 66.5049 37.6997V37.6989ZM62.204 39.4845C61.4557 39.694 60.6877 39.8584 59.9229 39.9754C59.679 40.0126 59.4525 39.8458 59.4153 39.6023C59.3781 39.3596 59.546 39.1328 59.7883 39.0956C60.5183 38.985 61.2499 38.8277 61.9633 38.6277C62.2 38.5613 62.4463 38.6996 62.5128 38.936C62.5373 39.0237 62.5342 39.1122 62.508 39.1929C62.4637 39.3296 62.3536 39.4426 62.2048 39.4845H62.204Z" fill="#BDD0FB"/>
<path d="M75.5215 15.9406C75.5485 15.8592 75.5516 15.7691 75.5255 15.6805C75.4202 15.3145 75.303 14.9501 75.1779 14.5976C75.0956 14.366 74.8414 14.2443 74.6094 14.3265C74.3782 14.4087 74.2563 14.6624 74.3378 14.894C74.4574 15.2308 74.5682 15.5778 74.6696 15.9272C74.7377 16.1635 74.9847 16.2995 75.2207 16.2315C75.3679 16.1888 75.4772 16.0766 75.5208 15.9414L75.5215 15.9406Z" fill="#BDD0FB"/>
</g>
<path d="M68.1508 11.7513C68.0986 11.6706 68.0012 11.6319 67.9077 11.6548L65.241 12.3062C64.3194 11.4161 63.2489 10.6667 62.0572 10.1016L61.7326 7.38157C61.7215 7.28592 61.6503 7.20846 61.556 7.18791L58.3375 6.4915C58.2432 6.47095 58.1466 6.51285 58.0968 6.59506L56.6731 8.93641C55.354 8.95855 54.069 9.19806 52.8607 9.62728L50.7031 7.93252C50.6271 7.87324 50.5226 7.8685 50.4418 7.91988L47.6729 9.69921C47.5922 9.75139 47.5534 9.84861 47.5755 9.94189L48.228 12.6042C47.3364 13.5243 46.5858 14.593 46.0197 15.7826L43.2952 16.1067C43.1994 16.1178 43.1218 16.1889 43.1012 16.283L42.4036 19.4962C42.383 19.5903 42.425 19.6867 42.5073 19.7365L44.8526 21.1578C44.8748 22.4747 45.1147 23.7576 45.5446 24.9639L43.847 27.1179C43.7877 27.193 43.7829 27.2981 43.8344 27.3788L45.6175 30.143C45.6697 30.2237 45.7671 30.2624 45.8605 30.2395L48.5273 29.5881C49.4489 30.4782 50.5194 31.2276 51.711 31.7927L52.0357 34.5127C52.0467 34.6084 52.118 34.6858 52.2122 34.7064L55.4308 35.4028C55.525 35.4233 55.6216 35.3814 55.6715 35.2992L57.0951 32.9579C58.4143 32.9357 59.6993 32.6962 60.9076 32.267L63.0652 33.9618C63.1404 34.0211 63.2457 34.0258 63.3265 33.9744L66.0953 32.1951C66.1761 32.1429 66.2149 32.0457 66.1927 31.9524L65.5403 29.2901C66.4318 28.37 67.1825 27.3013 67.7486 26.1117L70.4731 25.7876C70.5689 25.7765 70.6465 25.7054 70.6671 25.6113L71.3647 22.398C71.3852 22.304 71.3433 22.2075 71.2609 22.1577L68.9157 20.7365C68.8935 19.4196 68.6528 18.1366 68.2237 16.9304L69.9212 14.7764C69.9806 14.7013 69.9854 14.5962 69.9339 14.5155L68.1516 11.7513H68.1508Z" fill="#BDD0FB"/>
<path d="M59.9024 22.4424C59.5026 23.2478 58.8121 23.8486 57.9594 24.1355C57.1066 24.4225 56.1929 24.36 55.3861 23.9608C53.7218 23.1364 53.0416 21.1167 53.8659 19.452C54.6925 17.7905 56.7179 17.1099 58.3822 17.9343C59.1882 18.3335 59.7908 19.0228 60.0782 19.8741C60.3118 20.5666 60.3141 21.2986 60.0916 21.9815C60.041 22.138 59.9776 22.293 59.9032 22.4431L59.9024 22.4424ZM55.782 23.1641C56.375 23.4581 57.0472 23.504 57.6751 23.2929C58.3022 23.0818 58.8097 22.64 59.1043 22.0479C59.398 21.4551 59.444 20.7847 59.2334 20.1579C59.0227 19.5319 58.5793 19.0252 57.9863 18.7311C56.7622 18.1248 55.2721 18.6252 54.664 19.8473C54.6093 19.9579 54.5634 20.0702 54.5262 20.184C54.1525 21.331 54.6687 22.6123 55.782 23.1641Z" fill="url(#paint6_linear_1255_23994)"/>
<path d="M64.8032 23.5759C64.8903 23.3079 64.9647 23.0344 65.0257 22.7538C65.1468 22.1965 65.2109 21.6266 65.2173 21.0575V20.9808C65.2173 20.7832 65.089 20.6156 64.9101 20.5571C64.8665 20.5429 64.8198 20.5357 64.7723 20.5357C64.526 20.5357 64.3281 20.7349 64.3265 20.98C64.3265 21.5112 64.2679 22.044 64.1547 22.5649C64.1484 22.5933 64.142 22.6226 64.1357 22.651C63.8562 23.881 63.2806 24.9956 62.4674 25.918C62.0264 26.4192 61.5141 26.8634 60.9416 27.2389C60.9369 27.2421 60.9321 27.2452 60.9274 27.2484C60.9131 27.2579 60.8989 27.2674 60.8846 27.276C59.1997 28.359 57.1941 28.7218 55.2361 28.2981C54.9827 28.2436 54.7341 28.1764 54.491 28.0973C52.8544 27.5661 51.4624 26.4974 50.5178 25.0335C49.4331 23.3514 49.0697 21.3491 49.494 19.3943C49.9184 17.4411 51.08 15.7669 52.7641 14.6839C54.449 13.601 56.4546 13.2382 58.4127 13.6619C58.6621 13.7156 58.9075 13.782 59.1483 13.8603C60.1926 14.1994 61.1507 14.763 61.952 15.5131C62.001 15.559 62.0581 15.5922 62.119 15.6119C62.2782 15.6633 62.4595 15.623 62.5814 15.4934C62.7493 15.3139 62.7414 15.0333 62.5608 14.8642C61.6645 14.0247 60.5925 13.3939 59.4246 13.0145C59.1546 12.9267 58.8806 12.8524 58.6019 12.7923C56.4111 12.3189 54.1664 12.7244 52.2819 13.9361C50.3975 15.1479 49.0966 17.0174 48.6231 19.2062C48.148 21.3934 48.555 23.6336 49.7688 25.5157C50.825 27.1535 52.3825 28.3487 54.2139 28.9439C54.4854 29.0325 54.7642 29.1076 55.0476 29.1684C59.2892 30.0854 63.4896 27.612 64.804 23.5775L64.8032 23.5759Z" fill="url(#paint7_linear_1255_23994)"/>
<path d="M97.464 149.053C114.004 149.053 127.412 135.667 127.412 119.154C127.412 102.642 114.004 89.2559 97.464 89.2559C80.924 89.2559 67.5156 102.642 67.5156 119.154C67.5156 135.667 80.924 149.053 97.464 149.053Z" fill="url(#paint8_linear_1255_23994)"/>
<path d="M97.4133 148.248C113.436 148.248 126.424 135.281 126.424 119.285C126.424 103.289 113.436 90.3223 97.4133 90.3223C81.391 90.3223 68.4023 103.289 68.4023 119.285C68.4023 135.281 81.391 148.248 97.4133 148.248Z" fill="url(#paint9_linear_1255_23994)"/>
<path d="M110.748 138.482C109.702 138.482 108.663 138.037 107.939 137.175L82.0515 106.351C80.7514 104.803 80.9549 102.497 82.5052 101.199C84.0563 99.9006 86.3668 100.104 87.6661 101.651L113.553 132.476C114.854 134.023 114.65 136.33 113.1 137.628C112.413 138.203 111.579 138.482 110.748 138.482Z" fill="white"/>
<path d="M81.6212 138.258C80.6592 138.258 79.6988 137.883 78.9798 137.136C77.5776 135.68 77.6227 133.364 79.0812 131.964L109.626 102.644C111.084 101.244 113.403 101.29 114.806 102.746C116.208 104.202 116.163 106.517 114.704 107.917L84.1597 137.237C83.4494 137.919 82.5341 138.258 81.6212 138.258Z" fill="white"/>
<path d="M114.141 206.271C114.183 206.255 136.862 166.605 139.926 162.874C140.442 162.246 141.24 161.927 142.047 162.023L148.378 162.776L155.814 178.837L143.425 171.634C144.651 180.098 128.736 192.677 123.277 197.267C122.723 197.733 122.678 198.567 123.178 199.09L125.357 201.367C121.78 204.988 117.652 207.312 112.992 208.387L114.141 206.272V206.271Z" fill="url(#paint10_linear_1255_23994)"/>
<path d="M124.098 200.139C124.098 200.139 125.489 200.587 125.959 201.824C126.185 202.416 125.942 203.086 125.426 203.455C123.136 205.093 115.582 210.381 112.097 211.416C111.811 211.501 111.539 211.243 111.603 210.952C111.782 210.144 112.361 208.529 114.225 206.166L114.058 206.504C113.846 206.931 114.312 207.376 114.728 207.141C117.06 205.828 121.809 202.951 124.098 200.139Z" fill="url(#paint11_linear_1255_23994)"/>
<path d="M122.974 216.005C123.012 215.98 126.414 207.796 126.452 207.772C129.572 188.809 137.183 172.569 139.428 168.296C139.806 167.578 140.522 167.103 141.332 167.034L147.684 166.492L158.223 180.718L144.63 176.167C147.546 184.209 134.51 199.743 130.095 205.34C129.647 205.909 129.772 206.735 130.368 207.146L132.963 208.935C130.194 213.203 126.622 216.314 122.277 218.308L122.973 216.004L122.974 216.005Z" fill="url(#paint12_linear_1255_23994)"/>
<path d="M131.481 207.985C131.481 207.985 132.934 208.143 133.646 209.259C133.987 209.793 133.884 210.499 133.454 210.964C131.544 213.031 125.218 219.735 122.015 221.454C121.752 221.595 121.434 221.397 121.438 221.099C121.449 220.271 121.689 218.573 123.035 215.882L122.94 216.246C122.819 216.708 123.366 217.049 123.726 216.736C125.742 214.978 129.811 211.202 131.482 207.984L131.481 207.985Z" fill="url(#paint13_linear_1255_23994)"/>
<path d="M177.417 163.495C177.417 163.495 183.163 172.027 183.635 175.918C184.106 179.811 182.045 181.156 176.032 181.652C158.135 183.13 149.312 177.774 149.312 177.774C148.088 169.981 147.217 167.999 136.992 163.762C136.992 163.762 149.925 164.787 152.528 163.778C155.13 162.77 177.417 163.494 177.417 163.494V163.495Z" fill="url(#paint14_linear_1255_23994)"/>
<path d="M154.504 115.693C154.504 115.693 158.506 110.966 162.761 116.765C163.531 117.816 166.491 116.95 167.576 119.148C168.137 120.283 169.347 120.928 170.593 120.699C173.698 120.127 178.772 120.079 181.278 124.936C183.19 128.643 181.714 130.813 179.802 132.05C178.398 132.958 177.897 134.803 178.746 136.242C179.561 137.623 179.713 139.493 177.61 141.743C172.898 146.785 163.57 138.543 163.57 138.543L156.163 121.07L154.505 115.693H154.504Z" fill="url(#paint15_linear_1255_23994)"/>
<path d="M161.878 162.366C161.878 162.366 155.186 156.005 151.892 151.792C150.112 149.514 149.553 146.516 150.376 143.747C151.88 138.69 154.552 133.45 154.796 132.635C155.17 131.386 162.672 131.438 162.672 131.438C162.672 131.438 177.435 141.003 183.236 157.207L176.721 159.231C176.721 159.231 172.867 152.775 169.057 148.67C169.057 148.67 175.648 157.362 175.88 160.92L161.877 162.365L161.878 162.366Z" fill="url(#paint16_linear_1255_23994)"/>
<path d="M149.129 164.876L154.157 159.415L159.963 160.976C159.963 160.976 166.733 162.023 170.607 160.976L174.481 159.929L183.237 157.207L184.612 161.087C184.961 162.072 184.61 163.166 183.757 163.77C182.999 164.308 182.111 164.898 181.545 165.146C180.392 165.649 154.985 165.305 154.985 165.305L149.129 164.875V164.876Z" fill="url(#paint17_linear_1255_23994)"/>
<path d="M157.517 122.432L162.56 131.793C162.228 133.837 157.072 133.894 156.276 132.674C156.195 132.55 156.148 132.406 156.118 132.261L153.101 126.006C152.971 125.396 154.646 123.342 155.198 123.048L157.202 121.984C157.974 121.573 154.753 121.541 157.517 122.433V122.432Z" fill="url(#paint18_linear_1255_23994)"/>
<path d="M147.31 120.235C147.31 120.235 146.741 123.398 149.231 127.419C151.721 131.44 154.2 131.258 155.46 129.824C156.719 128.391 158.229 126.002 157.542 121.991C156.856 117.98 148.171 116.202 147.31 120.234V120.235Z" fill="url(#paint19_linear_1255_23994)"/>
<path d="M154.529 122.427C154.529 122.427 150.497 117.14 147.401 121.749L147.454 123.341C147.454 123.341 143.428 123.152 143.865 119.449C144.301 115.745 147.588 113.215 152.144 114.48C156.7 115.746 159.362 117.187 159.877 120.345C160.391 123.503 157.808 122.986 157.808 122.986C157.808 122.986 156.822 120.808 155.63 120.658C154.439 120.51 154.869 122.233 154.869 122.233L154.529 122.426V122.427Z" fill="url(#paint20_linear_1255_23994)"/>
<path d="M155.455 122.285C155.455 122.285 153.367 119.58 155.268 119.018C157.169 118.457 157.097 121.67 156.974 122.865L155.455 122.285Z" fill="url(#paint21_linear_1255_23994)"/>
<path d="M165.771 167.038C165.754 167.039 165.736 167.04 165.718 167.04L142.593 167.014C142.021 167.014 141.558 166.55 141.559 165.98C141.559 165.409 142.025 164.937 142.595 164.947L165.721 164.973C166.292 164.973 166.755 165.437 166.755 166.007C166.755 166.561 166.318 167.011 165.771 167.038Z" fill="url(#paint22_linear_1255_23994)"/>
<path d="M121.805 146.076H141.064C142.485 146.076 143.778 146.894 144.384 148.177L153.288 167.025H129.354C128.438 167.025 127.616 166.466 127.279 165.616L120.375 148.176C119.976 147.168 120.72 146.076 121.806 146.076H121.805Z" fill="url(#paint23_linear_1255_23994)"/>
<path d="M135.372 155.74C135.789 157.035 135.481 158.292 134.683 158.548C133.886 158.804 132.901 157.963 132.483 156.668C132.066 155.373 132.374 154.116 133.172 153.86C133.969 153.604 134.954 154.445 135.372 155.74Z" fill="url(#paint24_linear_1255_23994)"/>
</g>
<defs>
<linearGradient id="paint0_linear_1255_23994" x1="236.821" y1="221.367" x2="74.7214" y2="79.294" gradientUnits="userSpaceOnUse">
<stop stop-color="#DAE3FE"/>
<stop offset="1" stop-color="#E9EFFD"/>
</linearGradient>
<linearGradient id="paint1_linear_1255_23994" x1="114.233" y1="197.391" x2="112.085" y2="49.4202" gradientUnits="userSpaceOnUse">
<stop stop-color="#09005D"/>
<stop offset="1" stop-color="#1A0F91"/>
</linearGradient>
<linearGradient id="paint2_linear_1255_23994" x1="13.3309" y1="210.994" x2="304.48" y2="-49.9146" gradientUnits="userSpaceOnUse">
<stop stop-color="#4F52FF"/>
<stop offset="1" stop-color="#4042E2"/>
</linearGradient>
<linearGradient id="paint3_linear_1255_23994" x1="119.511" y1="67.7242" x2="110.866" y2="190.045" gradientUnits="userSpaceOnUse">
<stop stop-color="#09005D"/>
<stop offset="1" stop-color="#1A0F91"/>
</linearGradient>
<linearGradient id="paint4_linear_1255_23994" x1="25.0738" y1="48.4634" x2="34.9695" y2="48.4634" gradientUnits="userSpaceOnUse">
<stop stop-color="#DAE3FE"/>
<stop offset="1" stop-color="#E9EFFD"/>
</linearGradient>
<linearGradient id="paint5_linear_1255_23994" x1="17.763" y1="48.5139" x2="42.0969" y2="48.5139" gradientUnits="userSpaceOnUse">
<stop stop-color="#DAE3FE"/>
<stop offset="1" stop-color="#E9EFFD"/>
</linearGradient>
<linearGradient id="paint6_linear_1255_23994" x1="53.5151" y1="20.9484" x2="60.2548" y2="20.9484" gradientUnits="userSpaceOnUse">
<stop stop-color="#DAE3FE"/>
<stop offset="1" stop-color="#E9EFFD"/>
</linearGradient>
<linearGradient id="paint7_linear_1255_23994" x1="48.4299" y1="20.9784" x2="65.2181" y2="20.9784" gradientUnits="userSpaceOnUse">
<stop stop-color="#DAE3FE"/>
<stop offset="1" stop-color="#E9EFFD"/>
</linearGradient>
<linearGradient id="paint8_linear_1255_23994" x1="115.003" y1="84.3803" x2="62.6319" y2="188.564" gradientUnits="userSpaceOnUse">
<stop stop-color="#E1473D"/>
<stop offset="1" stop-color="#E9605A"/>
</linearGradient>
<linearGradient id="paint9_linear_1255_23994" x1="136.759" y1="21.8924" x2="96.7607" y2="121.231" gradientUnits="userSpaceOnUse">
<stop stop-color="#FF928E"/>
<stop offset="1" stop-color="#FE7062"/>
</linearGradient>
<linearGradient id="paint10_linear_1255_23994" x1="108.705" y1="173.057" x2="144.431" y2="193.482" gradientUnits="userSpaceOnUse">
<stop stop-color="#FEBBBA"/>
<stop offset="1" stop-color="#FF928E"/>
</linearGradient>
<linearGradient id="paint11_linear_1255_23994" x1="113.374" y1="193.417" x2="129.433" y2="232.351" gradientUnits="userSpaceOnUse">
<stop stop-color="#4F52FF"/>
<stop offset="1" stop-color="#4042E2"/>
</linearGradient>
<linearGradient id="paint12_linear_1255_23994" x1="112.163" y1="178.14" x2="-10.0565" y2="101.5" gradientUnits="userSpaceOnUse">
<stop stop-color="#FEBBBA"/>
<stop offset="1" stop-color="#FF928E"/>
</linearGradient>
<linearGradient id="paint13_linear_1255_23994" x1="119.59" y1="203.595" x2="143.197" y2="238.483" gradientUnits="userSpaceOnUse">
<stop stop-color="#4F52FF"/>
<stop offset="1" stop-color="#4042E2"/>
</linearGradient>
<linearGradient id="paint14_linear_1255_23994" x1="142.197" y1="147.475" x2="171.55" y2="179.696" gradientUnits="userSpaceOnUse">
<stop stop-color="#FF928E"/>
<stop offset="1" stop-color="#FE7062"/>
</linearGradient>
<linearGradient id="paint15_linear_1255_23994" x1="148.415" y1="103.91" x2="163.932" y2="121.851" gradientUnits="userSpaceOnUse">
<stop stop-color="#09005D"/>
<stop offset="1" stop-color="#1A0F91"/>
</linearGradient>
<linearGradient id="paint16_linear_1255_23994" x1="226.865" y1="97.1308" x2="186.497" y2="130.558" gradientUnits="userSpaceOnUse">
<stop stop-color="#FF928E"/>
<stop offset="1" stop-color="#FE7062"/>
</linearGradient>
<linearGradient id="paint17_linear_1255_23994" x1="171.328" y1="161.314" x2="206.945" y2="161.314" gradientUnits="userSpaceOnUse">
<stop stop-color="#FEBBBA"/>
<stop offset="1" stop-color="#FF928E"/>
</linearGradient>
<linearGradient id="paint18_linear_1255_23994" x1="156.805" y1="144.294" x2="157.626" y2="131.485" gradientUnits="userSpaceOnUse">
<stop stop-color="#FEBBBA"/>
<stop offset="1" stop-color="#FF928E"/>
</linearGradient>
<linearGradient id="paint19_linear_1255_23994" x1="158.027" y1="133.483" x2="142.569" y2="103.851" gradientUnits="userSpaceOnUse">
<stop stop-color="#FEBBBA"/>
<stop offset="1" stop-color="#FF928E"/>
</linearGradient>
<linearGradient id="paint20_linear_1255_23994" x1="138.663" y1="116.689" x2="160.363" y2="121.051" gradientUnits="userSpaceOnUse">
<stop stop-color="#09005D"/>
<stop offset="1" stop-color="#1A0F91"/>
</linearGradient>
<linearGradient id="paint21_linear_1255_23994" x1="161.577" y1="131.632" x2="146.119" y2="101.999" gradientUnits="userSpaceOnUse">
<stop stop-color="#FEBBBA"/>
<stop offset="1" stop-color="#FF928E"/>
</linearGradient>
<linearGradient id="paint22_linear_1255_23994" x1="169.706" y1="160.88" x2="151.355" y2="166.909" gradientUnits="userSpaceOnUse">
<stop stop-color="#09005D"/>
<stop offset="1" stop-color="#1A0F91"/>
</linearGradient>
<linearGradient id="paint23_linear_1255_23994" x1="126.549" y1="148.384" x2="155.837" y2="175.23" gradientUnits="userSpaceOnUse">
<stop stop-color="#09005D"/>
<stop offset="1" stop-color="#1A0F91"/>
</linearGradient>
<linearGradient id="paint24_linear_1255_23994" x1="136.485" y1="152.361" x2="130.5" y2="161.388" gradientUnits="userSpaceOnUse">
<stop stop-color="#4F52FF"/>
<stop offset="1" stop-color="#4042E2"/>
</linearGradient>
<clipPath id="clip0_1255_23994">
<rect width="222" height="221" fill="white" transform="translate(0 0.5)"/>
</clipPath>
</defs>
</svg>
