<?xml version="1.0" encoding="utf-8"?><svg viewBox="0 0 45 32" xmlns="http://www.w3.org/2000/svg" xmlns:xlink="http://www.w3.org/1999/xlink"><style>:root>svg{display:none}:root>svg:target{display:block}</style><svg viewBox="0 0 32 32" id="icon-add-circle" xmlns="http://www.w3.org/2000/svg"><path fill-rule="evenodd" clip-rule="evenodd" d="M3 16C3 8.823 8.823 3 16 3s13 5.823 13 13-5.823 13-13 13S3 23.177 3 16ZM16 5C9.927 5 5 9.927 5 16s4.927 11 11 11 11-4.927 11-11S22.073 5 16 5Z"/><path fill-rule="evenodd" clip-rule="evenodd" d="M16 10a1 1 0 0 1 1 1v10a1 1 0 1 1-2 0V11a1 1 0 0 1 1-1Z"/><path fill-rule="evenodd" clip-rule="evenodd" d="M10 16a1 1 0 0 1 1-1h10a1 1 0 1 1 0 2H11a1 1 0 0 1-1-1Z"/></svg><svg viewBox="0 0 22 20" id="icon-alert" xmlns="http://www.w3.org/2000/svg"><path d="M18.989 19.665H3.014a2.237 2.237 0 0 1-2.152-1.603 2.22 2.22 0 0 1 .174-1.71L9.019 1.514a2.254 2.254 0 0 1 3.966 0l7.987 14.836c.178.328.267.694.267 1.069 0 .6-.234 1.167-.661 1.589a2.21 2.21 0 0 1-1.59.656Zm-15.975-1.5h15.98c.201 0 .389-.08.53-.22a.745.745 0 0 0 .13-.886L11.663 2.228a.733.733 0 0 0-.66-.394.733.733 0 0 0-.662.394L2.354 17.064a.738.738 0 0 0-.056.572.745.745 0 0 0 .36.445c.108.056.23.084.357.084Z" fill-opacity=".8"/><path d="M11.002 13.628a.751.751 0 0 1-.75-.712l-.268-5.72V7.16a1.016 1.016 0 0 1 1.008-1.026h.056c.563.023.999.501.97 1.064l-.266 5.719a.751.751 0 0 1-.75.712ZM11 16.617a.94.94 0 0 1-.938-.937.94.94 0 0 1 .938-.938.94.94 0 0 1 .938.938.94.94 0 0 1-.938.937Z" fill-opacity=".8"/></svg><svg viewBox="0 0 9 15" id="icon-attachment" xmlns="http://www.w3.org/2000/svg"><path d="M5.786.5C7.56.5 9 1.825 9 3.46v7.106c0 2.289-2.015 4.144-4.5 4.144S0 12.855 0 10.566V5.829h1.286v4.737c0 1.635 1.439 2.96 3.214 2.96s3.214-1.325 3.214-2.96V3.46c0-.982-.863-1.777-1.928-1.777s-1.929.795-1.929 1.777v7.105c0 .327.288.592.643.592.355 0 .643-.265.643-.592V4.053h1.286v6.513c0 .98-.864 1.776-1.929 1.776s-1.929-.795-1.929-1.776V3.46C2.571 1.825 4.011.5 5.786.5Z"/></svg><svg viewBox="0 0 26 28" id="icon-bell" xmlns="http://www.w3.org/2000/svg"><path fill-rule="evenodd" clip-rule="evenodd" d="M9.3 3.035C9.745 1.533 11.057 0 13 0c1.944 0 3.254 1.533 3.705 3.032a.175.175 0 0 0 .039.036l.012.007c1.131.466 2.462 1.21 3.504 2.572 1.05 1.373 1.732 3.279 1.732 5.937 0 2.651.28 4.105.692 5.103.36.875.836 1.45 1.511 2.269l.31.376c1.245 1.526.07 3.668-1.85 3.668h-4.655a5 5 0 1 1-10 0h-4.65c-1.914 0-3.11-2.132-1.854-3.668.107-.132.21-.257.31-.377.675-.818 1.15-1.393 1.511-2.268.413-.998.693-2.452.694-5.103M10.002 23a3 3 0 0 0 6 0h-6Zm-6.65-2c-.206 0-.298-.095-.335-.167a.215.215 0 0 1-.025-.117.214.214 0 0 1 .054-.119l.29-.353c.671-.808 1.347-1.622 1.83-2.794.557-1.346.845-3.1.846-5.865 0-2.304.584-3.76 1.32-4.725.746-.974 1.723-1.542 2.678-1.935.51-.21 1.017-.676 1.2-1.302l.001-.002C11.496 2.642 12.231 2 13.002 2s1.506.642 1.794 1.623v.002c.183.615.686 1.088 1.2 1.3.954.392 1.93.96 2.677 1.937.738.965 1.321 2.422 1.321 4.722 0 2.765.287 4.52.843 5.866.484 1.172 1.16 1.986 1.83 2.794l.29.353a.203.203 0 0 1 .028.237c-.038.075-.13.166-.327.166H3.352ZM9.299 3.035a.193.193 0 0 1-.035.031l-.015.01c-1.132.465-2.464 1.208-3.505 2.57-1.05 1.372-1.731 3.277-1.732 5.938" fill-opacity=".8"/></svg><svg viewBox="0 0 24 24" id="icon-book" xmlns="http://www.w3.org/2000/svg"><path fill-rule="evenodd" clip-rule="evenodd" d="M2.25 3.75c3.04.014 5.158.396 6.583 1.077 1.382.66 2.122 1.604 2.44 2.857a.75.75 0 0 0 1.454 0c.318-1.253 1.058-2.197 2.44-2.857 1.425-.681 3.543-1.063 6.583-1.077v13.5c-5.413 0-8.072.97-9.75 2.63-1.672-1.652-4.334-2.628-9.736-2.63a.252.252 0 0 1-.014-.09V3.75Zm-.573-1.387c.183-.075.378-.114.576-.113 3.126.014 5.507.402 7.227 1.223 1.119.535 1.95 1.25 2.52 2.138.57-.887 1.401-1.603 2.52-2.138 1.72-.821 4.1-1.209 7.227-1.223a1.498 1.498 0 0 1 1.503 1.501V17.25a1.5 1.5 0 0 1-1.5 1.5c-5.911 0-7.943 1.192-9.164 2.718a.75.75 0 0 1-1.172 0c-1.213-1.517-3.253-2.718-9.164-2.718a1.45 1.45 0 0 1-1.12-.51 1.66 1.66 0 0 1-.38-1.08V3.75a1.497 1.497 0 0 1 .927-1.388Z" fill-opacity=".8"/><path fill-rule="evenodd" clip-rule="evenodd" d="M12 6.75a.75.75 0 0 1 .75.75V21a.75.75 0 0 1-1.5 0V7.5a.75.75 0 0 1 .75-.75Z" fill-opacity=".8"/></svg><svg viewBox="0 0 24 24" id="icon-calendar" xmlns="http://www.w3.org/2000/svg"><path fill-rule="evenodd" clip-rule="evenodd" d="M4.5 4.5A1.5 1.5 0 0 0 3 6v13.5A1.5 1.5 0 0 0 4.5 21h15a1.5 1.5 0 0 0 1.5-1.5V6a1.5 1.5 0 0 0-1.5-1.5h-15ZM1.5 6a3 3 0 0 1 3-3h15a3 3 0 0 1 3 3v13.5a3 3 0 0 1-3 3h-15a3 3 0 0 1-3-3V6Z"/><path d="M13.875 12a1.125 1.125 0 1 0 0-2.25 1.125 1.125 0 0 0 0 2.25ZM17.625 12a1.125 1.125 0 1 0 0-2.25 1.125 1.125 0 0 0 0 2.25ZM13.875 15.75a1.125 1.125 0 1 0 0-2.25 1.125 1.125 0 0 0 0 2.25ZM17.625 15.75a1.125 1.125 0 1 0 0-2.25 1.125 1.125 0 0 0 0 2.25ZM6.375 15.75a1.125 1.125 0 1 0 0-2.25 1.125 1.125 0 0 0 0 2.25ZM10.125 15.75a1.125 1.125 0 1 0 0-2.25 1.125 1.125 0 0 0 0 2.25ZM6.375 19.5a1.125 1.125 0 1 0 0-2.25 1.125 1.125 0 0 0 0 2.25ZM10.125 19.5a1.125 1.125 0 1 0 0-2.25 1.125 1.125 0 0 0 0 2.25ZM13.875 19.5a1.125 1.125 0 1 0 0-2.25 1.125 1.125 0 0 0 0 2.25Z"/><path fill-rule="evenodd" clip-rule="evenodd" d="M6 1.5a.75.75 0 0 1 .75.75v1.5a.75.75 0 0 1-1.5 0v-1.5A.75.75 0 0 1 6 1.5ZM18 1.5a.75.75 0 0 1 .75.75v1.5a.75.75 0 0 1-1.5 0v-1.5A.75.75 0 0 1 18 1.5ZM2.25 6.75h19.5v1.5H2.25v-1.5Z"/></svg><svg fill="none" viewBox="0 0 32 32" id="icon-chat" xmlns="http://www.w3.org/2000/svg"><g clip-path="url(#aga)"><path d="M16.001 28.352c6.823 0 12.353-5.53 12.353-12.353 0-6.822-5.53-12.353-12.353-12.353C9.18 3.646 3.648 9.177 3.648 16c0 6.823 5.531 12.353 12.353 12.353Z" fill="#0085FF"/><path d="M16 31.764c8.706 0 15.764-7.058 15.764-15.765S24.706.234 15.999.234.234 7.292.234 16 7.292 31.764 16 31.764Z" stroke="#3E4357" stroke-miterlimit="10"/><path d="M29.883 16.761a.762.762 0 1 0 0-1.525.762.762 0 0 0 0 1.525ZM2.118 16.761a.762.762 0 1 0 0-1.525.762.762 0 0 0 0 1.525Z" fill="#3E4357"/><path d="M19.453 11.559H12.55a3.105 3.105 0 0 0-3.097 3.096v3.134a3.105 3.105 0 0 0 3.097 3.097h5.152l.984 1.27a.443.443 0 0 0 .753-.084l.565-1.238a3.11 3.11 0 0 0 2.546-3.045v-3.134a3.105 3.105 0 0 0-3.097-3.096Zm-6.903 5.623a.857.857 0 1 1 0-1.713.857.857 0 0 1 0 1.713Zm3.468 0a.856.856 0 1 1 0-1.713.856.856 0 0 1 0 1.713Zm3.468 0a.857.857 0 1 1 0-1.713.857.857 0 0 1 0 1.713Z" fill="#fff"/></g><defs><clipPath id="aga"><path fill="#fff" d="M0 0h32v32H0z"/></clipPath></defs></svg><svg viewBox="0 0 22 20" id="icon-chat_stroke" xmlns="http://www.w3.org/2000/svg"><path fill-rule="evenodd" clip-rule="evenodd" d="M3.873.25h14.252V1l.002-.75A3.383 3.383 0 0 1 21.5 3.623V12.627A3.382 3.382 0 0 1 18.127 16H10.52L6.23 19.576A.75.75 0 0 1 5 19v-3H3.873A3.382 3.382 0 0 1 .5 12.627V3.623A3.382 3.382 0 0 1 3.873.25Zm6.75 15.663Zm7.5-14.163H3.877A1.883 1.883 0 0 0 2 3.626v8.998A1.882 1.882 0 0 0 3.876 14.5H5.75a.75.75 0 0 1 .75.75v2.148l3.162-2.636c.203-.17.458-.262.722-.262h7.74A1.883 1.883 0 0 0 20 12.624V3.626a1.883 1.883 0 0 0-1.876-1.876Z" fill-opacity=".8"/></svg><svg viewBox="0 0 12 8" id="icon-check" xmlns="http://www.w3.org/2000/svg"><path fill-rule="evenodd" clip-rule="evenodd" d="m4.826 7.398-.424-.424-.425.424a.6.6 0 0 0 .849 0Zm-.424-1.272L1.626 3.35a.6.6 0 0 0-.849.848l3.2 3.2.425-.424.424.424L11 1.224a.6.6 0 1 0-.849-.848l-5.75 5.75Z"/></svg><svg viewBox="0 0 16 10" id="icon-chevron-down" xmlns="http://www.w3.org/2000/svg"><path d="M2.344.758.93 2.172 8 9.243l7.072-7.07L13.658.757 8 6.415 2.344.758Z"/></svg><svg viewBox="0 0 9 12" id="icon-chevron-left" xmlns="http://www.w3.org/2000/svg"><path d="M8.16 1.41 3.58 6l4.58 4.59L6.75 12l-6-6 6-6 1.41 1.41Z"/></svg><svg viewBox="0 0 9 12" id="icon-chevron-right" xmlns="http://www.w3.org/2000/svg"><path d="M.84 1.41 5.42 6 .84 10.59 2.25 12l6-6-6-6L.84 1.41Z"/></svg><svg viewBox="0 0 16 10" id="icon-chevron-up" xmlns="http://www.w3.org/2000/svg"><path d="m13.656 9.242 1.414-1.414L8 .757.927 7.828l1.414 1.414L8 3.585l5.657 5.657Z" fill-opacity=".8"/></svg><svg viewBox="0 0 18 18" id="icon-circle-alert" xmlns="http://www.w3.org/2000/svg"><path d="M9.835 9.833H8.168v-5h1.667v5Zm0 3.333H8.168v-1.667h1.667v1.667ZM9 .666a8.333 8.333 0 1 0 0 16.667 8.333 8.333 0 0 0 0-16.667Z"/></svg><svg viewBox="0 0 8 8" id="icon-close" xmlns="http://www.w3.org/2000/svg"><path d="M8 .805 4.805 4 8 7.195 7.195 8 4 4.805.805 8 0 7.195 3.195 4 0 .805.805 0 4 3.195 7.195 0 8 .805Z"/></svg><svg viewBox="0 0 24 24" id="icon-close-circle-outline" xmlns="http://www.w3.org/2000/svg"><path fill-rule="evenodd" clip-rule="evenodd" d="M2.25 12c0-5.383 4.367-9.75 9.75-9.75s9.75 4.367 9.75 9.75-4.367 9.75-9.75 9.75S2.25 17.383 2.25 12ZM12 3.75A8.252 8.252 0 0 0 3.75 12 8.252 8.252 0 0 0 12 20.25 8.252 8.252 0 0 0 20.25 12 8.252 8.252 0 0 0 12 3.75Z" fill-opacity=".3"/><path fill-rule="evenodd" clip-rule="evenodd" d="M8.47 8.47a.75.75 0 0 1 1.06 0l6 6a.75.75 0 1 1-1.06 1.06l-6-6a.75.75 0 0 1 0-1.06Z" fill-opacity=".3"/><path fill-rule="evenodd" clip-rule="evenodd" d="M15.53 8.47a.75.75 0 0 1 0 1.06l-6 6a.75.75 0 0 1-1.06-1.06l6-6a.75.75 0 0 1 1.06 0Z" fill-opacity=".3"/></svg><svg viewBox="0 0 24 24" id="icon-credit-card" xmlns="http://www.w3.org/2000/svg"><path d="M21 4.5A1.5 1.5 0 0 1 22.5 6v12a1.5 1.5 0 0 1-1.5 1.5H3A1.5 1.5 0 0 1 1.5 18V6A1.5 1.5 0 0 1 3 4.5h18ZM3 3a3 3 0 0 0-3 3v12a3 3 0 0 0 3 3h18a3 3 0 0 0 3-3V6a3 3 0 0 0-3-3H3Z" fill-opacity=".8"/><path d="M3 8.25a.75.75 0 0 1 .75-.75h3a.75.75 0 0 1 .75.75v1.5a.75.75 0 0 1-.75.75h-3A.75.75 0 0 1 3 9.75v-1.5Zm0 4.5a.75.75 0 0 1 .75-.75h7.5a.75.75 0 1 1 0 1.5h-7.5a.75.75 0 0 1-.75-.75Zm0 3a.75.75 0 0 1 .75-.75h1.5a.75.75 0 1 1 0 1.5h-1.5a.75.75 0 0 1-.75-.75Zm4.5 0a.75.75 0 0 1 .75-.75h1.5a.75.75 0 1 1 0 1.5h-1.5a.75.75 0 0 1-.75-.75Zm4.5 0a.75.75 0 0 1 .75-.75h1.5a.75.75 0 1 1 0 1.5h-1.5a.75.75 0 0 1-.75-.75Zm4.5 0a.75.75 0 0 1 .75-.75h1.5a.75.75 0 1 1 0 1.5h-1.5a.75.75 0 0 1-.75-.75Z" fill-opacity=".8"/></svg><svg viewBox="0 0 18 20" id="icon-doc" xmlns="http://www.w3.org/2000/svg"><path fill-rule="evenodd" clip-rule="evenodd" d="M0 3a3 3 0 0 1 3-3h8a7 7 0 0 1 7 7v10a3 3 0 0 1-3 3H3a3 3 0 0 1-3-3V3Zm10-1H3a1 1 0 0 0-1 1v14a1 1 0 0 0 1 1h12a1 1 0 0 0 1-1V7h-6V2Zm5.584 3A5.009 5.009 0 0 0 12 2.1V5h3.584Z" fill-opacity=".8"/></svg><svg viewBox="0 0 22 22" id="icon-done" xmlns="http://www.w3.org/2000/svg"><path fill-rule="evenodd" clip-rule="evenodd" d="M11 0C4.925 0 0 4.925 0 11s4.925 11 11 11 11-4.925 11-11S17.075 0 11 0Zm4.768 9.14a1 1 0 1 0-1.536-1.28l-4.3 5.159-2.225-2.226a1 1 0 0 0-1.414 1.414l3 3a1.001 1.001 0 0 0 1.475-.067l5-6Z"/></svg><svg viewBox="0 0 24 24" id="icon-edit" xmlns="http://www.w3.org/2000/svg"><path fill-rule="evenodd" clip-rule="evenodd" d="M19.614 1.703a.857.857 0 0 0-.609.253l-.003.004-9.627 9.593-.616 3.74 3.683-.662 9.599-9.632.003-.004a.857.857 0 0 0 0-1.217l-.002-.002-1.82-1.82a.855.855 0 0 0-.608-.253Zm-.99-1.517a2.571 2.571 0 0 1 2.814.561l.001.002 1.813 1.812.001.002a2.571 2.571 0 0 1 0 3.647l-.001.003-9.785 9.819a.858.858 0 0 1-.456.238l-5.143.926a.857.857 0 0 1-.997-.983l.857-5.211a.857.857 0 0 1 .24-.468L17.79.747c.239-.24.522-.43.835-.561Z"/><path fill-rule="evenodd" clip-rule="evenodd" d="M2.571 4.285a.857.857 0 0 0-.857.857v16.285a.857.857 0 0 0 .857.858h16.286a.857.857 0 0 0 .857-.858v-5.142a.857.857 0 1 1 1.715 0v5.142A2.571 2.571 0 0 1 18.857 24H2.571A2.571 2.571 0 0 1 0 21.427V5.142A2.571 2.571 0 0 1 2.571 2.57h5.143a.857.857 0 0 1 0 1.715H2.571Z"/></svg><svg viewBox="0 0 20 12" id="icon-eye" xmlns="http://www.w3.org/2000/svg"><path d="m17.5 9-2.475-3.396M10 10.5V7M2.5 9l2.469-3.388M1 1c3.6 8 14.4 8 18 0" stroke-opacity=".8" stroke-width="1.5" stroke-linecap="round" stroke-linejoin="round"/></svg><svg viewBox="0 0 22 16" id="icon-eye-opened" xmlns="http://www.w3.org/2000/svg"><path fill-rule="evenodd" clip-rule="evenodd" d="M2.848 6.552C2.402 7.219 2.25 7.724 2.25 8s.152.781.598 1.448c.428.642 1.068 1.341 1.88 1.989C6.36 12.737 8.584 13.75 11 13.75c2.417 0 4.64-1.014 6.271-2.313.813-.648 1.453-1.347 1.881-1.989.446-.667.598-1.172.598-1.448s-.152-.781-.598-1.448c-.428-.642-1.069-1.341-1.88-1.989C15.64 3.263 13.416 2.25 11 2.25c-2.417 0-4.64 1.014-6.271 2.313-.813.648-1.453 1.347-1.881 1.989Zm.634-3.553C5.381 1.486 8.032.25 11 .25S16.62 1.486 18.518 3c.952.758 1.74 1.606 2.297 2.44.541.81.935 1.711.935 2.56s-.394 1.75-.935 2.56c-.558.834-1.345 1.682-2.297 2.44-1.899 1.514-4.55 2.75-7.518 2.75S5.38 14.514 3.482 13c-.952-.758-1.74-1.606-2.297-2.44C.644 9.75.25 8.848.25 8s.394-1.75.935-2.56C1.743 4.606 2.53 3.758 3.482 3Z" fill-opacity=".8"/><path fill-rule="evenodd" clip-rule="evenodd" d="M11 5.25a2.75 2.75 0 1 0 0 5.5 2.75 2.75 0 0 0 0-5.5Zm-3.359-.609a4.75 4.75 0 1 1 6.718 6.718A4.75 4.75 0 0 1 7.64 4.64Z" fill-opacity=".8"/></svg><svg viewBox="0 0 24 24" id="icon-file-tray" xmlns="http://www.w3.org/2000/svg"><path fill-rule="evenodd" clip-rule="evenodd" d="M4.027 3.654C4.569 3.203 5.254 3 6 3h12c.715 0 1.397.187 1.946.628.55.442.895 1.081 1.04 1.851l1.498 7.116a.75.75 0 0 1 .016.155v5.252A3.007 3.007 0 0 1 19.502 21H4.498A3.007 3.007 0 0 1 1.5 18.002V12.75a.75.75 0 0 1 .016-.155l1.499-7.118c.143-.738.471-1.375 1.012-1.823Zm.958 1.153c-.22.183-.407.482-.498.96a.838.838 0 0 1-.003.013L3 12.828v5.17A1.506 1.506 0 0 0 4.501 19.5H19.5A1.506 1.506 0 0 0 21 17.999v-5.17l-1.484-7.05a.558.558 0 0 1-.003-.017c-.091-.492-.285-.787-.506-.964-.225-.18-.55-.298-1.007-.298H6c-.473 0-.796.125-1.015.307Z" fill-opacity=".8"/><path fill-rule="evenodd" clip-rule="evenodd" d="M1.5 12.75a.75.75 0 0 1 .75-.75H9a.75.75 0 0 1 0 1.5H2.25a.75.75 0 0 1-.75-.75ZM14.25 12.75A.75.75 0 0 1 15 12h6.75a.75.75 0 0 1 0 1.5H15a.75.75 0 0 1-.75-.75Z" fill-opacity=".8"/><path fill-rule="evenodd" clip-rule="evenodd" d="M9 12a.75.75 0 0 1 .75.75 2.25 2.25 0 0 0 4.5 0 .75.75 0 0 1 1.5 0 3.75 3.75 0 1 1-7.5 0A.75.75 0 0 1 9 12ZM6 6.75A.75.75 0 0 1 6.75 6h10.5a.75.75 0 0 1 0 1.5H6.75A.75.75 0 0 1 6 6.75ZM5.25 9.75A.75.75 0 0 1 6 9h12a.75.75 0 0 1 0 1.5H6a.75.75 0 0 1-.75-.75Z" fill-opacity=".8"/></svg><svg viewBox="0 0 22 22" id="icon-info" xmlns="http://www.w3.org/2000/svg"><path d="M11 .5C5.202.5.5 5.202.5 11S5.202 21.5 11 21.5 21.5 16.798 21.5 11 16.798.5 11 .5Zm.75 15.563a.188.188 0 0 1-.188.187h-1.124a.188.188 0 0 1-.188-.188V9.688c0-.103.084-.187.188-.187h1.124c.104 0 .188.084.188.188v6.374ZM11 8a1.125 1.125 0 0 1 0-2.25A1.125 1.125 0 0 1 11 8Z"/></svg><svg viewBox="0 0 20 18" id="icon-list" xmlns="http://www.w3.org/2000/svg"><path fill-rule="evenodd" clip-rule="evenodd" d="M17.273 1.8H2.727a.905.905 0 0 0-.909.9v12.6c0 .497.407.9.91.9h14.545c.502 0 .909-.403.909-.9V2.7c0-.497-.407-.9-.91-.9ZM2.727 0C1.221 0 0 1.209 0 2.7v12.6C0 16.791 1.221 18 2.727 18h14.546C18.779 18 20 16.791 20 15.3V2.7C20 1.209 18.779 0 17.273 0H2.727Zm1.818 4.5h1.819v1.8H4.545V4.5Zm4.546 0a.905.905 0 0 0-.91.9c0 .497.408.9.91.9h5.455a.905.905 0 0 0 .909-.9c0-.497-.408-.9-.91-.9H9.091ZM6.364 8.1H4.545v1.8h1.819V8.1Zm1.818.9c0-.497.407-.9.909-.9h5.455c.502 0 .909.403.909.9s-.408.9-.91.9H9.091a.905.905 0 0 1-.91-.9Zm-1.818 2.7H4.545v1.8h1.819v-1.8Zm1.818.9c0-.497.407-.9.909-.9h5.455c.502 0 .909.403.909.9s-.408.9-.91.9H9.091a.905.905 0 0 1-.91-.9Z"/></svg><svg viewBox="0 0 24 24" id="icon-loading" xmlns="http://www.w3.org/2000/svg"><path d="M12 22.5V19m0-17.5V5M2.907 6.75l3.03 1.75M22.5 12H19m-1.75-9.093-1.75 3.03M1.5 12H5m1.75 9.093 1.75-3.03M6.75 2.906l1.75 3.03m12.593.813-3.03 1.75M2.906 17.25l3.03-1.75" stroke-width="2" stroke-linecap="round" stroke-linejoin="round"/></svg><svg viewBox="0 0 20 20" id="icon-logout" xmlns="http://www.w3.org/2000/svg"><path fill-rule="evenodd" clip-rule="evenodd" d="M2.283.55a1.735 1.735 0 0 0-1.302.673 2.05 2.05 0 0 0-.43 1.333v14.888c-.014.476.132.954.43 1.332a1.735 1.735 0 0 0 1.302.674h8.835l.043-.001c.507-.03.955-.287 1.26-.672a2.05 2.05 0 0 0 .429-1.333v-2.516a.75.75 0 0 0-1.5 0v2.558a.554.554 0 0 1-.107.36c-.057.074-.116.098-.156.104H2.314c-.04-.006-.098-.03-.156-.103a.554.554 0 0 1-.106-.39V2.513a.553.553 0 0 1 .106-.36c.058-.073.116-.097.156-.103h8.773c.04.006.099.03.156.103a.554.554 0 0 1 .107.39V5.07a.75.75 0 0 0 1.5 0V2.556a2.051 2.051 0 0 0-.43-1.333A1.736 1.736 0 0 0 11.118.55H2.283ZM15.31 6.59a.75.75 0 0 1 1.061 0l2.92 2.92a.75.75 0 0 1 0 1.06l-2.92 2.92a.75.75 0 0 1-1.06-1.06l1.639-1.64H6.497a.75.75 0 0 1 0-1.5H16.95l-1.64-1.64a.75.75 0 0 1 0-1.06Z"/></svg><svg viewBox="0 0 24 24" id="icon-loop" xmlns="http://www.w3.org/2000/svg"><path fill-rule="evenodd" clip-rule="evenodd" d="M5.856 3.617a8.114 8.114 0 0 1 4.508-1.367V3v-.75a8.114 8.114 0 0 1 8.113 8.114A8.114 8.114 0 1 1 5.856 3.617Zm4.508.133a6.614 6.614 0 0 1 6.613 6.614M10.363 3.75a6.614 6.614 0 1 0 6.614 6.614" fill-opacity=".8"/><path fill-rule="evenodd" clip-rule="evenodd" d="M15.325 15.327a.75.75 0 0 1 1.06 0l5.143 5.143a.75.75 0 0 1-1.06 1.06l-5.143-5.142a.75.75 0 0 1 0-1.06Z" fill-opacity=".8"/></svg><svg viewBox="0 0 24 19" id="icon-management" xmlns="http://www.w3.org/2000/svg"><path d="M10.5 9.5c0 .727-.16 1.406-.48 2.04a4.4 4.4 0 0 1-1.372 1.593c.352.18.684.387.997.62.312.235.597.497.855.786V18.5c0-.617-.117-1.2-.352-1.746a4.515 4.515 0 0 0-2.402-2.402A4.18 4.18 0 0 0 6 14a4.33 4.33 0 0 0-1.746.352 4.695 4.695 0 0 0-1.43.96 4.388 4.388 0 0 0-.972 1.442A4.441 4.441 0 0 0 1.5 18.5H0c0-.57.078-1.121.234-1.652a6.368 6.368 0 0 1 .668-1.512A5.34 5.34 0 0 1 1.97 14.07a7.35 7.35 0 0 1 1.383-.949 4.342 4.342 0 0 1-1.36-1.582A4.563 4.563 0 0 1 1.5 9.5c0-.617.117-1.2.352-1.746a4.515 4.515 0 0 1 .96-1.43c.407-.406.883-.73 1.43-.972A4.16 4.16 0 0 1 6 5c.563 0 1.098.098 1.605.293.508.195.973.484 1.395.867.25-.226.527-.426.832-.598a2.826 2.826 0 0 1-.61-.949c-.14-.36-.214-.73-.222-1.113 0-.414.078-.8.234-1.16.157-.36.371-.68.645-.961.273-.281.59-.496.95-.645.358-.148.75-.226 1.171-.234.414 0 .8.078 1.16.234.36.157.68.371.961.645.281.273.496.59.645.95.148.358.226.75.234 1.171 0 .383-.07.754-.21 1.113-.142.36-.349.676-.622.95.648.359 1.176.843 1.582 1.453a4.486 4.486 0 0 1 1.582-1.454 2.826 2.826 0 0 1-.61-.949A3.21 3.21 0 0 1 16.5 3.5c0-.414.078-.8.234-1.16.157-.36.371-.68.645-.961.273-.281.59-.496.95-.645.358-.148.75-.226 1.171-.234.414 0 .8.078 1.16.234.36.157.68.371.961.645.281.273.496.59.645.95.148.358.226.75.234 1.171 0 .383-.07.754-.21 1.113-.142.36-.349.676-.622.95a4.4 4.4 0 0 1 1.7 1.64c.195.336.35.703.468 1.102.117.398.172.797.164 1.195h-1.5c0-.414-.078-.8-.234-1.16a3.195 3.195 0 0 0-.645-.961 2.804 2.804 0 0 0-.95-.645A3.197 3.197 0 0 0 19.5 6.5c-.414 0-.8.078-1.16.234-.36.157-.68.371-.961.645-.281.273-.496.59-.645.95-.148.358-.226.75-.234 1.171H15c0-.414-.078-.8-.234-1.16a3.195 3.195 0 0 0-.645-.961 2.804 2.804 0 0 0-.95-.645A3.197 3.197 0 0 0 12 6.5c-.383 0-.754.07-1.113.21a2.74 2.74 0 0 0-.95.622c.188.328.329.676.422 1.043.094.367.141.742.141 1.125Zm9-7.5c-.21 0-.406.04-.586.117-.18.078-.336.184-.469.317a1.634 1.634 0 0 0-.328.48A1.27 1.27 0 0 0 18 3.5c0 .21.04.406.117.586.078.18.184.336.317.469.132.133.293.242.48.328.188.086.383.125.586.117.21 0 .406-.04.586-.117.18-.078.336-.184.469-.317.133-.132.242-.293.328-.48A1.27 1.27 0 0 0 21 3.5c0-.21-.04-.406-.117-.586a1.503 1.503 0 0 0-.317-.469 1.634 1.634 0 0 0-.48-.328A1.27 1.27 0 0 0 19.5 2ZM12 2c-.21 0-.406.04-.586.117-.18.078-.336.184-.469.317a1.634 1.634 0 0 0-.328.48 1.27 1.27 0 0 0-.117.586c0 .21.04.406.117.586.078.18.184.336.317.469.132.133.293.242.48.328.188.086.383.125.586.117.21 0 .406-.04.586-.117.18-.078.336-.184.469-.317.133-.132.242-.293.328-.48A1.27 1.27 0 0 0 13.5 3.5c0-.21-.04-.406-.117-.586a1.503 1.503 0 0 0-.317-.469 1.634 1.634 0 0 0-.48-.328A1.27 1.27 0 0 0 12 2ZM6 12.5c.414 0 .8-.078 1.16-.234.36-.157.68-.371.961-.645.281-.273.496-.59.645-.95.148-.358.226-.75.234-1.171 0-.414-.078-.8-.234-1.16a3.195 3.195 0 0 0-.645-.961 2.804 2.804 0 0 0-.95-.645A3.197 3.197 0 0 0 6 6.5c-.414 0-.8.078-1.16.234-.36.157-.68.371-.961.645-.281.273-.496.59-.645.95-.148.358-.226.75-.234 1.171 0 .414.078.8.234 1.16.157.36.371.68.645.961.273.281.59.496.95.645.359.148.75.226 1.171.234Z" fill-opacity=".8"/></svg><svg viewBox="0 0 45 31" id="icon-menu" xmlns="http://www.w3.org/2000/svg"><path d="M.18 2.204C.18.987 1.165 0 2.38 0h39.6c1.215 0 2.2.987 2.2 2.204a2.202 2.202 0 0 1-2.2 2.204H2.38c-1.215 0-2.2-.987-2.2-2.204ZM.18 15.5c0-1.217.985-2.204 2.2-2.204h39.6c1.215 0 2.2.987 2.2 2.204a2.202 2.202 0 0 1-2.2 2.204H2.38c-1.215 0-2.2-.987-2.2-2.204ZM2.38 26.592c-1.215 0-2.2.987-2.2 2.204S1.165 31 2.38 31h39.6c1.215 0 2.2-.987 2.2-2.204a2.202 2.202 0 0 0-2.2-2.204H2.38Z"/></svg><svg viewBox="0 0 16 4" id="icon-more-alt" xmlns="http://www.w3.org/2000/svg"><path d="M4 2a2 2 0 1 1-4 0 2 2 0 0 1 4 0ZM10 2a2 2 0 1 1-4 0 2 2 0 0 1 4 0ZM14 4a2 2 0 1 0 0-4 2 2 0 0 0 0 4Z" fill-opacity=".8"/></svg><svg viewBox="0 0 3 12" id="icon-more-alt_vertical" xmlns="http://www.w3.org/2000/svg"><path d="M1.5 3a1.5 1.5 0 1 1 0-3 1.5 1.5 0 0 1 0 3ZM1.5 7.5a1.5 1.5 0 1 1 0-3 1.5 1.5 0 0 1 0 3ZM0 10.5a1.5 1.5 0 1 0 3 0 1.5 1.5 0 0 0-3 0Z" fill-opacity=".38"/></svg><svg viewBox="0 0 24 24" id="icon-newspaper" xmlns="http://www.w3.org/2000/svg"><path fill-rule="evenodd" clip-rule="evenodd" d="M3.373 1.5H16.127A1.878 1.878 0 0 1 18 3.373V19.493h-1.5V3.376A.378.378 0 0 0 16.124 3H3.376A.378.378 0 0 0 3 3.376v16.498A1.13 1.13 0 0 0 4.126 21H19.5v1.5H4.123A2.63 2.63 0 0 1 1.5 19.877V3.373A1.878 1.878 0 0 1 3.373 1.5Z" fill-opacity=".8"/><path fill-rule="evenodd" clip-rule="evenodd" d="M16.5 6a.75.75 0 0 1 .75-.75h3.375A1.875 1.875 0 0 1 22.5 7.125V19.5a3 3 0 0 1-6 0V6Zm1.5.75V19.5a1.5 1.5 0 1 0 3 0V7.125a.375.375 0 0 0-.375-.375H18ZM10.5 6a.75.75 0 0 1 .75-.75h3a.75.75 0 0 1 0 1.5h-3A.75.75 0 0 1 10.5 6ZM10.5 9a.75.75 0 0 1 .75-.75h3a.75.75 0 0 1 0 1.5h-3A.75.75 0 0 1 10.5 9ZM4.5 12a.75.75 0 0 1 .75-.75h9a.75.75 0 0 1 0 1.5h-9A.75.75 0 0 1 4.5 12ZM4.5 15a.75.75 0 0 1 .75-.75h9a.75.75 0 0 1 0 1.5h-9A.75.75 0 0 1 4.5 15ZM4.5 18a.75.75 0 0 1 .75-.75h9a.75.75 0 0 1 0 1.5h-9A.75.75 0 0 1 4.5 18Z" fill-opacity=".8"/><path d="M8.25 9.75h-3A.75.75 0 0 1 4.5 9V6a.75.75 0 0 1 .75-.75h3A.75.75 0 0 1 9 6v3a.75.75 0 0 1-.75.75Z" fill-opacity=".8"/></svg><svg viewBox="0 0 16 18" id="icon-notes" xmlns="http://www.w3.org/2000/svg"><path d="M3.2 4.09a.81.81 0 0 1 .8-.817h8c.442 0 .8.366.8.818a.81.81 0 0 1-.8.818H4a.81.81 0 0 1-.8-.818ZM3.2 7.364a.81.81 0 0 1 .8-.819h8c.442 0 .8.367.8.819a.81.81 0 0 1-.8.818H4a.81.81 0 0 1-.8-.818ZM4 9.818a.81.81 0 0 0-.8.818.81.81 0 0 0 .8.819h8a.81.81 0 0 0 .8-.819.81.81 0 0 0-.8-.818H4ZM3.2 13.91a.81.81 0 0 1 .8-.82h3.2c.442 0 .8.367.8.82a.81.81 0 0 1-.8.817H4a.81.81 0 0 1-.8-.818Z"/><path fill-rule="evenodd" clip-rule="evenodd" d="M0 2.455C0 1.099 1.075 0 2.4 0h11.2C14.925 0 16 1.099 16 2.455v13.09C16 16.902 14.925 18 13.6 18H2.4C1.075 18 0 16.901 0 15.546V2.455Zm2.4-.819h11.2c.442 0 .8.367.8.819v13.09a.81.81 0 0 1-.8.819H2.4a.81.81 0 0 1-.8-.819V2.456a.81.81 0 0 1 .8-.819Z"/></svg><svg viewBox="0 0 18 18" id="icon-org" xmlns="http://www.w3.org/2000/svg"><path fill-rule="evenodd" clip-rule="evenodd" d="M10 18v-8h8v8h-8Zm2-6h4v4h-4v-4ZM0 8V0h8v8H0Zm2-6h4v4H2V2Z"/><path d="M15 3v6h-2V5H9V3h6ZM9 15H3V9h2v4h4v2Z"/></svg><svg viewBox="0 0 10 10" id="icon-pencil" xmlns="http://www.w3.org/2000/svg"><path d="M9.35 1.6a.512.512 0 0 1 0 .724L8.037 3.638 6.362 1.963 7.675.65a.512.512 0 0 1 .724 0l.951.95ZM7.267 4.407 5.592 2.732 1.337 6.987.5 9.5l2.513-.838 4.254-4.255Z"/></svg><svg viewBox="0 0 19 20" id="icon-phone" xmlns="http://www.w3.org/2000/svg"><path d="M2.063 1.824 3.586.993a2.358 2.358 0 0 1 3.036.681l1.673 2.295a2.358 2.358 0 0 1 .022 2.747l-1.394 1.98c-.186.27.17 1.094 1.33 2.387 1.16 1.294 1.939 1.739 2.223 1.584l2.126-1.173a2.359 2.359 0 0 1 2.727.321l2.091 1.905a2.358 2.358 0 0 1 .352 3.086l-1.003 1.449a3.217 3.217 0 0 1-2.932 1.373c-2.793-.252-5.723-2.125-8.818-5.578C1.918 10.592.36 7.453.389 4.614a3.216 3.216 0 0 1 1.674-2.79Z"/></svg><svg viewBox="0 0 14 14" id="icon-plus" xmlns="http://www.w3.org/2000/svg"><path fill-rule="evenodd" clip-rule="evenodd" d="M7.002.6a.64.64 0 0 1 .64.64v5.12h5.12a.64.64 0 0 1 0 1.28h-5.12v5.12a.64.64 0 1 1-1.28 0V7.64h-5.12a.64.64 0 0 1 0-1.28h5.12V1.24a.64.64 0 0 1 .64-.64Z"/></svg><svg viewBox="0 0 24 24" id="icon-settings" xmlns="http://www.w3.org/2000/svg"><path d="M12 15a3 3 0 1 0 0-6 3 3 0 0 0 0 6Z" stroke-opacity=".8" stroke-width="1.5"/><path d="M13.872 2.152C13.482 2 12.989 2 12 2c-.989 0-1.483 0-1.872.152-.258.1-.492.248-.689.434a1.997 1.997 0 0 0-.46.649c-.097.223-.137.484-.151.863a1.548 1.548 0 0 1-.234.779 1.668 1.668 0 0 1-.604.574 1.797 1.797 0 0 1-1.662.008c-.357-.178-.614-.276-.87-.308a2.217 2.217 0 0 0-1.568.396C3.557 5.79 3.31 6.193 2.815 7s-.743 1.21-.797 1.605a1.89 1.89 0 0 0 .054.779c.072.254.197.492.366.7.157.192.377.353.717.555.502.297.824.803.824 1.361 0 .558-.322 1.064-.824 1.36-.34.203-.56.364-.717.556-.17.208-.294.446-.366.7a1.89 1.89 0 0 0-.054.779c.055.394.303.798.796 1.605.495.807.742 1.21 1.076 1.453.221.16.474.277.743.345.269.068.55.085.826.051.255-.032.512-.13.869-.308a1.798 1.798 0 0 1 1.662.008c.512.28.816.795.838 1.353.014.38.053.64.151.863.107.243.263.463.46.65.197.185.431.332.689.433.39.152.883.152 1.872.152.989 0 1.483 0 1.872-.152.258-.1.492-.248.689-.434.197-.186.353-.406.46-.649.097-.223.137-.483.151-.863a1.601 1.601 0 0 1 .838-1.353 1.797 1.797 0 0 1 1.662-.008c.357.178.614.276.869.308.276.034.557.017.826-.05.27-.069.522-.186.743-.346.334-.242.581-.646 1.075-1.453.495-.807.743-1.21.797-1.605a1.89 1.89 0 0 0-.054-.779 1.955 1.955 0 0 0-.366-.7c-.157-.192-.377-.353-.717-.555a1.666 1.666 0 0 1-.599-.58 1.548 1.548 0 0 1-.225-.781c0-.558.322-1.064.824-1.36.34-.203.56-.364.717-.556.17-.208.294-.446.366-.7a1.89 1.89 0 0 0 .054-.779c-.055-.394-.302-.798-.796-1.605-.495-.807-.742-1.21-1.076-1.453a2.176 2.176 0 0 0-.743-.345 2.246 2.246 0 0 0-.826-.051c-.255.032-.512.13-.87.308a1.798 1.798 0 0 1-1.66-.008 1.669 1.669 0 0 1-.605-.574 1.549 1.549 0 0 1-.234-.779c-.014-.38-.053-.64-.151-.863a1.996 1.996 0 0 0-.46-.65 2.134 2.134 0 0 0-.689-.433Z" stroke-opacity=".8" stroke-width="1.5"/></svg><svg viewBox="0 0 28 28" id="icon-user" xmlns="http://www.w3.org/2000/svg"><path d="M27.63 13.988c0-7.564-6.106-13.7-13.63-13.7C6.478.287.372 6.423.372 13.987c0 4.165 1.881 7.92 4.825 10.44.027.027.054.027.054.055.246.191.491.383.764.575.136.083.245.19.381.3a13.536 13.536 0 0 0 15.266 0c.136-.082.245-.19.381-.274.245-.19.518-.382.763-.574.028-.027.055-.027.055-.055 2.89-2.549 4.77-6.302 4.77-10.467ZM14 25.989c-2.562 0-4.906-.823-6.841-2.192.027-.22.081-.437.136-.657.162-.594.4-1.166.709-1.699.3-.52.654-.987 1.09-1.398a7.66 7.66 0 0 1 1.39-1.096 6.857 6.857 0 0 1 1.663-.686 7.026 7.026 0 0 1 1.854-.245 7.106 7.106 0 0 1 4.988 2 6.872 6.872 0 0 1 1.472 2.22c.191.493.327 1.014.41 1.56A11.926 11.926 0 0 1 14 25.99ZM9.83 13.304a4.292 4.292 0 0 1-.354-1.756c0-.601.109-1.205.354-1.753.245-.549.572-1.041.981-1.452.41-.412.9-.74 1.445-.986A4.229 4.229 0 0 1 14.001 7c.627 0 1.2.11 1.744.357a4.864 4.864 0 0 1 1.445.986c.409.411.736.905.981 1.452.246.548.355 1.152.355 1.753 0 .631-.11 1.207-.355 1.754a4.872 4.872 0 0 1-.98 1.454 4.838 4.838 0 0 1-1.446.985 4.599 4.599 0 0 1-3.516 0 4.836 4.836 0 0 1-1.445-.985 4.326 4.326 0 0 1-.954-1.452ZM22.478 22.4c0-.055-.027-.083-.027-.137a8.97 8.97 0 0 0-1.172-2.41 8.347 8.347 0 0 0-1.854-1.947 8.854 8.854 0 0 0-1.771-1.042c.285-.19.55-.41.79-.656a7.192 7.192 0 0 0 1.063-1.344 6.243 6.243 0 0 0 .9-3.316 6.396 6.396 0 0 0-.491-2.52 6.516 6.516 0 0 0-1.39-2.055A6.549 6.549 0 0 0 16.48 5.6a6.304 6.304 0 0 0-2.508-.492 6.304 6.304 0 0 0-2.507.494A6.185 6.185 0 0 0 9.42 7a6.586 6.586 0 0 0-1.363 2.056 6.394 6.394 0 0 0-.49 2.52c0 .603.081 1.18.245 1.726.163.576.381 1.097.681 1.59.273.493.655.932 1.063 1.343.246.247.518.465.818.657a8.712 8.712 0 0 0-1.772 1.07A9.475 9.475 0 0 0 6.75 19.88a8.591 8.591 0 0 0-1.172 2.41c-.028.055-.028.11-.028.137-2.153-2.192-3.489-5.151-3.489-8.44 0-6.603 5.37-12.001 11.94-12.001 6.57 0 11.94 5.398 11.94 12.002a11.97 11.97 0 0 1-3.463 8.412Z" fill-opacity=".8"/></svg><svg viewBox="0 0 20 20" id="icon-user-stroke" xmlns="http://www.w3.org/2000/svg"><path fill-rule="evenodd" clip-rule="evenodd" d="M5 14h10a5 5 0 0 1 5 5 1 1 0 0 1-1.993.117l-.012-.293a3 3 0 0 0-2.819-2.819L15 16H5a3 3 0 0 0-3 3 1 1 0 1 1-2 0 5 5 0 0 1 4.783-4.995L5 14h10H5Zm5-14a6 6 0 1 1 0 12 6 6 0 0 1 0-12Zm0 2a4 4 0 1 0 0 8 4 4 0 0 0 0-8Z"/></svg><svg fill="none" viewBox="0 0 33 32" id="icon-viber" xmlns="http://www.w3.org/2000/svg"><g clip-path="url(#bpa)"><path d="M16.5 28.352c6.822 0 12.352-5.53 12.352-12.353 0-6.822-5.53-12.353-12.353-12.353C9.677 3.646 4.146 9.177 4.146 16c0 6.823 5.531 12.353 12.353 12.353Z" fill="#3918A4"/><path d="M16.5 31.764c8.706 0 15.764-7.058 15.764-15.765S25.206.234 16.499.234.734 7.292.734 16 7.792 31.764 16.5 31.764Z" stroke="#3E4357" stroke-miterlimit="10"/><path d="M30.383 16.761a.762.762 0 1 0 0-1.525.762.762 0 0 0 0 1.525ZM2.618 16.761a.762.762 0 1 0 0-1.525.762.762 0 0 0 0 1.525Z" fill="#3E4357"/><path d="M22.636 18.64c-.08-.123-.612-.381-.612-.381-.212-.104-1.77-.866-2.061-.974-.25-.09-.537-.193-.79.188-.194.287-.758.946-.947 1.153-.127.146-.25.193-.536.051-.047-.023-1.436-.616-2.39-1.463-.848-.748-1.436-1.675-1.652-2.038-.132-.22-.048-.324.117-.49.099-.098.541-.63.574-.677.07-.108.193-.362.193-.362.127-.25.047-.466-.023-.612-.052-.099-.847-2.023-.927-2.202-.226-.541-.471-.57-.702-.56-.113.01-1.171.014-1.506.381l-.06.061c-.33.348-1.017 1.078-1.017 2.485 0 .325.052.663.16 1.04.197.678.579 1.421 1.087 2.099.01.014.786 1.087 1.172 1.534 1.223 1.407 2.602 2.447 3.995 2.993 1.779.696 2.541.856 2.974.856.188 0 .588-.094.673-.103.546-.047 1.835-.72 2.108-1.478.26-.715.264-1.341.165-1.501h.005Z" fill="#fff"/></g><defs><clipPath id="bpa"><path fill="#fff" transform="translate(.5)" d="M0 0h32v32H0z"/></clipPath></defs></svg></svg>