<?xml version="1.0" encoding="utf-8"?><svg viewBox="0 0 45 32" xmlns="http://www.w3.org/2000/svg" xmlns:xlink="http://www.w3.org/1999/xlink"><style>:root>svg{display:none}:root>svg:target{display:block}</style><svg viewBox="0 0 32 32" id="icon-add-circle" xmlns="http://www.w3.org/2000/svg"><path fill-rule="evenodd" clip-rule="evenodd" d="M3 16C3 8.823 8.823 3 16 3s13 5.823 13 13-5.823 13-13 13S3 23.177 3 16ZM16 5C9.927 5 5 9.927 5 16s4.927 11 11 11 11-4.927 11-11S22.073 5 16 5Z"/><path fill-rule="evenodd" clip-rule="evenodd" d="M16 10a1 1 0 0 1 1 1v10a1 1 0 1 1-2 0V11a1 1 0 0 1 1-1Z"/><path fill-rule="evenodd" clip-rule="evenodd" d="M10 16a1 1 0 0 1 1-1h10a1 1 0 1 1 0 2H11a1 1 0 0 1-1-1Z"/></svg><svg viewBox="0 0 22 20" id="icon-alert" xmlns="http://www.w3.org/2000/svg"><path d="M18.989 19.665H3.014a2.237 2.237 0 0 1-2.152-1.603 2.22 2.22 0 0 1 .174-1.71L9.019 1.514a2.254 2.254 0 0 1 3.966 0l7.987 14.836c.178.328.267.694.267 1.069 0 .6-.234 1.167-.661 1.589a2.21 2.21 0 0 1-1.59.656Zm-15.975-1.5h15.98c.201 0 .389-.08.53-.22a.745.745 0 0 0 .13-.886L11.663 2.228a.733.733 0 0 0-.66-.394.733.733 0 0 0-.662.394L2.354 17.064a.738.738 0 0 0-.056.572.745.745 0 0 0 .36.445c.108.056.23.084.357.084Z" fill-opacity=".8"/><path d="M11.002 13.628a.751.751 0 0 1-.75-.712l-.268-5.72V7.16a1.016 1.016 0 0 1 1.008-1.026h.056c.563.023.999.501.97 1.064l-.266 5.719a.751.751 0 0 1-.75.712ZM11 16.617a.94.94 0 0 1-.938-.937.94.94 0 0 1 .938-.938.94.94 0 0 1 .938.938.94.94 0 0 1-.938.937Z" fill-opacity=".8"/></svg><svg viewBox="0 0 9 15" id="icon-attachment" xmlns="http://www.w3.org/2000/svg"><path d="M5.786.5C7.56.5 9 1.825 9 3.46v7.106c0 2.289-2.015 4.144-4.5 4.144S0 12.855 0 10.566V5.829h1.286v4.737c0 1.635 1.439 2.96 3.214 2.96s3.214-1.325 3.214-2.96V3.46c0-.982-.863-1.777-1.928-1.777s-1.929.795-1.929 1.777v7.105c0 .327.288.592.643.592.355 0 .643-.265.643-.592V4.053h1.286v6.513c0 .98-.864 1.776-1.929 1.776s-1.929-.795-1.929-1.776V3.46C2.571 1.825 4.011.5 5.786.5Z"/></svg><svg viewBox="0 0 26 28" id="icon-bell" xmlns="http://www.w3.org/2000/svg"><path fill-rule="evenodd" clip-rule="evenodd" d="M9.3 3.035C9.745 1.533 11.057 0 13 0c1.944 0 3.254 1.533 3.705 3.032a.175.175 0 0 0 .039.036l.012.007c1.131.466 2.462 1.21 3.504 2.572 1.05 1.373 1.732 3.279 1.732 5.937 0 2.651.28 4.105.692 5.103.36.875.836 1.45 1.511 2.269l.31.376c1.245 1.526.07 3.668-1.85 3.668h-4.655a5 5 0 1 1-10 0h-4.65c-1.914 0-3.11-2.132-1.854-3.668.107-.132.21-.257.31-.377.675-.818 1.15-1.393 1.511-2.268.413-.998.693-2.452.694-5.103M10.002 23a3 3 0 0 0 6 0h-6Zm-6.65-2c-.206 0-.298-.095-.335-.167a.215.215 0 0 1-.025-.117.214.214 0 0 1 .054-.119l.29-.353c.671-.808 1.347-1.622 1.83-2.794.557-1.346.845-3.1.846-5.865 0-2.304.584-3.76 1.32-4.725.746-.974 1.723-1.542 2.678-1.935.51-.21 1.017-.676 1.2-1.302l.001-.002C11.496 2.642 12.231 2 13.002 2s1.506.642 1.794 1.623v.002c.183.615.686 1.088 1.2 1.3.954.392 1.93.96 2.677 1.937.738.965 1.321 2.422 1.321 4.722 0 2.765.287 4.52.843 5.866.484 1.172 1.16 1.986 1.83 2.794l.29.353a.203.203 0 0 1 .028.237c-.038.075-.13.166-.327.166H3.352ZM9.299 3.035a.193.193 0 0 1-.035.031l-.015.01c-1.132.465-2.464 1.208-3.505 2.57-1.05 1.372-1.731 3.277-1.732 5.938" fill-opacity=".8"/></svg><svg viewBox="0 0 24 24" id="icon-book" xmlns="http://www.w3.org/2000/svg"><path fill-rule="evenodd" clip-rule="evenodd" d="M2.25 3.75c3.04.014 5.158.396 6.583 1.077 1.382.66 2.122 1.604 2.44 2.857a.75.75 0 0 0 1.454 0c.318-1.253 1.058-2.197 2.44-2.857 1.425-.681 3.543-1.063 6.583-1.077v13.5c-5.413 0-8.072.97-9.75 2.63-1.672-1.652-4.334-2.628-9.736-2.63a.252.252 0 0 1-.014-.09V3.75Zm-.573-1.387c.183-.075.378-.114.576-.113 3.126.014 5.507.402 7.227 1.223 1.119.535 1.95 1.25 2.52 2.138.57-.887 1.401-1.603 2.52-2.138 1.72-.821 4.1-1.209 7.227-1.223a1.498 1.498 0 0 1 1.503 1.501V17.25a1.5 1.5 0 0 1-1.5 1.5c-5.911 0-7.943 1.192-9.164 2.718a.75.75 0 0 1-1.172 0c-1.213-1.517-3.253-2.718-9.164-2.718a1.45 1.45 0 0 1-1.12-.51 1.66 1.66 0 0 1-.38-1.08V3.75a1.497 1.497 0 0 1 .927-1.388Z" fill-opacity=".8"/><path fill-rule="evenodd" clip-rule="evenodd" d="M12 6.75a.75.75 0 0 1 .75.75V21a.75.75 0 0 1-1.5 0V7.5a.75.75 0 0 1 .75-.75Z" fill-opacity=".8"/></svg><svg fill="none" viewBox="0 0 32 32" id="icon-chat" xmlns="http://www.w3.org/2000/svg"><g clip-path="url(#afa)"><path d="M16.001 28.352c6.823 0 12.353-5.53 12.353-12.353 0-6.822-5.53-12.353-12.353-12.353C9.18 3.646 3.648 9.177 3.648 16c0 6.823 5.531 12.353 12.353 12.353Z" fill="#0085FF"/><path d="M16 31.764c8.706 0 15.764-7.058 15.764-15.765S24.706.234 15.999.234.234 7.292.234 16 7.292 31.764 16 31.764Z" stroke="#3E4357" stroke-miterlimit="10"/><path d="M29.883 16.761a.762.762 0 1 0 0-1.525.762.762 0 0 0 0 1.525ZM2.118 16.761a.762.762 0 1 0 0-1.525.762.762 0 0 0 0 1.525Z" fill="#3E4357"/><path d="M19.453 11.559H12.55a3.105 3.105 0 0 0-3.097 3.096v3.134a3.105 3.105 0 0 0 3.097 3.097h5.152l.984 1.27a.443.443 0 0 0 .753-.084l.565-1.238a3.11 3.11 0 0 0 2.546-3.045v-3.134a3.105 3.105 0 0 0-3.097-3.096Zm-6.903 5.623a.857.857 0 1 1 0-1.713.857.857 0 0 1 0 1.713Zm3.468 0a.856.856 0 1 1 0-1.713.856.856 0 0 1 0 1.713Zm3.468 0a.857.857 0 1 1 0-1.713.857.857 0 0 1 0 1.713Z" fill="#fff"/></g><defs><clipPath id="afa"><path fill="#fff" d="M0 0h32v32H0z"/></clipPath></defs></svg><svg viewBox="0 0 22 20" id="icon-chat_stroke" xmlns="http://www.w3.org/2000/svg"><path fill-rule="evenodd" clip-rule="evenodd" d="M3.873.25h14.252V1l.002-.75A3.383 3.383 0 0 1 21.5 3.623V12.627A3.382 3.382 0 0 1 18.127 16H10.52L6.23 19.576A.75.75 0 0 1 5 19v-3H3.873A3.382 3.382 0 0 1 .5 12.627V3.623A3.382 3.382 0 0 1 3.873.25Zm6.75 15.663Zm7.5-14.163H3.877A1.883 1.883 0 0 0 2 3.626v8.998A1.882 1.882 0 0 0 3.876 14.5H5.75a.75.75 0 0 1 .75.75v2.148l3.162-2.636c.203-.17.458-.262.722-.262h7.74A1.883 1.883 0 0 0 20 12.624V3.626a1.883 1.883 0 0 0-1.876-1.876Z" fill-opacity=".8"/></svg><svg viewBox="0 0 12 8" id="icon-check" xmlns="http://www.w3.org/2000/svg"><path fill-rule="evenodd" clip-rule="evenodd" d="m4.826 7.398-.424-.424-.425.424a.6.6 0 0 0 .849 0Zm-.424-1.272L1.626 3.35a.6.6 0 0 0-.849.848l3.2 3.2.425-.424.424.424L11 1.224a.6.6 0 1 0-.849-.848l-5.75 5.75Z"/></svg><svg viewBox="0 0 16 10" id="icon-chevron-down" xmlns="http://www.w3.org/2000/svg"><path d="M2.344.758.93 2.172 8 9.243l7.072-7.07L13.658.757 8 6.415 2.344.758Z"/></svg><svg viewBox="0 0 9 12" id="icon-chevron-left" xmlns="http://www.w3.org/2000/svg"><path d="M8.16 1.41 3.58 6l4.58 4.59L6.75 12l-6-6 6-6 1.41 1.41Z"/></svg><svg viewBox="0 0 9 12" id="icon-chevron-right" xmlns="http://www.w3.org/2000/svg"><path d="M.84 1.41 5.42 6 .84 10.59 2.25 12l6-6-6-6L.84 1.41Z"/></svg><svg viewBox="0 0 16 10" id="icon-chevron-up" xmlns="http://www.w3.org/2000/svg"><path d="m13.656 9.242 1.414-1.414L8 .757.927 7.828l1.414 1.414L8 3.585l5.657 5.657Z" fill-opacity=".8"/></svg><svg viewBox="0 0 18 18" id="icon-circle-alert" xmlns="http://www.w3.org/2000/svg"><path d="M9.835 9.833H8.168v-5h1.667v5Zm0 3.333H8.168v-1.667h1.667v1.667ZM9 .666a8.333 8.333 0 1 0 0 16.667 8.333 8.333 0 0 0 0-16.667Z"/></svg><svg viewBox="0 0 18 20" id="icon-doc" xmlns="http://www.w3.org/2000/svg"><path fill-rule="evenodd" clip-rule="evenodd" d="M0 3a3 3 0 0 1 3-3h8a7 7 0 0 1 7 7v10a3 3 0 0 1-3 3H3a3 3 0 0 1-3-3V3Zm10-1H3a1 1 0 0 0-1 1v14a1 1 0 0 0 1 1h12a1 1 0 0 0 1-1V7h-6V2Zm5.584 3A5.009 5.009 0 0 0 12 2.1V5h3.584Z" fill-opacity=".8"/></svg><svg viewBox="0 0 22 22" id="icon-done" xmlns="http://www.w3.org/2000/svg"><path fill-rule="evenodd" clip-rule="evenodd" d="M11 0C4.925 0 0 4.925 0 11s4.925 11 11 11 11-4.925 11-11S17.075 0 11 0Zm4.768 9.14a1 1 0 1 0-1.536-1.28l-4.3 5.159-2.225-2.226a1 1 0 0 0-1.414 1.414l3 3a1.001 1.001 0 0 0 1.475-.067l5-6Z"/></svg><svg viewBox="0 0 20 12" id="icon-eye" xmlns="http://www.w3.org/2000/svg"><path d="m17.5 9-2.475-3.396M10 10.5V7M2.5 9l2.469-3.388M1 1c3.6 8 14.4 8 18 0" stroke-opacity=".8" stroke-width="1.5" stroke-linecap="round" stroke-linejoin="round"/></svg><svg viewBox="0 0 22 16" id="icon-eye-opened" xmlns="http://www.w3.org/2000/svg"><path fill-rule="evenodd" clip-rule="evenodd" d="M2.848 6.552C2.402 7.219 2.25 7.724 2.25 8s.152.781.598 1.448c.428.642 1.068 1.341 1.88 1.989C6.36 12.737 8.584 13.75 11 13.75c2.417 0 4.64-1.014 6.271-2.313.813-.648 1.453-1.347 1.881-1.989.446-.667.598-1.172.598-1.448s-.152-.781-.598-1.448c-.428-.642-1.069-1.341-1.88-1.989C15.64 3.263 13.416 2.25 11 2.25c-2.417 0-4.64 1.014-6.271 2.313-.813.648-1.453 1.347-1.881 1.989Zm.634-3.553C5.381 1.486 8.032.25 11 .25S16.62 1.486 18.518 3c.952.758 1.74 1.606 2.297 2.44.541.81.935 1.711.935 2.56s-.394 1.75-.935 2.56c-.558.834-1.345 1.682-2.297 2.44-1.899 1.514-4.55 2.75-7.518 2.75S5.38 14.514 3.482 13c-.952-.758-1.74-1.606-2.297-2.44C.644 9.75.25 8.848.25 8s.394-1.75.935-2.56C1.743 4.606 2.53 3.758 3.482 3Z" fill-opacity=".8"/><path fill-rule="evenodd" clip-rule="evenodd" d="M11 5.25a2.75 2.75 0 1 0 0 5.5 2.75 2.75 0 0 0 0-5.5Zm-3.359-.609a4.75 4.75 0 1 1 6.718 6.718A4.75 4.75 0 0 1 7.64 4.64Z" fill-opacity=".8"/></svg><svg viewBox="0 0 24 24" id="icon-file-tray" xmlns="http://www.w3.org/2000/svg"><path fill-rule="evenodd" clip-rule="evenodd" d="M4.027 3.654C4.569 3.203 5.254 3 6 3h12c.715 0 1.397.187 1.946.628.55.442.895 1.081 1.04 1.851l1.498 7.116a.75.75 0 0 1 .016.155v5.252A3.007 3.007 0 0 1 19.502 21H4.498A3.007 3.007 0 0 1 1.5 18.002V12.75a.75.75 0 0 1 .016-.155l1.499-7.118c.143-.738.471-1.375 1.012-1.823Zm.958 1.153c-.22.183-.407.482-.498.96a.838.838 0 0 1-.003.013L3 12.828v5.17A1.506 1.506 0 0 0 4.501 19.5H19.5A1.506 1.506 0 0 0 21 17.999v-5.17l-1.484-7.05a.558.558 0 0 1-.003-.017c-.091-.492-.285-.787-.506-.964-.225-.18-.55-.298-1.007-.298H6c-.473 0-.796.125-1.015.307Z" fill-opacity=".8"/><path fill-rule="evenodd" clip-rule="evenodd" d="M1.5 12.75a.75.75 0 0 1 .75-.75H9a.75.75 0 0 1 0 1.5H2.25a.75.75 0 0 1-.75-.75ZM14.25 12.75A.75.75 0 0 1 15 12h6.75a.75.75 0 0 1 0 1.5H15a.75.75 0 0 1-.75-.75Z" fill-opacity=".8"/><path fill-rule="evenodd" clip-rule="evenodd" d="M9 12a.75.75 0 0 1 .75.75 2.25 2.25 0 0 0 4.5 0 .75.75 0 0 1 1.5 0 3.75 3.75 0 1 1-7.5 0A.75.75 0 0 1 9 12ZM6 6.75A.75.75 0 0 1 6.75 6h10.5a.75.75 0 0 1 0 1.5H6.75A.75.75 0 0 1 6 6.75ZM5.25 9.75A.75.75 0 0 1 6 9h12a.75.75 0 0 1 0 1.5H6a.75.75 0 0 1-.75-.75Z" fill-opacity=".8"/></svg><svg viewBox="0 0 22 22" id="icon-info" xmlns="http://www.w3.org/2000/svg"><path d="M11 .5C5.202.5.5 5.202.5 11S5.202 21.5 11 21.5 21.5 16.798 21.5 11 16.798.5 11 .5Zm.75 15.563a.188.188 0 0 1-.188.187h-1.124a.188.188 0 0 1-.188-.188V9.688c0-.103.084-.187.188-.187h1.124c.104 0 .188.084.188.188v6.374ZM11 8a1.125 1.125 0 0 1 0-2.25A1.125 1.125 0 0 1 11 8Z"/></svg><svg viewBox="0 0 24 24" id="icon-loading" xmlns="http://www.w3.org/2000/svg"><path d="M12 22.5V19m0-17.5V5M2.907 6.75l3.03 1.75M22.5 12H19m-1.75-9.093-1.75 3.03M1.5 12H5m1.75 9.093 1.75-3.03M6.75 2.906l1.75 3.03m12.593.813-3.03 1.75M2.906 17.25l3.03-1.75" stroke-width="2" stroke-linecap="round" stroke-linejoin="round"/></svg><svg viewBox="0 0 24 24" id="icon-loop" xmlns="http://www.w3.org/2000/svg"><path fill-rule="evenodd" clip-rule="evenodd" d="M5.856 3.617a8.114 8.114 0 0 1 4.508-1.367V3v-.75a8.114 8.114 0 0 1 8.113 8.114A8.114 8.114 0 1 1 5.856 3.617Zm4.508.133a6.614 6.614 0 0 1 6.613 6.614M10.363 3.75a6.614 6.614 0 1 0 6.614 6.614" fill-opacity=".8"/><path fill-rule="evenodd" clip-rule="evenodd" d="M15.325 15.327a.75.75 0 0 1 1.06 0l5.143 5.143a.75.75 0 0 1-1.06 1.06l-5.143-5.142a.75.75 0 0 1 0-1.06Z" fill-opacity=".8"/></svg><svg viewBox="0 0 45 31" id="icon-menu" xmlns="http://www.w3.org/2000/svg"><path d="M.18 2.204C.18.987 1.165 0 2.38 0h39.6c1.215 0 2.2.987 2.2 2.204a2.202 2.202 0 0 1-2.2 2.204H2.38c-1.215 0-2.2-.987-2.2-2.204ZM.18 15.5c0-1.217.985-2.204 2.2-2.204h39.6c1.215 0 2.2.987 2.2 2.204a2.202 2.202 0 0 1-2.2 2.204H2.38c-1.215 0-2.2-.987-2.2-2.204ZM2.38 26.592c-1.215 0-2.2.987-2.2 2.204S1.165 31 2.38 31h39.6c1.215 0 2.2-.987 2.2-2.204a2.202 2.202 0 0 0-2.2-2.204H2.38Z"/></svg><svg viewBox="0 0 16 4" id="icon-more-alt" xmlns="http://www.w3.org/2000/svg"><path d="M4 2a2 2 0 1 1-4 0 2 2 0 0 1 4 0ZM10 2a2 2 0 1 1-4 0 2 2 0 0 1 4 0ZM14 4a2 2 0 1 0 0-4 2 2 0 0 0 0 4Z" fill-opacity=".8"/></svg><svg viewBox="0 0 3 12" id="icon-more-alt_vertical" xmlns="http://www.w3.org/2000/svg"><path d="M1.5 3a1.5 1.5 0 1 1 0-3 1.5 1.5 0 0 1 0 3ZM1.5 7.5a1.5 1.5 0 1 1 0-3 1.5 1.5 0 0 1 0 3ZM0 10.5a1.5 1.5 0 1 0 3 0 1.5 1.5 0 0 0-3 0Z" fill-opacity=".38"/></svg><svg viewBox="0 0 24 24" id="icon-newspaper" xmlns="http://www.w3.org/2000/svg"><path fill-rule="evenodd" clip-rule="evenodd" d="M3.373 1.5H16.127A1.878 1.878 0 0 1 18 3.373V19.493h-1.5V3.376A.378.378 0 0 0 16.124 3H3.376A.378.378 0 0 0 3 3.376v16.498A1.13 1.13 0 0 0 4.126 21H19.5v1.5H4.123A2.63 2.63 0 0 1 1.5 19.877V3.373A1.878 1.878 0 0 1 3.373 1.5Z" fill-opacity=".8"/><path fill-rule="evenodd" clip-rule="evenodd" d="M16.5 6a.75.75 0 0 1 .75-.75h3.375A1.875 1.875 0 0 1 22.5 7.125V19.5a3 3 0 0 1-6 0V6Zm1.5.75V19.5a1.5 1.5 0 1 0 3 0V7.125a.375.375 0 0 0-.375-.375H18ZM10.5 6a.75.75 0 0 1 .75-.75h3a.75.75 0 0 1 0 1.5h-3A.75.75 0 0 1 10.5 6ZM10.5 9a.75.75 0 0 1 .75-.75h3a.75.75 0 0 1 0 1.5h-3A.75.75 0 0 1 10.5 9ZM4.5 12a.75.75 0 0 1 .75-.75h9a.75.75 0 0 1 0 1.5h-9A.75.75 0 0 1 4.5 12ZM4.5 15a.75.75 0 0 1 .75-.75h9a.75.75 0 0 1 0 1.5h-9A.75.75 0 0 1 4.5 15ZM4.5 18a.75.75 0 0 1 .75-.75h9a.75.75 0 0 1 0 1.5h-9A.75.75 0 0 1 4.5 18Z" fill-opacity=".8"/><path d="M8.25 9.75h-3A.75.75 0 0 1 4.5 9V6a.75.75 0 0 1 .75-.75h3A.75.75 0 0 1 9 6v3a.75.75 0 0 1-.75.75Z" fill-opacity=".8"/></svg><svg viewBox="0 0 16 18" id="icon-notes" xmlns="http://www.w3.org/2000/svg"><path d="M3.2 4.09a.81.81 0 0 1 .8-.817h8c.442 0 .8.366.8.818a.81.81 0 0 1-.8.818H4a.81.81 0 0 1-.8-.818ZM3.2 7.364a.81.81 0 0 1 .8-.819h8c.442 0 .8.367.8.819a.81.81 0 0 1-.8.818H4a.81.81 0 0 1-.8-.818ZM4 9.818a.81.81 0 0 0-.8.818.81.81 0 0 0 .8.819h8a.81.81 0 0 0 .8-.819.81.81 0 0 0-.8-.818H4ZM3.2 13.91a.81.81 0 0 1 .8-.82h3.2c.442 0 .8.367.8.82a.81.81 0 0 1-.8.817H4a.81.81 0 0 1-.8-.818Z"/><path fill-rule="evenodd" clip-rule="evenodd" d="M0 2.455C0 1.099 1.075 0 2.4 0h11.2C14.925 0 16 1.099 16 2.455v13.09C16 16.902 14.925 18 13.6 18H2.4C1.075 18 0 16.901 0 15.546V2.455Zm2.4-.819h11.2c.442 0 .8.367.8.819v13.09a.81.81 0 0 1-.8.819H2.4a.81.81 0 0 1-.8-.819V2.456a.81.81 0 0 1 .8-.819Z"/></svg><svg viewBox="0 0 10 10" id="icon-pencil" xmlns="http://www.w3.org/2000/svg"><path d="M9.35 1.6a.512.512 0 0 1 0 .724L8.037 3.638 6.362 1.963 7.675.65a.512.512 0 0 1 .724 0l.951.95ZM7.267 4.407 5.592 2.732 1.337 6.987.5 9.5l2.513-.838 4.254-4.255Z"/></svg><svg viewBox="0 0 19 20" id="icon-phone" xmlns="http://www.w3.org/2000/svg"><path d="M2.063 1.824 3.586.993a2.358 2.358 0 0 1 3.036.681l1.673 2.295a2.358 2.358 0 0 1 .022 2.747l-1.394 1.98c-.186.27.17 1.094 1.33 2.387 1.16 1.294 1.939 1.739 2.223 1.584l2.126-1.173a2.359 2.359 0 0 1 2.727.321l2.091 1.905a2.358 2.358 0 0 1 .352 3.086l-1.003 1.449a3.217 3.217 0 0 1-2.932 1.373c-2.793-.252-5.723-2.125-8.818-5.578C1.918 10.592.36 7.453.389 4.614a3.216 3.216 0 0 1 1.674-2.79Z"/></svg><svg viewBox="0 0 14 14" id="icon-plus" xmlns="http://www.w3.org/2000/svg"><path fill-rule="evenodd" clip-rule="evenodd" d="M7.002.6a.64.64 0 0 1 .64.64v5.12h5.12a.64.64 0 0 1 0 1.28h-5.12v5.12a.64.64 0 1 1-1.28 0V7.64h-5.12a.64.64 0 0 1 0-1.28h5.12V1.24a.64.64 0 0 1 .64-.64Z"/></svg><svg viewBox="0 0 28 28" id="icon-user" xmlns="http://www.w3.org/2000/svg"><path d="M27.63 13.988c0-7.564-6.106-13.7-13.63-13.7C6.478.287.372 6.423.372 13.987c0 4.165 1.881 7.92 4.825 10.44.027.027.054.027.054.055.246.191.491.383.764.575.136.083.245.19.381.3a13.536 13.536 0 0 0 15.266 0c.136-.082.245-.19.381-.274.245-.19.518-.382.763-.574.028-.027.055-.027.055-.055 2.89-2.549 4.77-6.302 4.77-10.467ZM14 25.989c-2.562 0-4.906-.823-6.841-2.192.027-.22.081-.437.136-.657.162-.594.4-1.166.709-1.699.3-.52.654-.987 1.09-1.398a7.66 7.66 0 0 1 1.39-1.096 6.857 6.857 0 0 1 1.663-.686 7.026 7.026 0 0 1 1.854-.245 7.106 7.106 0 0 1 4.988 2 6.872 6.872 0 0 1 1.472 2.22c.191.493.327 1.014.41 1.56A11.926 11.926 0 0 1 14 25.99ZM9.83 13.304a4.292 4.292 0 0 1-.354-1.756c0-.601.109-1.205.354-1.753.245-.549.572-1.041.981-1.452.41-.412.9-.74 1.445-.986A4.229 4.229 0 0 1 14.001 7c.627 0 1.2.11 1.744.357a4.864 4.864 0 0 1 1.445.986c.409.411.736.905.981 1.452.246.548.355 1.152.355 1.753 0 .631-.11 1.207-.355 1.754a4.872 4.872 0 0 1-.98 1.454 4.838 4.838 0 0 1-1.446.985 4.599 4.599 0 0 1-3.516 0 4.836 4.836 0 0 1-1.445-.985 4.326 4.326 0 0 1-.954-1.452ZM22.478 22.4c0-.055-.027-.083-.027-.137a8.97 8.97 0 0 0-1.172-2.41 8.347 8.347 0 0 0-1.854-1.947 8.854 8.854 0 0 0-1.771-1.042c.285-.19.55-.41.79-.656a7.192 7.192 0 0 0 1.063-1.344 6.243 6.243 0 0 0 .9-3.316 6.396 6.396 0 0 0-.491-2.52 6.516 6.516 0 0 0-1.39-2.055A6.549 6.549 0 0 0 16.48 5.6a6.304 6.304 0 0 0-2.508-.492 6.304 6.304 0 0 0-2.507.494A6.185 6.185 0 0 0 9.42 7a6.586 6.586 0 0 0-1.363 2.056 6.394 6.394 0 0 0-.49 2.52c0 .603.081 1.18.245 1.726.163.576.381 1.097.681 1.59.273.493.655.932 1.063 1.343.246.247.518.465.818.657a8.712 8.712 0 0 0-1.772 1.07A9.475 9.475 0 0 0 6.75 19.88a8.591 8.591 0 0 0-1.172 2.41c-.028.055-.028.11-.028.137-2.153-2.192-3.489-5.151-3.489-8.44 0-6.603 5.37-12.001 11.94-12.001 6.57 0 11.94 5.398 11.94 12.002a11.97 11.97 0 0 1-3.463 8.412Z" fill-opacity=".8"/></svg></svg>