<?xml version="1.0" encoding="utf-8"?><svg viewBox="0 0 45 31" xmlns="http://www.w3.org/2000/svg" xmlns:xlink="http://www.w3.org/1999/xlink"><style>:root>svg{display:none}:root>svg:target{display:block}</style><svg viewBox="0 0 24 24" id="icon-check" xmlns="http://www.w3.org/2000/svg"><path d="M20.285 2 9 13.567 3.714 8.556 0 12.272 9 21 24 5.715z"/></svg><svg fill="none" viewBox="0 0 20 12" id="icon-eye" xmlns="http://www.w3.org/2000/svg"><path d="m17.5 9-2.475-3.396M10 10.5V7M2.5 9l2.469-3.388M1 1c3.6 8 14.4 8 18 0" stroke="#000" stroke-opacity=".8" stroke-width="1.5" stroke-linecap="round" stroke-linejoin="round"/></svg><svg fill="none" viewBox="0 0 22 16" id="icon-eye-opened" xmlns="http://www.w3.org/2000/svg"><path fill-rule="evenodd" clip-rule="evenodd" d="M2.848 6.552C2.402 7.219 2.25 7.724 2.25 8s.152.781.598 1.448c.428.642 1.068 1.341 1.88 1.989C6.36 12.737 8.584 13.75 11 13.75c2.417 0 4.64-1.014 6.271-2.313.813-.648 1.453-1.347 1.881-1.989.446-.667.598-1.172.598-1.448s-.152-.781-.598-1.448c-.428-.642-1.069-1.341-1.88-1.989C15.64 3.263 13.416 2.25 11 2.25c-2.417 0-4.64 1.014-6.271 2.313-.813.648-1.453 1.347-1.881 1.989Zm.634-3.553C5.381 1.486 8.032.25 11 .25S16.62 1.486 18.518 3c.952.758 1.74 1.606 2.297 2.44.541.81.935 1.711.935 2.56s-.394 1.75-.935 2.56c-.558.834-1.345 1.682-2.297 2.44-1.899 1.514-4.55 2.75-7.518 2.75S5.38 14.514 3.482 13c-.952-.758-1.74-1.606-2.297-2.44C.644 9.75.25 8.848.25 8s.394-1.75.935-2.56C1.743 4.606 2.53 3.758 3.482 3Z" fill="#000" fill-opacity=".8"/><path fill-rule="evenodd" clip-rule="evenodd" d="M11 5.25a2.75 2.75 0 1 0 0 5.5 2.75 2.75 0 0 0 0-5.5Zm-3.359-.609a4.75 4.75 0 1 1 6.718 6.718A4.75 4.75 0 0 1 7.64 4.64Z" fill="#000" fill-opacity=".8"/></svg><svg fill="none" viewBox="0 0 45 31" id="icon-menu" xmlns="http://www.w3.org/2000/svg"><path d="M.18 2.204C.18.987 1.165 0 2.38 0h39.6c1.215 0 2.2.987 2.2 2.204a2.202 2.202 0 0 1-2.2 2.204H2.38c-1.215 0-2.2-.987-2.2-2.204ZM.18 15.5c0-1.217.985-2.204 2.2-2.204h39.6c1.215 0 2.2.987 2.2 2.204a2.202 2.202 0 0 1-2.2 2.204H2.38c-1.215 0-2.2-.987-2.2-2.204ZM2.38 26.592c-1.215 0-2.2.987-2.2 2.204S1.165 31 2.38 31h39.6c1.215 0 2.2-.987 2.2-2.204a2.202 2.202 0 0 0-2.2-2.204H2.38Z" fill="#fff"/></svg><svg fill="none" viewBox="0 0 19 20" id="icon-phone" xmlns="http://www.w3.org/2000/svg"><path d="M2.063 1.824 3.586.993a2.358 2.358 0 0 1 3.036.681l1.673 2.295a2.358 2.358 0 0 1 .022 2.747l-1.394 1.98c-.186.27.17 1.094 1.33 2.387 1.16 1.294 1.939 1.739 2.223 1.584l2.126-1.173a2.359 2.359 0 0 1 2.727.321l2.091 1.905a2.358 2.358 0 0 1 .352 3.086l-1.003 1.449a3.217 3.217 0 0 1-2.932 1.373c-2.793-.252-5.723-2.125-8.818-5.578C1.918 10.592.36 7.453.389 4.614a3.216 3.216 0 0 1 1.674-2.79Z" fill="#fff"/></svg></svg>